<?xml version="1.0" encoding="UTF-8" standalone="no"?>
<!-- Created with Inkscape (http://www.inkscape.org/) -->

<svg
   xmlns:dc="http://purl.org/dc/elements/1.1/"
   xmlns:cc="http://creativecommons.org/ns#"
   xmlns:rdf="http://www.w3.org/1999/02/22-rdf-syntax-ns#"
   xmlns:svg="http://www.w3.org/2000/svg"
   xmlns="http://www.w3.org/2000/svg"
   xmlns:sodipodi="http://sodipodi.sourceforge.net/DTD/sodipodi-0.dtd"
   xmlns:inkscape="http://www.inkscape.org/namespaces/inkscape"
   id="svg6953"
   version="1.1"
   inkscape:version="0.91 r13725"
   xml:space="preserve"
   width="603.75"
   height="438.75"
   viewBox="0 0 603.75 438.75"
   sodipodi:docname="loci_relatedness_dendrogram_neg_cb_noncoding_bounds.svg"><metadata
     id="metadata6959"><rdf:RDF><cc:Work
         rdf:about=""><dc:format>image/svg+xml</dc:format><dc:type
           rdf:resource="http://purl.org/dc/dcmitype/StillImage" /><dc:title></dc:title></cc:Work></rdf:RDF></metadata><defs
     id="defs6957" /><sodipodi:namedview
     pagecolor="#ffffff"
     bordercolor="#666666"
     borderopacity="1"
     objecttolerance="10"
     gridtolerance="10"
     guidetolerance="10"
     inkscape:pageopacity="0"
     inkscape:pageshadow="2"
     inkscape:window-width="1859"
     inkscape:window-height="1056"
     id="namedview6955"
     showgrid="false"
     inkscape:zoom="2.0672365"
     inkscape:cx="306.85478"
     inkscape:cy="240.00617"
     inkscape:window-x="0"
     inkscape:window-y="0"
     inkscape:window-maximized="0"
     inkscape:current-layer="g6961" /><g
     id="g6961"
     inkscape:groupmode="layer"
     inkscape:label="loci_relatedness_dendrogram_neg_cb"
     transform="matrix(1.25,0,0,-1.25,0,438.75)"><g
       id="g6963"><path
         d="M 0,0 483,0 483,351 0,351 0,0 Z"
         style="fill:#ffffff;fill-opacity:1;fill-rule:nonzero;stroke:none"
         id="path6965"
         inkscape:connector-curvature="0" /><text
         transform="matrix(0,1,1,0,75.171875,179.50781)"
         style="font-variant:normal;font-weight:normal;font-size:7.19999981px;font-family:Helvetica;-inkscape-font-specification:Helvetica;writing-mode:lr-tb;fill:#000000;fill-opacity:1;fill-rule:nonzero;stroke:none"
         id="text6967"><tspan
           x="0 2.3975999 6.4008002"
           y="0"
           sodipodi:role="line"
           id="tspan6969">-25</tspan><tspan
           x="6.4023409"
           y="7.2929664"
           id="tspan6971">1</tspan></text>
<path
         d="m 73.621,195.918 0,17.352 7.293,0 0,-17.352"
         style="fill:none;stroke:#000000;stroke-width:0.75;stroke-linecap:round;stroke-linejoin:round;stroke-miterlimit:10;stroke-dasharray:none;stroke-opacity:1"
         id="path6973"
         inkscape:connector-curvature="0" /><text
         transform="matrix(0,1,1,0,89.757812,202.87109)"
         style="font-variant:normal;font-weight:normal;font-size:7.19999981px;font-family:Helvetica;-inkscape-font-specification:Helvetica;writing-mode:lr-tb;fill:#000000;fill-opacity:1;fill-rule:nonzero;stroke:none"
         id="text6975"><tspan
           x="0 2.3975999 6.4008002"
           y="0"
           sodipodi:role="line"
           id="tspan6977">-32</tspan><tspan
           x="0 2.3975999 6.4008002"
           y="7.2890639"
           sodipodi:role="line"
           id="tspan6979">-27</tspan></text>
<path
         d="m 88.203,219.281 0,17.352 7.293,0 0,-17.352"
         style="fill:none;stroke:#000000;stroke-width:0.75;stroke-linecap:round;stroke-linejoin:round;stroke-miterlimit:10;stroke-dasharray:none;stroke-opacity:1"
         id="path6981"
         inkscape:connector-curvature="0" /><path
         d="m 77.27,213.27 0,37.453 14.582,0 0,-14.09"
         style="fill:none;stroke:#000000;stroke-width:0.75;stroke-linecap:round;stroke-linejoin:round;stroke-miterlimit:10;stroke-dasharray:none;stroke-opacity:1"
         id="path6983"
         inkscape:connector-curvature="0" /><text
         transform="matrix(0,1,1,0,104.33984,184.82813)"
         style="font-variant:normal;font-weight:normal;font-size:7.19999981px;font-family:Helvetica;-inkscape-font-specification:Helvetica;writing-mode:lr-tb;fill:#000000;fill-opacity:1;fill-rule:nonzero;stroke:none"
         id="text6985"><tspan
           x="0 2.3975999 6.4008002"
           y="0"
           sodipodi:role="line"
           id="tspan6987">-14</tspan><tspan
           x="6.4023409"
           y="7.2890639"
           id="tspan6989">6</tspan></text>
<path
         d="m 102.785,201.238 0,17.348 7.293,0 0,-17.348"
         style="fill:none;stroke:#000000;stroke-width:0.75;stroke-linecap:round;stroke-linejoin:round;stroke-miterlimit:10;stroke-dasharray:none;stroke-opacity:1"
         id="path6991"
         inkscape:connector-curvature="0" /><text
         transform="matrix(0,1,1,0,118.92188,210.52344)"
         style="font-variant:normal;font-weight:normal;font-size:7.19999981px;font-family:Helvetica;-inkscape-font-specification:Helvetica;writing-mode:lr-tb;fill:#000000;fill-opacity:1;fill-rule:nonzero;stroke:none"
         id="text6993"><tspan
           x="0 2.3975999"
           y="0"
           sodipodi:role="line"
           id="tspan6995">-9</tspan><tspan
           x="2.3984351"
           y="7.2890639"
           id="tspan6997">3</tspan></text>
<path
         d="m 117.367,222.93 0,17.347 7.293,0 0,-17.347"
         style="fill:none;stroke:#000000;stroke-width:0.75;stroke-linecap:round;stroke-linejoin:round;stroke-miterlimit:10;stroke-dasharray:none;stroke-opacity:1"
         id="path6999"
         inkscape:connector-curvature="0" /><path
         d="m 106.434,218.586 0,46.062 14.582,0 0,-24.371"
         style="fill:none;stroke:#000000;stroke-width:0.75;stroke-linecap:round;stroke-linejoin:round;stroke-miterlimit:10;stroke-dasharray:none;stroke-opacity:1"
         id="path7001"
         inkscape:connector-curvature="0" /><path
         d="m 84.559,250.723 0,22.113 29.164,0 0,-8.188"
         style="fill:none;stroke:#000000;stroke-width:0.75;stroke-linecap:round;stroke-linejoin:round;stroke-miterlimit:10;stroke-dasharray:none;stroke-opacity:1"
         id="path7003"
         inkscape:connector-curvature="0" /><text
         transform="matrix(0,1,1,0,133.50391,200.55078)"
         style="font-variant:normal;font-weight:normal;font-size:7.19999981px;font-family:Helvetica;-inkscape-font-specification:Helvetica;writing-mode:lr-tb;fill:#000000;fill-opacity:1;fill-rule:nonzero;stroke:none"
         id="text7005"><tspan
           x="0 2.3975999"
           y="0"
           sodipodi:role="line"
           id="tspan7007">-8</tspan><tspan
           x="2.3984351"
           y="7.2890639"
           id="tspan7009">4</tspan></text>
<path
         d="m 131.949,212.957 0,17.352 7.293,0 0,-17.352"
         style="fill:none;stroke:#000000;stroke-width:0.75;stroke-linecap:round;stroke-linejoin:round;stroke-miterlimit:10;stroke-dasharray:none;stroke-opacity:1"
         id="path7011"
         inkscape:connector-curvature="0" /><text
         transform="matrix(0,1,1,0,148.08594,224.56641)"
         style="font-variant:normal;font-weight:normal;font-size:7.19999981px;font-family:Helvetica;-inkscape-font-specification:Helvetica;writing-mode:lr-tb;fill:#000000;fill-opacity:1;fill-rule:nonzero;stroke:none"
         id="text7013"><tspan
           x="0"
           y="0"
           id="tspan7015">5</tspan><tspan
           x="-32.816406 -30.418804 -26.415606"
           y="7.2890639"
           sodipodi:role="line"
           id="tspan7017">-33</tspan><tspan
           x="-32.816406 -30.418804 -26.415606"
           y="14.58203"
           sodipodi:role="line"
           id="tspan7019">-11</tspan></text>
<path
         d="m 153.824,208.16 0,17.348 7.293,0 0,-17.348"
         style="fill:none;stroke:#000000;stroke-width:0.75;stroke-linecap:round;stroke-linejoin:round;stroke-miterlimit:10;stroke-dasharray:none;stroke-opacity:1"
         id="path7021"
         inkscape:connector-curvature="0" /><path
         d="m 146.535,234.574 0,17.348 10.934,0 0,-26.414"
         style="fill:none;stroke:#000000;stroke-width:0.75;stroke-linecap:round;stroke-linejoin:round;stroke-miterlimit:10;stroke-dasharray:none;stroke-opacity:1"
         id="path7023"
         inkscape:connector-curvature="0" /><path
         d="m 135.598,230.309 0,36.722 16.402,0 0,-15.109"
         style="fill:none;stroke:#000000;stroke-width:0.75;stroke-linecap:round;stroke-linejoin:round;stroke-miterlimit:10;stroke-dasharray:none;stroke-opacity:1"
         id="path7025"
         inkscape:connector-curvature="0" /><text
         transform="matrix(0,1,1,0,169.95703,183.69922)"
         style="font-variant:normal;font-weight:normal;font-size:7.19999981px;font-family:Helvetica;-inkscape-font-specification:Helvetica;writing-mode:lr-tb;fill:#000000;fill-opacity:1;fill-rule:nonzero;stroke:none"
         id="text7027"><tspan
           x="0 2.3975999 6.4008002"
           y="0"
           sodipodi:role="line"
           id="tspan7029">-37</tspan><tspan
           x="0 2.3975999 6.4008002"
           y="7.2929664"
           sodipodi:role="line"
           id="tspan7031">-34</tspan></text>
<path
         d="m 168.406,200.109 0,17.352 7.293,0 0,-17.352"
         style="fill:none;stroke:#000000;stroke-width:0.75;stroke-linecap:round;stroke-linejoin:round;stroke-miterlimit:10;stroke-dasharray:none;stroke-opacity:1"
         id="path7033"
         inkscape:connector-curvature="0" /><text
         transform="matrix(0,1,1,0,184.53906,207.94531)"
         style="font-variant:normal;font-weight:normal;font-size:7.19999981px;font-family:Helvetica;-inkscape-font-specification:Helvetica;writing-mode:lr-tb;fill:#000000;fill-opacity:1;fill-rule:nonzero;stroke:none"
         id="text7035"><tspan
           x="0 2.3975999"
           y="0"
           sodipodi:role="line"
           id="tspan7037">-7</tspan><tspan
           x="0 2.3975999"
           y="7.2929664"
           sodipodi:role="line"
           id="tspan7039">-6</tspan></text>
<path
         d="m 182.988,220.352 0,17.351 7.293,0 0,-17.351"
         style="fill:none;stroke:#000000;stroke-width:0.75;stroke-linecap:round;stroke-linejoin:round;stroke-miterlimit:10;stroke-dasharray:none;stroke-opacity:1"
         id="path7041"
         inkscape:connector-curvature="0" /><path
         d="m 172.051,217.461 0,32.75 14.582,0 0,-12.508"
         style="fill:none;stroke:#000000;stroke-width:0.75;stroke-linecap:round;stroke-linejoin:round;stroke-miterlimit:10;stroke-dasharray:none;stroke-opacity:1"
         id="path7043"
         inkscape:connector-curvature="0" /><text
         transform="matrix(0,1,1,0,199.12109,201.80859)"
         style="font-variant:normal;font-weight:normal;font-size:7.19999981px;font-family:Helvetica;-inkscape-font-specification:Helvetica;writing-mode:lr-tb;fill:#000000;fill-opacity:1;fill-rule:nonzero;stroke:none"
         id="text7045"><tspan
           x="0 2.3975999 6.4008002"
           y="0"
           sodipodi:role="line"
           id="tspan7047">-39</tspan><tspan
           x="-12.406248 -10.008648 -6.0054479"
           y="7.2929664"
           sodipodi:role="line"
           id="tspan7049">-24</tspan><tspan
           x="-12.406248 -10.008648 -6.0054479"
           y="14.58203"
           sodipodi:role="line"
           id="tspan7051">-17</tspan></text>
<path
         d="m 204.863,205.812 0,17.352 7.289,0 0,-17.352"
         style="fill:none;stroke:#000000;stroke-width:0.75;stroke-linecap:round;stroke-linejoin:round;stroke-miterlimit:10;stroke-dasharray:none;stroke-opacity:1"
         id="path7053"
         inkscape:connector-curvature="0" /><path
         d="m 197.57,218.219 0,17.351 10.938,0 0,-12.406"
         style="fill:none;stroke:#000000;stroke-width:0.75;stroke-linecap:round;stroke-linejoin:round;stroke-miterlimit:10;stroke-dasharray:none;stroke-opacity:1"
         id="path7055"
         inkscape:connector-curvature="0" /><text
         transform="matrix(0,1,1,0,220.99609,227.72266)"
         style="font-variant:normal;font-weight:normal;font-size:7.19999981px;font-family:Helvetica;-inkscape-font-specification:Helvetica;writing-mode:lr-tb;fill:#000000;fill-opacity:1;fill-rule:nonzero;stroke:none"
         id="text7057"><tspan
           x="0"
           y="0"
           id="tspan7059">9</tspan><tspan
           x="-58.960938 -56.563335 -52.560139"
           y="7.2929664"
           sodipodi:role="line"
           id="tspan7061">-16</tspan><tspan
           x="-54.957031 -52.559433"
           y="14.58203"
           sodipodi:role="line"
           id="tspan7063">-4</tspan></text>
<path
         d="m 226.734,185.172 0,17.351 7.293,0 0,-17.351"
         style="fill:none;stroke:#000000;stroke-width:0.75;stroke-linecap:round;stroke-linejoin:round;stroke-miterlimit:10;stroke-dasharray:none;stroke-opacity:1"
         id="path7065"
         inkscape:connector-curvature="0" /><text
         transform="matrix(0,1,1,0,242.87109,173.65234)"
         style="font-variant:normal;font-weight:normal;font-size:7.19999981px;font-family:Helvetica;-inkscape-font-specification:Helvetica;writing-mode:lr-tb;fill:#000000;fill-opacity:1;fill-rule:nonzero;stroke:none"
         id="text7067"><tspan
           x="0 2.3975999 6.4008002"
           y="0"
           sodipodi:role="line"
           id="tspan7069">-22</tspan><tspan
           x="0 2.3975999 6.4008002"
           y="7.2890639"
           sodipodi:role="line"
           id="tspan7071">-12</tspan></text>
<path
         d="m 241.316,190.062 0,17.348 7.293,0 0,-17.348"
         style="fill:none;stroke:#000000;stroke-width:0.75;stroke-linecap:round;stroke-linejoin:round;stroke-miterlimit:10;stroke-dasharray:none;stroke-opacity:1"
         id="path7073"
         inkscape:connector-curvature="0" /><path
         d="m 230.383,202.523 0,35.418 14.582,0 0,-30.531"
         style="fill:none;stroke:#000000;stroke-width:0.75;stroke-linecap:round;stroke-linejoin:round;stroke-miterlimit:10;stroke-dasharray:none;stroke-opacity:1"
         id="path7075"
         inkscape:connector-curvature="0" /><path
         d="m 219.445,237.73 0,17.352 18.227,0 0,-17.141"
         style="fill:none;stroke:#000000;stroke-width:0.75;stroke-linecap:round;stroke-linejoin:round;stroke-miterlimit:10;stroke-dasharray:none;stroke-opacity:1"
         id="path7077"
         inkscape:connector-curvature="0" /><path
         d="m 203.039,235.57 0,26.242 25.52,0 0,-6.73"
         style="fill:none;stroke:#000000;stroke-width:0.75;stroke-linecap:round;stroke-linejoin:round;stroke-miterlimit:10;stroke-dasharray:none;stroke-opacity:1"
         id="path7079"
         inkscape:connector-curvature="0" /><path
         d="m 179.344,250.211 0,19.781 36.457,0 0,-8.18"
         style="fill:none;stroke:#000000;stroke-width:0.75;stroke-linecap:round;stroke-linejoin:round;stroke-miterlimit:10;stroke-dasharray:none;stroke-opacity:1"
         id="path7081"
         inkscape:connector-curvature="0" /><path
         d="m 143.801,267.031 0,6.02 53.769,0 0,-3.059"
         style="fill:none;stroke:#000000;stroke-width:0.75;stroke-linecap:round;stroke-linejoin:round;stroke-miterlimit:10;stroke-dasharray:none;stroke-opacity:1"
         id="path7083"
         inkscape:connector-curvature="0" /><text
         transform="matrix(0,1,1,0,257.45312,219.19531)"
         style="font-variant:normal;font-weight:normal;font-size:7.19999981px;font-family:Helvetica;-inkscape-font-specification:Helvetica;writing-mode:lr-tb;fill:#000000;fill-opacity:1;fill-rule:nonzero;stroke:none"
         id="text7085"><tspan
           x="0"
           y="0"
           id="tspan7087">2</tspan><tspan
           x="-17.839844"
           y="7.2890639"
           id="tspan7089">7</tspan><tspan
           x="-17.839844"
           y="14.58203"
           id="tspan7091">8</tspan></text>
<path
         d="m 263.191,211.363 0,17.352 7.289,0 0,-17.352"
         style="fill:none;stroke:#000000;stroke-width:0.75;stroke-linecap:round;stroke-linejoin:round;stroke-miterlimit:10;stroke-dasharray:none;stroke-opacity:1"
         id="path7093"
         inkscape:connector-curvature="0" /><path
         d="m 255.898,229.203 0,17.352 10.938,0 0,-17.84"
         style="fill:none;stroke:#000000;stroke-width:0.75;stroke-linecap:round;stroke-linejoin:round;stroke-miterlimit:10;stroke-dasharray:none;stroke-opacity:1"
         id="path7095"
         inkscape:connector-curvature="0" /><text
         transform="matrix(0,1,1,0,279.32422,213.18359)"
         style="font-variant:normal;font-weight:normal;font-size:7.19999981px;font-family:Helvetica;-inkscape-font-specification:Helvetica;writing-mode:lr-tb;fill:#000000;fill-opacity:1;fill-rule:nonzero;stroke:none"
         id="text7097"><tspan
           x="0 2.3975999 6.4008002"
           y="0"
           sodipodi:role="line"
           id="tspan7099">-21</tspan><tspan
           x="-1.0156248 1.3819752 5.3851752"
           y="7.2929664"
           sodipodi:role="line"
           id="tspan7101">-23</tspan><tspan
           x="1.3828104 5.3860102"
           y="14.58203"
           sodipodi:role="line"
           id="tspan7103">10</tspan></text>
<path
         d="m 285.062,228.578 0,17.348 7.293,0 0,-17.348"
         style="fill:none;stroke:#000000;stroke-width:0.75;stroke-linecap:round;stroke-linejoin:round;stroke-miterlimit:10;stroke-dasharray:none;stroke-opacity:1"
         id="path7105"
         inkscape:connector-curvature="0" /><path
         d="m 277.773,229.594 0,17.347 10.938,0 0,-1.015"
         style="fill:none;stroke:#000000;stroke-width:0.75;stroke-linecap:round;stroke-linejoin:round;stroke-miterlimit:10;stroke-dasharray:none;stroke-opacity:1"
         id="path7107"
         inkscape:connector-curvature="0" /><path
         d="m 261.367,246.555 0,14.793 21.875,0 0,-14.407"
         style="fill:none;stroke:#000000;stroke-width:0.75;stroke-linecap:round;stroke-linejoin:round;stroke-miterlimit:10;stroke-dasharray:none;stroke-opacity:1"
         id="path7109"
         inkscape:connector-curvature="0" /><text
         transform="matrix(0,1,1,0,301.19922,203.64453)"
         style="font-variant:normal;font-weight:normal;font-size:7.19999981px;font-family:Helvetica;-inkscape-font-specification:Helvetica;writing-mode:lr-tb;fill:#000000;fill-opacity:1;fill-rule:nonzero;stroke:none"
         id="text7111"><tspan
           x="0 2.3975999 6.4008002"
           y="0"
           sodipodi:role="line"
           id="tspan7113">-31</tspan><tspan
           x="-6.8828111 -4.4852114 -0.4820112"
           y="7.2890639"
           sodipodi:role="line"
           id="tspan7115">-18</tspan><tspan
           x="-37.945309 -35.54771 -31.54451"
           y="14.58203"
           sodipodi:role="line"
           id="tspan7117">-38</tspan><tspan
           x="-72.699211 -70.301613"
           y="21.871094"
           sodipodi:role="line"
           id="tspan7119">-1</tspan><tspan
           x="-123.03124 -120.63364"
           y="29.164061"
           sodipodi:role="line"
           id="tspan7121">-2</tspan><tspan
           x="-120.63281"
           y="36.453125"
           id="tspan7123">0</tspan></text>
<path
         d="m 328.812,93.02 0,17.351 7.29,0 0,-17.351"
         style="fill:none;stroke:#000000;stroke-width:0.75;stroke-linecap:round;stroke-linejoin:round;stroke-miterlimit:10;stroke-dasharray:none;stroke-opacity:1"
         id="path7125"
         inkscape:connector-curvature="0" /><path
         d="m 321.52,143.352 0,17.347 10.937,0 0,-50.328"
         style="fill:none;stroke:#000000;stroke-width:0.75;stroke-linecap:round;stroke-linejoin:round;stroke-miterlimit:10;stroke-dasharray:none;stroke-opacity:1"
         id="path7127"
         inkscape:connector-curvature="0" /><path
         d="m 314.23,182.109 0,17.352 12.758,0 0,-38.762"
         style="fill:none;stroke:#000000;stroke-width:0.75;stroke-linecap:round;stroke-linejoin:round;stroke-miterlimit:10;stroke-dasharray:none;stroke-opacity:1"
         id="path7129"
         inkscape:connector-curvature="0" /><path
         d="m 306.938,213.172 0,17.351 13.671,0 0,-31.062"
         style="fill:none;stroke:#000000;stroke-width:0.75;stroke-linecap:round;stroke-linejoin:round;stroke-miterlimit:10;stroke-dasharray:none;stroke-opacity:1"
         id="path7131"
         inkscape:connector-curvature="0" /><path
         d="m 299.648,220.055 0,17.347 14.125,0 0,-6.879"
         style="fill:none;stroke:#000000;stroke-width:0.75;stroke-linecap:round;stroke-linejoin:round;stroke-miterlimit:10;stroke-dasharray:none;stroke-opacity:1"
         id="path7133"
         inkscape:connector-curvature="0" /><text
         transform="matrix(0,1,1,0,344.94531,225.10937)"
         style="font-variant:normal;font-weight:normal;font-size:7.19999981px;font-family:Helvetica;-inkscape-font-specification:Helvetica;writing-mode:lr-tb;fill:#000000;fill-opacity:1;fill-rule:nonzero;stroke:none"
         id="text7135"><tspan
           x="0 2.3975999 6.4008002"
           y="0"
           sodipodi:role="line"
           id="tspan7137">-19</tspan><tspan
           x="-23.917969 -21.520369 -17.517168"
           y="7.2890639"
           sodipodi:role="line"
           id="tspan7139">-29</tspan><tspan
           x="-23.917969 -21.520369 -17.517168"
           y="14.58203"
           sodipodi:role="line"
           id="tspan7141">-26</tspan></text>
<path
         d="m 350.684,217.602 0,17.347 7.293,0 0,-17.347"
         style="fill:none;stroke:#000000;stroke-width:0.75;stroke-linecap:round;stroke-linejoin:round;stroke-miterlimit:10;stroke-dasharray:none;stroke-opacity:1"
         id="path7143"
         inkscape:connector-curvature="0" /><path
         d="m 343.395,241.52 0,17.347 10.933,0 0,-23.918"
         style="fill:none;stroke:#000000;stroke-width:0.75;stroke-linecap:round;stroke-linejoin:round;stroke-miterlimit:10;stroke-dasharray:none;stroke-opacity:1"
         id="path7145"
         inkscape:connector-curvature="0" /><path
         d="m 306.711,237.402 0,24.828 42.152,0 0,-3.363"
         style="fill:none;stroke:#000000;stroke-width:0.75;stroke-linecap:round;stroke-linejoin:round;stroke-miterlimit:10;stroke-dasharray:none;stroke-opacity:1"
         id="path7147"
         inkscape:connector-curvature="0" /><path
         d="m 272.305,261.348 0,10.683 55.48,0 0,-9.801"
         style="fill:none;stroke:#000000;stroke-width:0.75;stroke-linecap:round;stroke-linejoin:round;stroke-miterlimit:10;stroke-dasharray:none;stroke-opacity:1"
         id="path7149"
         inkscape:connector-curvature="0" /><text
         transform="matrix(0,1,1,0,366.81641,178.69922)"
         style="font-variant:normal;font-weight:normal;font-size:7.19999981px;font-family:Helvetica;-inkscape-font-specification:Helvetica;writing-mode:lr-tb;fill:#000000;fill-opacity:1;fill-rule:nonzero;stroke:none"
         id="text7151"><tspan
           x="0 2.3975999 6.4008002"
           y="0"
           sodipodi:role="line"
           id="tspan7153">-30</tspan><tspan
           x="0 2.3975999 6.4008002"
           y="7.2929664"
           sodipodi:role="line"
           id="tspan7155">-28</tspan></text>
<path
         d="m 365.266,195.109 0,17.348 7.293,0 0,-17.348"
         style="fill:none;stroke:#000000;stroke-width:0.75;stroke-linecap:round;stroke-linejoin:round;stroke-miterlimit:10;stroke-dasharray:none;stroke-opacity:1"
         id="path7157"
         inkscape:connector-curvature="0" /><text
         transform="matrix(0,1,1,0,381.40234,199.98828)"
         style="font-variant:normal;font-weight:normal;font-size:7.19999981px;font-family:Helvetica;-inkscape-font-specification:Helvetica;writing-mode:lr-tb;fill:#000000;fill-opacity:1;fill-rule:nonzero;stroke:none"
         id="text7159"><tspan
           x="0 2.3975999 6.4008002"
           y="0"
           sodipodi:role="line"
           id="tspan7161">-40</tspan><tspan
           x="4.0039058 6.4015055"
           y="7.2890639"
           sodipodi:role="line"
           id="tspan7163">-5</tspan></text>
<path
         d="m 379.848,216.398 0,17.352 7.293,0 0,-17.352"
         style="fill:none;stroke:#000000;stroke-width:0.75;stroke-linecap:round;stroke-linejoin:round;stroke-miterlimit:10;stroke-dasharray:none;stroke-opacity:1"
         id="path7165"
         inkscape:connector-curvature="0" /><text
         transform="matrix(0,1,1,0,395.98437,187.78125)"
         style="font-variant:normal;font-weight:normal;font-size:7.19999981px;font-family:Helvetica;-inkscape-font-specification:Helvetica;writing-mode:lr-tb;fill:#000000;fill-opacity:1;fill-rule:nonzero;stroke:none"
         id="text7167"><tspan
           x="0 2.3975999 6.4008002"
           y="0"
           sodipodi:role="line"
           id="tspan7169">-13</tspan><tspan
           x="-24.1875 -21.7899 -17.786699"
           y="7.2890639"
           sodipodi:role="line"
           id="tspan7171">-15</tspan><tspan
           x="-20.183594 -17.785994"
           y="14.58203"
           sodipodi:role="line"
           id="tspan7173">-3</tspan></text>
<path
         d="m 401.723,180.004 0,17.351 7.289,0 0,-17.351"
         style="fill:none;stroke:#000000;stroke-width:0.75;stroke-linecap:round;stroke-linejoin:round;stroke-miterlimit:10;stroke-dasharray:none;stroke-opacity:1"
         id="path7175"
         inkscape:connector-curvature="0" /><path
         d="m 394.43,204.191 0,17.348 10.937,0 0,-24.184"
         style="fill:none;stroke:#000000;stroke-width:0.75;stroke-linecap:round;stroke-linejoin:round;stroke-miterlimit:10;stroke-dasharray:none;stroke-opacity:1"
         id="path7177"
         inkscape:connector-curvature="0" /><text
         transform="matrix(0,1,1,0,417.85547,212.63281)"
         style="font-variant:normal;font-weight:normal;font-size:7.19999981px;font-family:Helvetica;-inkscape-font-specification:Helvetica;writing-mode:lr-tb;fill:#000000;fill-opacity:1;fill-rule:nonzero;stroke:none"
         id="text7179"><tspan
           x="0 2.3975999 6.4008002"
           y="0"
           sodipodi:role="line"
           id="tspan7181">-36</tspan><tspan
           x="-13.277348 -10.879747 -6.8765473"
           y="7.2929664"
           sodipodi:role="line"
           id="tspan7183">-10</tspan><tspan
           x="-44.085938 -41.688339 -37.685139"
           y="14.58203"
           sodipodi:role="line"
           id="tspan7185">-35</tspan><tspan
           x="-44.085938 -41.688339 -37.685139"
           y="21.874996"
           sodipodi:role="line"
           id="tspan7187">-20</tspan></text>
<path
         d="m 430.887,184.957 0,17.348 7.293,0 0,-17.348"
         style="fill:none;stroke:#000000;stroke-width:0.75;stroke-linecap:round;stroke-linejoin:round;stroke-miterlimit:10;stroke-dasharray:none;stroke-opacity:1"
         id="path7189"
         inkscape:connector-curvature="0" /><path
         d="m 423.594,215.766 0,17.351 10.937,0 0,-30.812"
         style="fill:none;stroke:#000000;stroke-width:0.75;stroke-linecap:round;stroke-linejoin:round;stroke-miterlimit:10;stroke-dasharray:none;stroke-opacity:1"
         id="path7191"
         inkscape:connector-curvature="0" /><path
         d="m 416.305,229.043 0,17.348 12.757,0 0,-13.274"
         style="fill:none;stroke:#000000;stroke-width:0.75;stroke-linecap:round;stroke-linejoin:round;stroke-miterlimit:10;stroke-dasharray:none;stroke-opacity:1"
         id="path7193"
         inkscape:connector-curvature="0" /><path
         d="m 399.898,221.539 0,25.977 22.786,0 0,-1.125"
         style="fill:none;stroke:#000000;stroke-width:0.75;stroke-linecap:round;stroke-linejoin:round;stroke-miterlimit:10;stroke-dasharray:none;stroke-opacity:1"
         id="path7195"
         inkscape:connector-curvature="0" /><path
         d="m 383.496,233.75 0,29.605 27.797,0 0,-15.839"
         style="fill:none;stroke:#000000;stroke-width:0.75;stroke-linecap:round;stroke-linejoin:round;stroke-miterlimit:10;stroke-dasharray:none;stroke-opacity:1"
         id="path7197"
         inkscape:connector-curvature="0" /><path
         d="m 368.914,212.457 0,63.223 28.481,0 0,-12.325"
         style="fill:none;stroke:#000000;stroke-width:0.75;stroke-linecap:round;stroke-linejoin:round;stroke-miterlimit:10;stroke-dasharray:none;stroke-opacity:1"
         id="path7199"
         inkscape:connector-curvature="0" /><path
         d="m 300.047,272.031 0,7.219 83.105,0 0,-3.57"
         style="fill:none;stroke:#000000;stroke-width:0.75;stroke-linecap:round;stroke-linejoin:round;stroke-miterlimit:10;stroke-dasharray:none;stroke-opacity:1"
         id="path7201"
         inkscape:connector-curvature="0" /><path
         d="m 170.684,273.051 0,6.511 170.914,0 0,-0.312"
         style="fill:none;stroke:#000000;stroke-width:0.75;stroke-linecap:round;stroke-linejoin:round;stroke-miterlimit:10;stroke-dasharray:none;stroke-opacity:1"
         id="path7203"
         inkscape:connector-curvature="0" /><path
         d="m 99.141,272.836 0,11.031 157,0 0,-4.305"
         style="fill:none;stroke:#000000;stroke-width:0.75;stroke-linecap:round;stroke-linejoin:round;stroke-miterlimit:10;stroke-dasharray:none;stroke-opacity:1"
         id="path7205"
         inkscape:connector-curvature="0" /><path
         d="m 59.039,102.129 0,189.832"
         style="fill:none;stroke:#000000;stroke-width:0.75;stroke-linecap:round;stroke-linejoin:round;stroke-miterlimit:10;stroke-dasharray:none;stroke-opacity:1"
         id="path7207"
         inkscape:connector-curvature="0" /><path
         d="m 59.039,102.129 -7.199,0"
         style="fill:none;stroke:#000000;stroke-width:0.75;stroke-linecap:round;stroke-linejoin:round;stroke-miterlimit:10;stroke-dasharray:none;stroke-opacity:1"
         id="path7209"
         inkscape:connector-curvature="0" /><path
         d="m 59.039,127.621 -7.199,0"
         style="fill:none;stroke:#000000;stroke-width:0.75;stroke-linecap:round;stroke-linejoin:round;stroke-miterlimit:10;stroke-dasharray:none;stroke-opacity:1"
         id="path7211"
         inkscape:connector-curvature="0" /><path
         d="m 59.039,153.117 -7.199,0"
         style="fill:none;stroke:#000000;stroke-width:0.75;stroke-linecap:round;stroke-linejoin:round;stroke-miterlimit:10;stroke-dasharray:none;stroke-opacity:1"
         id="path7213"
         inkscape:connector-curvature="0" /><path
         d="m 59.039,178.609 -7.199,0"
         style="fill:none;stroke:#000000;stroke-width:0.75;stroke-linecap:round;stroke-linejoin:round;stroke-miterlimit:10;stroke-dasharray:none;stroke-opacity:1"
         id="path7215"
         inkscape:connector-curvature="0" /><path
         d="m 59.039,204.105 -7.199,0"
         style="fill:none;stroke:#000000;stroke-width:0.75;stroke-linecap:round;stroke-linejoin:round;stroke-miterlimit:10;stroke-dasharray:none;stroke-opacity:1"
         id="path7217"
         inkscape:connector-curvature="0" /><path
         d="m 59.039,229.602 -7.199,0"
         style="fill:none;stroke:#000000;stroke-width:0.75;stroke-linecap:round;stroke-linejoin:round;stroke-miterlimit:10;stroke-dasharray:none;stroke-opacity:1"
         id="path7219"
         inkscape:connector-curvature="0" /><path
         d="m 59.039,255.094 -7.199,0"
         style="fill:none;stroke:#000000;stroke-width:0.75;stroke-linecap:round;stroke-linejoin:round;stroke-miterlimit:10;stroke-dasharray:none;stroke-opacity:1"
         id="path7221"
         inkscape:connector-curvature="0" /><path
         d="m 59.039,280.59 -7.199,0"
         style="fill:none;stroke:#000000;stroke-width:0.75;stroke-linecap:round;stroke-linejoin:round;stroke-miterlimit:10;stroke-dasharray:none;stroke-opacity:1"
         id="path7223"
         inkscape:connector-curvature="0" /><text
         transform="matrix(0,1,1,0,41.761719,90.449219)"
         style="font-variant:normal;font-weight:normal;font-size:12px;font-family:Helvetica;-inkscape-font-specification:Helvetica;writing-mode:lr-tb;fill:#000000;fill-opacity:1;fill-rule:nonzero;stroke:none"
         id="text7225"><tspan
           x="0 6.6719999 9.9960003 16.667999 50.976002 57.647999 60.972 67.643997 101.94 108.612 111.936 118.608 152.916 159.588 162.912 169.584"
           y="0"
           sodipodi:role="line"
           id="tspan7227">0.951.051.151.25</tspan></text>
<text
         transform="matrix(1,0,0,-1,160.23437,324.93359)"
         style="font-variant:normal;font-weight:bold;font-size:14.39999962px;font-family:Helvetica;-inkscape-font-specification:Helvetica-Bold;writing-mode:lr-tb;fill:#000000;fill-opacity:1;fill-rule:nonzero;stroke:none"
         id="text7229"><tspan
           x="0 8.7840004 17.568001 25.5744 29.5632 33.551998 38.347198 43.948799 51.9552 56.750401 60.739201 69.523201 79.113602 88.7472 93.542397 97.531197 107.928 115.9344 119.9232 127.9296 132.72479 140.7312 149.5152 158.29919 166.3056 174.312 182.31841 187.1568"
           y="0"
           sodipodi:role="line"
           id="tspan7231">Loci (re: TSS) Relatedness: </tspan><tspan
           x="-43.663551 -33.26675 -25.260351 -16.476351 -8.4699507 -3.6747503 0.3140496 8.3204498 16.326849 20.315649 28.32205 32.310848 42.750851 51.534851 57.136448 62.738049 70.744446 74.733246 82.739647 87.534851 95.541252 104.32525 108.31405 119.50285 127.50925 136.33646 144.34285 152.34924 156.33804 160.32684 170.72365 178.73006 184.33165 192.33804 201.12206 209.12845 213.11725 217.10605 225.89005"
           y="17.281254"
           sodipodi:role="line"
           id="tspan7233">Negatively Correlated Genes, Cerebellum</tspan></text>
<text
         transform="matrix(1,0,0,-1,186.69531,4.320312)"
         style="font-variant:normal;font-weight:normal;font-size:12px;font-family:Helvetica;-inkscape-font-specification:Helvetica;writing-mode:lr-tb;fill:#000000;fill-opacity:1;fill-rule:nonzero;stroke:none"
         id="text7235"><tspan
           x="0 9.9960003 12.66 19.332001 25.332001 32.004002 40.667999 46.667999 52.667999 55.332001 58.655998 65.328003 71.328003 78 84.671997 91.344002 98.015999 104.688 108.012 111.336 118.332 121.656 128.328 131.65199"
           y="0"
           sodipodi:role="line"
           id="tspan7237">Minkowski exponent = 2.5</tspan></text>
<text
         transform="matrix(0,1,1,0,12.960938,150.69922)"
         style="font-variant:normal;font-weight:normal;font-size:12px;font-family:Helvetica;-inkscape-font-specification:Helvetica;writing-mode:lr-tb;fill:#000000;fill-opacity:1;fill-rule:nonzero;stroke:none"
         id="text7239"><tspan
           x="0 8.6639996 11.328 17.327999 23.327999 25.992001 35.987999 38.652 41.316002 47.987999 51.984001 54.647999 57.972"
           y="0"
           sodipodi:role="line"
           id="tspan7241">Dissimilarity</tspan></text>
</g><rect
       style="opacity:0.32000002;fill:#b5b4ff;fill-opacity:1;stroke:none;stroke-width:1.29999995;stroke-miterlimit:4;stroke-dasharray:none;stroke-dashoffset:0;stroke-opacity:1"
       id="rect7262"
       width="66.175308"
       height="187.30319"
       x="294.49945"
       y="-264.7012"
       transform="scale(1,-1)" /></g></svg>