<svg class="viz_svg" id="svg_container-id-1" width="523" height="610" title="test2" version="1.1" xmlns="http://www.w3.org/2000/svg"><rect class="super_background" style="width: 523px; height: 610px; fill: white;"></rect><g class="clust_container" transform="translate(129,120.5)"><g class="clust_group"><rect class="background grey_background" width="305.5" height="479.5" style="fill: rgb(238, 238, 238); opacity: 0.5;"></rect><g class="row" transform="translate(0,319.6666564941406)"><rect class="tile row_tile" width="29.994545454545456" height="159.2778787878788" transform="translate(91.6500015258789,0)" style="fill: rgb(255, 102, 102); fill-opacity: 1;"></rect></g><g class="row" transform="translate(0,0)"><rect class="tile row_tile" width="29.994545454545456" height="159.2778787878788" transform="translate(152.75,0)" style="fill: rgb(255, 102, 102); fill-opacity: 1;"></rect><rect class="tile row_tile" width="29.994545454545456" height="159.2778787878788" transform="translate(122.19999694824219,0)" style="fill: rgb(255, 102, 102); fill-opacity: 1;"></rect><rect class="tile row_tile" width="29.994545454545456" height="159.2778787878788" transform="translate(183.3000030517578,0)" style="fill: rgb(255, 102, 102); fill-opacity: 1;"></rect><rect class="tile row_tile" width="29.994545454545456" height="159.2778787878788" transform="translate(213.85000610351562,0)" style="fill: rgb(255, 102, 102); fill-opacity: 1;"></rect><rect class="tile row_tile" width="29.994545454545456" height="159.2778787878788" transform="translate(244.39999389648438,0)" style="fill: rgb(255, 102, 102); fill-opacity: 1;"></rect><rect class="tile row_tile" width="29.994545454545456" height="159.2778787878788" transform="translate(274.95001220703125,0)" style="fill: rgb(255, 102, 102); fill-opacity: 1;"></rect></g><g class="row" transform="translate(0,159.8333282470703)"><rect class="tile row_tile" width="29.994545454545456" height="159.2778787878788" transform="translate(30.549999237060547,0)" style="fill: rgb(255, 102, 102); fill-opacity: 1;"></rect><rect class="tile row_tile" width="29.994545454545456" height="159.2778787878788" transform="translate(0,0)" style="fill: rgb(255, 102, 102); fill-opacity: 1;"></rect><rect class="tile row_tile" width="29.994545454545456" height="159.2778787878788" transform="translate(61.099998474121094,0)" style="fill: rgb(255, 102, 102); fill-opacity: 1;"></rect></g><g class="horz_lines" transform="translate(0,159.83333333333334) rotate(0)"><line x1="0" x2="305.5" style="stroke-width: 0.555455px; stroke: white;"></line></g><g class="horz_lines" transform="translate(0,0) rotate(0)"><line x1="0" x2="305.5" style="stroke-width: 0.555455px; stroke: white;"></line></g><g class="horz_lines" transform="translate(0,319.6666666666667) rotate(0)"><line x1="0" x2="305.5" style="stroke-width: 0.555455px; stroke: white;"></line></g><g class="vert_lines" transform="translate(0) rotate(-90)"><line x1="0" x2="-479.5" style="stroke-width: 0.106168px; stroke: white;"></line></g><g class="vert_lines" transform="translate(30.55) rotate(-90)"><line x1="0" x2="-479.5" style="stroke-width: 0.106168px; stroke: white;"></line></g><g class="vert_lines" transform="translate(61.1) rotate(-90)"><line x1="0" x2="-479.5" style="stroke-width: 0.106168px; stroke: white;"></line></g><g class="vert_lines" transform="translate(91.65) rotate(-90)"><line x1="0" x2="-479.5" style="stroke-width: 0.106168px; stroke: white;"></line></g><g class="vert_lines" transform="translate(122.2) rotate(-90)"><line x1="0" x2="-479.5" style="stroke-width: 0.106168px; stroke: white;"></line></g><g class="vert_lines" transform="translate(152.75) rotate(-90)"><line x1="0" x2="-479.5" style="stroke-width: 0.106168px; stroke: white;"></line></g><g class="vert_lines" transform="translate(183.3) rotate(-90)"><line x1="0" x2="-479.5" style="stroke-width: 0.106168px; stroke: white;"></line></g><g class="vert_lines" transform="translate(213.85) rotate(-90)"><line x1="0" x2="-479.5" style="stroke-width: 0.106168px; stroke: white;"></line></g><g class="vert_lines" transform="translate(244.4) rotate(-90)"><line x1="0" x2="-479.5" style="stroke-width: 0.106168px; stroke: white;"></line></g><g class="vert_lines" transform="translate(274.95) rotate(-90)"><line x1="0" x2="-479.5" style="stroke-width: 0.106168px; stroke: white;"></line></g></g></g><g class="row_container" transform="translate(27,120.5)"><rect class="row_white_background white_bars" fill="#FFFFFF" width="102" height="14385px"></rect><g class="row_label_container" transform="translate(85,0)"><g class="row_label_zoom_container"><g class="row_label_group" transform="translate(0,319.6666564941406)"><rect x="-68.125" y="0" width="68.125" height="159.83333333333334" style="opacity: 0; fill: yellow;"></rect><text y="86.6389393939394" text-anchor="end" pointer-events="none" style="font-size: 20px; opacity: 1;">CCNB1</text></g><g class="row_label_group" transform="translate(0,0)"><rect x="-68.890625" y="0" width="68.890625" height="159.83333333333334" style="opacity: 0; fill: yellow;"></rect><text y="86.6389393939394" text-anchor="end" pointer-events="none" style="font-size: 20px; opacity: 1;" class="">PSMC1</text></g><g class="row_label_group" transform="translate(0,159.8333282470703)"><rect x="-53.3125" y="0" width="53.3125" height="159.83333333333334" style="opacity: 0; fill: yellow;"></rect><text y="86.6389393939394" text-anchor="end" pointer-events="none" style="font-size: 20px; opacity: 1;">RARS</text></g></g></g><g class="row_cat_outer_container" transform="translate(85,0)"><g class="row_cat_container"><rect class="white_bars" fill="#FFFFFF" width="12px" height="479.5"></rect><g class="row_cat_group" transform="translate(0,319.6666564941406)"><path d="M 11,0 L 1,79.91666666666667, L 11,159.83333333333334 Z" fill="#eee"></path></g><g class="row_cat_group" transform=""><path d="M 11,0 L 1,79.91666666666667, L 11,159.83333333333334 Z" fill="#eee"></path></g><g class="row_cat_group" transform="translate(0,159.8333282470703)"><path d="M 11,0 L 1,79.91666666666667, L 11,159.83333333333334 Z" fill="#eee"></path></g></g></g></g><g class="col_container" transform="translate(129,27)"><rect fill="#FFFFFF" width="9165px" height="93.5" class="white_bars"></rect><g class="col_label_outer_container" transform="translate(0,88.5)"><g class="col_zoom_container"><g class="col_label_text" transform="translate(30.549999237060547,0),rotate(-90)"><g class="col_label_group" transform="translate(15.275,15.830454545454545) rotate(45)"><rect class="col_bars" width="66.375" height="20.163" opacity="0.6" style="fill: rgb(255, 102, 102);"></rect><text x="0" y="19.552" dx="0.5554545454545454" text-anchor="start" full_name="LARS" style="font-size: 20px; opacity: 1;">LARS</text><path d="M -0.5554545454545454,0 L -20.107454545454544,0, L -0.5554545454545454,19.552 Z" fill="#eee" style="stroke-width: 0; opacity: 1;"></path></g></g><g class="col_label_text" transform="translate(0,0),rotate(-90)"><g class="col_label_group" transform="translate(15.275,15.830454545454545) rotate(45)"><rect class="col_bars" width="66.16474362935169" height="20.163" opacity="0.6" style="fill: rgb(255, 102, 102);"></rect><text x="0" y="19.552" dx="0.5554545454545454" text-anchor="start" full_name="IARS" style="font-size: 20px; opacity: 1;">IARS</text><path d="M -0.5554545454545454,0 L -20.107454545454544,0, L -0.5554545454545454,19.552 Z" fill="#eee" style="stroke-width: 0; opacity: 1;"></path></g></g><g class="col_label_text" transform="translate(61.1) rotate(-90)"><g class="col_label_group" transform="translate(15.275,15.830454545454545) rotate(45)"><rect class="col_bars" width="61.74218884063436" height="20.163" opacity="0.6" style="fill: rgb(255, 102, 102);"></rect><text x="0" y="19.552" dx="0.5554545454545454" text-anchor="start" full_name="KARS" style="font-size: 20px; opacity: 1;">KARS</text><path d="M -0.5554545454545454,0 L -20.107454545454544,0, L -0.5554545454545454,19.552 Z" fill="#eee" style="stroke-width: 0; opacity: 1;"></path></g></g><g class="col_label_text" transform="translate(152.75,0),rotate(-90)"><g class="col_label_group" transform="translate(15.275,15.830454545454545) rotate(45)"><rect class="col_bars" width="60.13547927268147" height="20.163" opacity="0.6" style="fill: rgb(255, 102, 102);"></rect><text x="0" y="19.552" dx="0.5554545454545454" text-anchor="start" full_name="PSMD7" style="font-size: 20px; opacity: 1;">PSMD7</text><path d="M -0.5554545454545454,0 L -20.107454545454544,0, L -0.5554545454545454,19.552 Z" fill="#eee" style="stroke-width: 0; opacity: 1;"></path></g></g><g class="col_label_text" transform="translate(122.2) rotate(-90)"><g class="col_label_group" transform="translate(15.275,15.830454545454545) rotate(45)"><rect class="col_bars" width="56.39544740826828" height="20.163" opacity="0.6" style="fill: rgb(255, 102, 102);"></rect><text x="0" y="19.552" dx="0.5554545454545454" text-anchor="start" full_name="PSMD1" style="font-size: 20px; opacity: 1;">PSMD1</text><path d="M -0.5554545454545454,0 L -20.107454545454544,0, L -0.5554545454545454,19.552 Z" fill="#eee" style="stroke-width: 0; opacity: 1;"></path></g></g><g class="col_label_text" transform="translate(91.6500015258789,0),rotate(-90)"><g class="col_label_group" transform="translate(15.275,15.830454545454545) rotate(45)"><rect class="col_bars" width="55.53997530235082" height="20.163" opacity="0.6" style="fill: rgb(255, 102, 102);"></rect><text x="0" y="19.552" dx="0.5554545454545454" text-anchor="start" full_name="CCNA2" style="font-size: 20px; opacity: 1;">CCNA2</text><path d="M -0.5554545454545454,0 L -20.107454545454544,0, L -0.5554545454545454,19.552 Z" fill="#eee" style="stroke-width: 0; opacity: 1;"></path></g></g><g class="col_label_text" transform="translate(183.3) rotate(-90)"><g class="col_label_group" transform="translate(15.275,15.830454545454545) rotate(45)"><rect class="col_bars" width="55.1683135504744" height="20.163" opacity="0.6" style="fill: rgb(255, 102, 102);"></rect><text x="0" y="19.552" dx="0.5554545454545454" text-anchor="start" full_name="PSMD8" style="font-size: 20px; opacity: 1;">PSMD8</text><path d="M -0.5554545454545454,0 L -20.107454545454544,0, L -0.5554545454545454,19.552 Z" fill="#eee" style="stroke-width: 0; opacity: 1;"></path></g></g><g class="col_label_text" transform="translate(213.85) rotate(-90)"><g class="col_label_group" transform="translate(15.275,15.830454545454545) rotate(45)"><rect class="col_bars" width="52.803489592066406" height="20.163" opacity="0.6" style="fill: rgb(255, 102, 102);"></rect><text x="0" y="19.552" dx="0.5554545454545454" text-anchor="start" full_name="PSMD10" style="font-size: 20px; opacity: 1;">PSMD10</text><path d="M -0.5554545454545454,0 L -20.107454545454544,0, L -0.5554545454545454,19.552 Z" fill="#eee" style="stroke-width: 0; opacity: 1;"></path></g></g><g class="col_label_text" transform="translate(244.4) rotate(-90)"><g class="col_label_group" transform="translate(15.275,15.830454545454545) rotate(45)"><rect class="col_bars" width="49.365220412278425" height="20.163" opacity="0.6" style="fill: rgb(255, 102, 102);"></rect><text x="0" y="19.552" dx="0.5554545454545454" text-anchor="start" full_name="PSMC5" style="font-size: 20px; opacity: 1;">PSMC5</text><path d="M -0.5554545454545454,0 L -20.107454545454544,0, L -0.5554545454545454,19.552 Z" fill="#eee" style="stroke-width: 0; opacity: 1;"></path></g></g><g class="col_label_text" transform="translate(274.95) rotate(-90)"><g class="col_label_group" transform="translate(15.275,15.830454545454545) rotate(45)"><rect class="col_bars" width="48.67470218516616" height="20.163" opacity="0.6" style="fill: rgb(255, 102, 102);"></rect><text x="0" y="19.552" dx="0.5554545454545454" text-anchor="start" full_name="PSMC6" style="font-size: 20px; opacity: 1;">PSMC6</text><path d="M -0.5554545454545454,0 L -20.107454545454544,0, L -0.5554545454545454,19.552 Z" fill="#eee" style="stroke-width: 0; opacity: 1;"></path></g></g></g></g><path d="M 0,0 L 500,-500, L 500,0 Z" fill="#FFFFFF" class="right_slant_triangle" transform="translate(305.5,88.5)" style="stroke-width: 0;"></path><path d="M 0,0 L 500,-500, L 0,-500 Z" fill="#FFFFFF" class="left_slant_triangle" transform="translate(-1,88.5)" style="stroke-width: 0;"></path></g><rect fill="#FFFFFF" width="129" height="120.5" class="top_left_white"></rect><rect fill="#FFFFFF" width="300px" height="610px" transform="translate(439.5,115.5)" class="right_spillover"></rect><rect fill="#FFFFFF" width="5" height="5" transform="translate(434.5,115.5)" class="white_bars dendro_row_spillover"></rect><rect fill="#FFFFFF" width="129" height="479.5" transform="translate(0,600)" class="white_bars dendro_col_spillover"></rect><rect fill="#FFFFFF" width="305.5" height="17" transform="translate(434.5,600)" class="white_bars dendro_corner_spillover"></rect><rect fill="#FFFFFF" height="25px" width="3000px" class="super_col_bkg white_bars" transform="translate(0,2)"></rect><text class="super_col" text-anchor="center" transform="translate(189.390625,20)" style="font-size: 18px; font-weight: 300;">Enriched Terms</text><rect fill="#FFFFFF" width="25px" height="3000px" class="super_row_bkg white_bars" transform="translate(2,0)"></rect><g class="super_row" transform="translate(20,328.25)"><text text-anchor="center" transform="translate(0,126.6171875), rotate(-90)" style="font-size: 18px; font-weight: 300;">Input Genes</text></g><rect class="left_border borders" fill="#F5F5F5" width="2" height="610" transform="translate(0,0)"></rect><rect class="right_border borders" fill="#F5F5F5" width="2" height="610" transform="translate(521,0)"></rect><rect class="top_border borders" fill="#F5F5F5" width="523" height="2" transform="translate(0,0)"></rect><rect class="bottom_border borders" fill="#F5F5F5" width="523" height="2" transform="translate(0,608)"></rect><text class="expand_button" text-anchor="middle" dominant-baseline="central" font-family="FontAwesome" font-size="30px" y="25px" x="25px" style="cursor: pointer; opacity: 0;"></text></svg>