<svg class="viz_svg" id="svg_container-id-1" width="523" height="610" title="test2" version="1.1" xmlns="http://www.w3.org/2000/svg"><rect class="super_background" style="width: 523px; height: 610px; fill: white;"></rect><g class="clust_container" transform="translate(129,152)"><g class="clust_group"><rect class="background grey_background" width="274" height="448" style="fill: rgb(238, 238, 238); opacity: 0.5;"></rect><g class="row" transform="translate(0,224)"><rect class="tile row_tile" width="26.90181818181818" height="223.50181818181818" transform="translate(0.24909090909090909,0.24909090909090909)" style="fill: rgb(255, 102, 102); fill-opacity: 1;"></rect><rect class="tile row_tile" width="26.90181818181818" height="223.50181818181818" transform="translate(27.64909090909091,0.24909090909090909)" style="fill: rgb(255, 102, 102); fill-opacity: 1;"></rect><rect class="tile row_tile" width="26.90181818181818" height="223.50181818181818" transform="translate(55.04909090909091,0.24909090909090909)" style="fill: rgb(255, 102, 102); fill-opacity: 1;"></rect><rect class="tile row_tile" width="26.90181818181818" height="223.50181818181818" transform="translate(82.4490909090909,0.24909090909090909)" style="fill: rgb(255, 102, 102); fill-opacity: 1;"></rect><rect class="tile row_tile" width="26.90181818181818" height="223.50181818181818" transform="translate(109.8490909090909,0.24909090909090909)" style="fill: rgb(255, 102, 102); fill-opacity: 1;"></rect><rect class="tile row_tile" width="26.90181818181818" height="223.50181818181818" transform="translate(137.2490909090909,0.24909090909090909)" style="fill: rgb(255, 102, 102); fill-opacity: 1;"></rect><rect class="tile row_tile" width="26.90181818181818" height="223.50181818181818" transform="translate(164.6490909090909,0.24909090909090909)" style="fill: rgb(255, 102, 102); fill-opacity: 1;"></rect><rect class="tile row_tile" width="26.90181818181818" height="223.50181818181818" transform="translate(192.0490909090909,0.24909090909090909)" style="fill: rgb(255, 102, 102); fill-opacity: 1;"></rect><rect class="tile row_tile" width="26.90181818181818" height="223.50181818181818" transform="translate(219.4490909090909,0.24909090909090909)" style="fill: rgb(255, 102, 102); fill-opacity: 1;"></rect></g><g class="row" transform="translate(0,0)"><rect class="tile row_tile" width="26.90181818181818" height="223.50181818181818" transform="translate(246.8490909090909,0.24909090909090909)" style="fill: rgb(255, 102, 102); fill-opacity: 1;"></rect></g><g class="horz_lines" transform="translate(0,224) rotate(0)"><line x1="0" x2="274" style="stroke-width: 0.498182px; stroke: white;"></line></g><g class="horz_lines" transform="translate(0,0) rotate(0)"><line x1="0" x2="274" style="stroke-width: 0.498182px; stroke: white;"></line></g><g class="vert_lines" transform="translate(0) rotate(-90)"><line x1="0" x2="-448" style="stroke-width: 0.0609383px; stroke: white;"></line></g><g class="vert_lines" transform="translate(27.4) rotate(-90)"><line x1="0" x2="-448" style="stroke-width: 0.0609383px; stroke: white;"></line></g><g class="vert_lines" transform="translate(54.8) rotate(-90)"><line x1="0" x2="-448" style="stroke-width: 0.0609383px; stroke: white;"></line></g><g class="vert_lines" transform="translate(82.19999999999999) rotate(-90)"><line x1="0" x2="-448" style="stroke-width: 0.0609383px; stroke: white;"></line></g><g class="vert_lines" transform="translate(109.6) rotate(-90)"><line x1="0" x2="-448" style="stroke-width: 0.0609383px; stroke: white;"></line></g><g class="vert_lines" transform="translate(137) rotate(-90)"><line x1="0" x2="-448" style="stroke-width: 0.0609383px; stroke: white;"></line></g><g class="vert_lines" transform="translate(164.39999999999998) rotate(-90)"><line x1="0" x2="-448" style="stroke-width: 0.0609383px; stroke: white;"></line></g><g class="vert_lines" transform="translate(191.79999999999998) rotate(-90)"><line x1="0" x2="-448" style="stroke-width: 0.0609383px; stroke: white;"></line></g><g class="vert_lines" transform="translate(219.2) rotate(-90)"><line x1="0" x2="-448" style="stroke-width: 0.0609383px; stroke: white;"></line></g><g class="vert_lines" transform="translate(246.6) rotate(-90)"><line x1="0" x2="-448" style="stroke-width: 0.0609383px; stroke: white;"></line></g></g></g><g class="row_container" transform="translate(27,152)"><rect class="row_white_background white_bars" fill="#FFFFFF" width="102" height="13440px"></rect><g class="row_label_container" transform="translate(85,0)"><g class="row_label_zoom_container"><g class="row_label_group" transform="translate(0,224)"><rect x="-68.125" y="0" width="68.125" height="224" style="opacity: 0; fill: yellow;"></rect><text y="118.75090909090909" text-anchor="end" pointer-events="none" style="font-size: 20px; opacity: 1;">CCNB1</text></g><g class="row_label_group" transform="translate(0,0)"><rect x="-49.984375" y="0" width="49.984375" height="224" style="opacity: 0; fill: yellow;"></rect><text y="118.75090909090909" text-anchor="end" pointer-events="none" style="font-size: 20px; opacity: 1;">HSF2</text></g></g></g><g class="row_cat_outer_container" transform="translate(85,0)"><g class="row_cat_container"><rect class="white_bars" fill="#FFFFFF" width="12px" height="448"></rect><g class="row_cat_group" transform="translate(0, 224)"><path d="M 11,0 L 1,112, L 11,224 Z" fill="#eee"></path></g><g class="row_cat_group" transform="translate(0, 0)"><path d="M 11,0 L 1,112, L 11,224 Z" fill="#eee"></path></g></g></g></g><g class="col_container" transform="translate(129,27)"><rect fill="#FFFFFF" width="8220px" height="125" class="white_bars"></rect><g class="col_label_outer_container" transform="translate(0,120)"><g class="col_zoom_container"><g class="col_label_text" transform="translate(0) rotate(-90)"><g class="col_label_group" transform="translate(13.7,14.198181818181817) rotate(45)"><rect class="col_bars" width="90" height="18.084" opacity="0.6" style="fill: rgb(255, 102, 102);"></rect><text x="0" y="17.535999999999998" dx="0.49818181818181817" text-anchor="start" full_name="RalBP1-CDC2-CCNB1 complex (human)" style="font-size: 20px; opacity: 1;">RalBP1-CD..</text><path d="M -0.49818181818181817,0 L -18.03418181818182,0, L -0.49818181818181817,17.536 Z" fill="#eee" style="stroke-width: 0; opacity: 1;"></path></g></g><g class="col_label_text" transform="translate(27.4) rotate(-90)"><g class="col_label_group" transform="translate(13.7,14.198181818181817) rotate(45)"><rect class="col_bars" width="89.09244297588187" height="18.084" opacity="0.6" style="fill: rgb(255, 102, 102);"></rect><text x="0" y="17.535999999999998" dx="0.49818181818181817" text-anchor="start" full_name="CDC2-PCNA-CCNB1-GADD45A complex (human)" style="font-size: 20px; opacity: 1;">CDC2-PCN..</text><path d="M -0.49818181818181817,0 L -18.03418181818182,0, L -0.49818181818181817,17.536 Z" fill="#eee" style="stroke-width: 0; opacity: 1;"></path></g></g><g class="col_label_text" transform="translate(54.8) rotate(-90)"><g class="col_label_group" transform="translate(13.7,14.198181818181817) rotate(45)"><rect class="col_bars" width="88.61927742395149" height="18.084" opacity="0.6" style="fill: rgb(255, 102, 102);"></rect><text x="0" y="17.535999999999998" dx="0.49818181818181817" text-anchor="start" full_name="CDC2-PCNA-CCNB1-GADD45G complex (human)" style="font-size: 20px; opacity: 1;">CDC2-PCN..</text><path d="M -0.49818181818181817,0 L -18.03418181818182,0, L -0.49818181818181817,17.536 Z" fill="#eee" style="stroke-width: 0; opacity: 1;"></path></g></g><g class="col_label_text" transform="translate(82.19999999999999) rotate(-90)"><g class="col_label_group" transform="translate(13.7,14.198181818181817) rotate(45)"><rect class="col_bars" width="86.1248690768843" height="18.084" opacity="0.6" style="fill: rgb(255, 102, 102);"></rect><text x="0" y="17.535999999999998" dx="0.49818181818181817" text-anchor="start" full_name="CDC2-PCNA-CCNB1-GADD45B complex (human)" style="font-size: 20px; opacity: 1;">CDC2-PCN..</text><path d="M -0.49818181818181817,0 L -18.03418181818182,0, L -0.49818181818181817,17.536 Z" fill="#eee" style="stroke-width: 0; opacity: 1;"></path></g></g><g class="col_label_text" transform="translate(109.6) rotate(-90)"><g class="col_label_group" transform="translate(13.7,14.198181818181817) rotate(45)"><rect class="col_bars" width="76.57210672609739" height="18.084" opacity="0.6" style="fill: rgb(255, 102, 102);"></rect><text x="0" y="17.535999999999998" dx="0.49818181818181817" text-anchor="start" full_name="Cell cycle kinase complex CDC2 (human)" style="font-size: 20px; opacity: 1;">Cell cycle ki..</text><path d="M -0.49818181818181817,0 L -18.03418181818182,0, L -0.49818181818181817,17.536 Z" fill="#eee" style="stroke-width: 0; opacity: 1;"></path></g></g><g class="col_label_text" transform="translate(137) rotate(-90)"><g class="col_label_group" transform="translate(13.7,14.198181818181817) rotate(45)"><rect class="col_bars" width="73.6977021905211" height="18.084" opacity="0.6" style="fill: rgb(255, 102, 102);"></rect><text x="0" y="17.535999999999998" dx="0.49818181818181817" text-anchor="start" full_name="RalBP1-CCNB1-AP2A-NUMB-EPN1 complex (human)" style="font-size: 20px; opacity: 1;">RalBP1-CC..</text><path d="M -0.49818181818181817,0 L -18.03418181818182,0, L -0.49818181818181817,17.536 Z" fill="#eee" style="stroke-width: 0; opacity: 1;"></path></g></g><g class="col_label_text" transform="translate(164.39999999999998) rotate(-90)"><g class="col_label_group" transform="translate(13.7,14.198181818181817) rotate(45)"><rect class="col_bars" width="72.20272411244709" height="18.084" opacity="0.6" style="fill: rgb(255, 102, 102);"></rect><text x="0" y="17.535999999999998" dx="0.49818181818181817" text-anchor="start" full_name="RC complex during G2/M-phase of cell cycle (human)" style="font-size: 20px; opacity: 1;">RC comple..</text><path d="M -0.49818181818181817,0 L -18.03418181818182,0, L -0.49818181818181817,17.536 Z" fill="#eee" style="stroke-width: 0; opacity: 1;"></path></g></g><g class="col_label_text" transform="translate(191.79999999999998) rotate(-90)"><g class="col_label_group" transform="translate(13.7,14.198181818181817) rotate(45)"><rect class="col_bars" width="70.10363596601465" height="18.084" opacity="0.6" style="fill: rgb(255, 102, 102);"></rect><text x="0" y="17.535999999999998" dx="0.49818181818181817" text-anchor="start" full_name="CDC2-CCNB1-PTCH1 complex (human)" style="font-size: 20px; opacity: 1;">CDC2-CCN..</text><path d="M -0.49818181818181817,0 L -18.03418181818182,0, L -0.49818181818181817,17.536 Z" fill="#eee" style="stroke-width: 0; opacity: 1;"></path></g></g><g class="col_label_text" transform="translate(219.2) rotate(-90)"><g class="col_label_group" transform="translate(13.7,14.198181818181817) rotate(45)"><rect class="col_bars" width="68.54209929350658" height="18.084" opacity="0.6" style="fill: rgb(255, 102, 102);"></rect><text x="0" y="17.535999999999998" dx="0.49818181818181817" text-anchor="start" full_name="CDC2-CCNB1-CCNF complex (human)" style="font-size: 20px; opacity: 1;">CDC2-CCN..</text><path d="M -0.49818181818181817,0 L -18.03418181818182,0, L -0.49818181818181817,17.536 Z" fill="#eee" style="stroke-width: 0; opacity: 1;"></path></g></g><g class="col_label_text" transform="translate(246.6) rotate(-90)"><g class="col_label_group" transform="translate(13.7,14.198181818181817) rotate(45)"><rect class="col_bars" width="60.55096131670554" height="18.084" opacity="0.6" style="fill: rgb(255, 102, 102);"></rect><text x="0" y="17.535999999999998" dx="0.49818181818181817" text-anchor="start" full_name="HSF1-HSF2 complex (human)" style="font-size: 20px; opacity: 1;">HSF1-HSF2..</text><path d="M -0.49818181818181817,0 L -18.03418181818182,0, L -0.49818181818181817,17.536 Z" fill="#eee" style="stroke-width: 0; opacity: 1;"></path></g></g></g></g><path d="M 0,0 L 500,-500, L 500,0 Z" fill="#FFFFFF" class="right_slant_triangle" transform="translate(274,120)" style="stroke-width: 0;"></path><path d="M 0,0 L 500,-500, L 0,-500 Z" fill="#FFFFFF" class="left_slant_triangle" transform="translate(-1,120)" style="stroke-width: 0;"></path></g><rect fill="#FFFFFF" width="129" height="152" class="top_left_white"></rect><rect fill="#FFFFFF" width="300px" height="610px" transform="translate(408,147)" class="right_spillover"></rect><rect fill="#FFFFFF" width="5" height="5" transform="translate(403,147)" class="white_bars dendro_row_spillover"></rect><rect fill="#FFFFFF" width="129" height="448" transform="translate(0,600)" class="white_bars dendro_col_spillover"></rect><rect fill="#FFFFFF" width="274" height="17" transform="translate(403,600)" class="white_bars dendro_corner_spillover"></rect><rect fill="#FFFFFF" height="25px" width="3000px" class="super_col_bkg white_bars" transform="translate(0,2)"></rect><text class="super_col" text-anchor="center" transform="translate(173.640625,20)" style="font-size: 18px; font-weight: 300;">Enriched Terms</text><rect fill="#FFFFFF" width="25px" height="3000px" class="super_row_bkg white_bars" transform="translate(2,0)"></rect><g class="super_row" transform="translate(20,344)"><text text-anchor="center" transform="translate(0,158.1171875), rotate(-90)" style="font-size: 18px; font-weight: 300;">Input Genes</text></g><rect class="left_border borders" fill="#F5F5F5" width="2" height="610" transform="translate(0,0)"></rect><rect class="right_border borders" fill="#F5F5F5" width="2" height="610" transform="translate(521,0)"></rect><rect class="top_border borders" fill="#F5F5F5" width="523" height="2" transform="translate(0,0)"></rect><rect class="bottom_border borders" fill="#F5F5F5" width="523" height="2" transform="translate(0,608)"></rect><text class="expand_button" text-anchor="middle" dominant-baseline="central" font-family="FontAwesome" font-size="30px" y="25px" x="25px" style="cursor: pointer; opacity: 0;"></text></svg>