<svg class="viz_svg" id="svg_container-id-1" width="523" height="610" title="test2" version="1.1" xmlns="http://www.w3.org/2000/svg"><rect class="super_background" style="width: 523px; height: 610px; fill: white;"></rect><g class="clust_container" transform="translate(143,152)"><g class="clust_group"><rect class="background grey_background" width="260" height="448" style="fill: rgb(238, 238, 238); opacity: 0.5;"></rect><g class="row" transform="translate(0,201.6)"><rect class="tile row_tile" width="25.527272727272727" height="21.992727272727272" transform="translate(0.23636363636363636,0.20363636363636362)" style="fill: rgb(255, 102, 102); fill-opacity: 1;"></rect><rect class="tile row_tile" width="25.527272727272727" height="21.992727272727272" transform="translate(26.236363636363638,0.20363636363636362)" style="fill: rgb(255, 102, 102); fill-opacity: 1;"></rect><rect class="tile row_tile" width="25.527272727272727" height="21.992727272727272" transform="translate(52.236363636363635,0.20363636363636362)" style="fill: rgb(255, 102, 102); fill-opacity: 1;"></rect><rect class="tile row_tile" width="25.527272727272727" height="21.992727272727272" transform="translate(78.23636363636363,0.20363636363636362)" style="fill: rgb(255, 102, 102); fill-opacity: 1;"></rect><rect class="tile row_tile" width="25.527272727272727" height="21.992727272727272" transform="translate(104.23636363636363,0.20363636363636362)" style="fill: rgb(255, 102, 102); fill-opacity: 1;"></rect><rect class="tile row_tile" width="25.527272727272727" height="21.992727272727272" transform="translate(130.23636363636365,0.20363636363636362)" style="fill: rgb(255, 102, 102); fill-opacity: 1;"></rect><rect class="tile row_tile" width="25.527272727272727" height="21.992727272727272" transform="translate(156.23636363636365,0.20363636363636362)" style="fill: rgb(255, 102, 102); fill-opacity: 1;"></rect><rect class="tile row_tile" width="25.527272727272727" height="21.992727272727272" transform="translate(182.23636363636365,0.20363636363636362)" style="fill: rgb(255, 102, 102); fill-opacity: 1;"></rect><rect class="tile row_tile" width="25.527272727272727" height="21.992727272727272" transform="translate(208.23636363636365,0.20363636363636362)" style="fill: rgb(255, 102, 102); fill-opacity: 1;"></rect></g><g class="row" transform="translate(0,179.2)"><rect class="tile row_tile" width="25.527272727272727" height="21.992727272727272" transform="translate(0.23636363636363636,0.20363636363636362)" style="fill: rgb(255, 102, 102); fill-opacity: 1;"></rect><rect class="tile row_tile" width="25.527272727272727" height="21.992727272727272" transform="translate(26.236363636363638,0.20363636363636362)" style="fill: rgb(255, 102, 102); fill-opacity: 1;"></rect><rect class="tile row_tile" width="25.527272727272727" height="21.992727272727272" transform="translate(52.236363636363635,0.20363636363636362)" style="fill: rgb(255, 102, 102); fill-opacity: 1;"></rect><rect class="tile row_tile" width="25.527272727272727" height="21.992727272727272" transform="translate(78.23636363636363,0.20363636363636362)" style="fill: rgb(255, 102, 102); fill-opacity: 1;"></rect><rect class="tile row_tile" width="25.527272727272727" height="21.992727272727272" transform="translate(104.23636363636363,0.20363636363636362)" style="fill: rgb(255, 102, 102); fill-opacity: 1;"></rect><rect class="tile row_tile" width="25.527272727272727" height="21.992727272727272" transform="translate(130.23636363636365,0.20363636363636362)" style="fill: rgb(255, 102, 102); fill-opacity: 1;"></rect><rect class="tile row_tile" width="25.527272727272727" height="21.992727272727272" transform="translate(156.23636363636365,0.20363636363636362)" style="fill: rgb(255, 102, 102); fill-opacity: 1;"></rect><rect class="tile row_tile" width="25.527272727272727" height="21.992727272727272" transform="translate(182.23636363636365,0.20363636363636362)" style="fill: rgb(255, 102, 102); fill-opacity: 1;"></rect><rect class="tile row_tile" width="25.527272727272727" height="21.992727272727272" transform="translate(208.23636363636365,0.20363636363636362)" style="fill: rgb(255, 102, 102); fill-opacity: 1;"></rect></g><g class="row" transform="translate(0,224)"><rect class="tile row_tile" width="25.527272727272727" height="21.992727272727272" transform="translate(0.23636363636363636,0.20363636363636362)" style="fill: rgb(255, 102, 102); fill-opacity: 1;"></rect><rect class="tile row_tile" width="25.527272727272727" height="21.992727272727272" transform="translate(26.236363636363638,0.20363636363636362)" style="fill: rgb(255, 102, 102); fill-opacity: 1;"></rect><rect class="tile row_tile" width="25.527272727272727" height="21.992727272727272" transform="translate(52.236363636363635,0.20363636363636362)" style="fill: rgb(255, 102, 102); fill-opacity: 1;"></rect><rect class="tile row_tile" width="25.527272727272727" height="21.992727272727272" transform="translate(78.23636363636363,0.20363636363636362)" style="fill: rgb(255, 102, 102); fill-opacity: 1;"></rect><rect class="tile row_tile" width="25.527272727272727" height="21.992727272727272" transform="translate(104.23636363636363,0.20363636363636362)" style="fill: rgb(255, 102, 102); fill-opacity: 1;"></rect><rect class="tile row_tile" width="25.527272727272727" height="21.992727272727272" transform="translate(130.23636363636365,0.20363636363636362)" style="fill: rgb(255, 102, 102); fill-opacity: 1;"></rect><rect class="tile row_tile" width="25.527272727272727" height="21.992727272727272" transform="translate(156.23636363636365,0.20363636363636362)" style="fill: rgb(255, 102, 102); fill-opacity: 1;"></rect><rect class="tile row_tile" width="25.527272727272727" height="21.992727272727272" transform="translate(182.23636363636365,0.20363636363636362)" style="fill: rgb(255, 102, 102); fill-opacity: 1;"></rect><rect class="tile row_tile" width="25.527272727272727" height="21.992727272727272" transform="translate(208.23636363636365,0.20363636363636362)" style="fill: rgb(255, 102, 102); fill-opacity: 1;"></rect></g><g class="row" transform="translate(0,156.79999999999998)"><rect class="tile row_tile" width="25.527272727272727" height="21.992727272727272" transform="translate(0.23636363636363636,0.20363636363636362)" style="fill: rgb(255, 102, 102); fill-opacity: 1;"></rect><rect class="tile row_tile" width="25.527272727272727" height="21.992727272727272" transform="translate(52.236363636363635,0.20363636363636362)" style="fill: rgb(255, 102, 102); fill-opacity: 1;"></rect><rect class="tile row_tile" width="25.527272727272727" height="21.992727272727272" transform="translate(78.23636363636363,0.20363636363636362)" style="fill: rgb(255, 102, 102); fill-opacity: 1;"></rect><rect class="tile row_tile" width="25.527272727272727" height="21.992727272727272" transform="translate(104.23636363636363,0.20363636363636362)" style="fill: rgb(255, 102, 102); fill-opacity: 1;"></rect><rect class="tile row_tile" width="25.527272727272727" height="21.992727272727272" transform="translate(130.23636363636365,0.20363636363636362)" style="fill: rgb(255, 102, 102); fill-opacity: 1;"></rect><rect class="tile row_tile" width="25.527272727272727" height="21.992727272727272" transform="translate(156.23636363636365,0.20363636363636362)" style="fill: rgb(255, 102, 102); fill-opacity: 1;"></rect><rect class="tile row_tile" width="25.527272727272727" height="21.992727272727272" transform="translate(182.23636363636365,0.20363636363636362)" style="fill: rgb(255, 102, 102); fill-opacity: 1;"></rect><rect class="tile row_tile" width="25.527272727272727" height="21.992727272727272" transform="translate(208.23636363636365,0.20363636363636362)" style="fill: rgb(255, 102, 102); fill-opacity: 1;"></rect><rect class="tile row_tile" width="25.527272727272727" height="21.992727272727272" transform="translate(234.23636363636365,0.20363636363636362)" style="fill: rgb(255, 102, 102); fill-opacity: 1;"></rect></g><g class="row" transform="translate(0,246.39999999999998)"><rect class="tile row_tile" width="25.527272727272727" height="21.992727272727272" transform="translate(0.23636363636363636,0.20363636363636362)" style="fill: rgb(255, 102, 102); fill-opacity: 1;"></rect><rect class="tile row_tile" width="25.527272727272727" height="21.992727272727272" transform="translate(26.236363636363638,0.20363636363636362)" style="fill: rgb(255, 102, 102); fill-opacity: 1;"></rect><rect class="tile row_tile" width="25.527272727272727" height="21.992727272727272" transform="translate(52.236363636363635,0.20363636363636362)" style="fill: rgb(255, 102, 102); fill-opacity: 1;"></rect><rect class="tile row_tile" width="25.527272727272727" height="21.992727272727272" transform="translate(78.23636363636363,0.20363636363636362)" style="fill: rgb(255, 102, 102); fill-opacity: 1;"></rect><rect class="tile row_tile" width="25.527272727272727" height="21.992727272727272" transform="translate(104.23636363636363,0.20363636363636362)" style="fill: rgb(255, 102, 102); fill-opacity: 1;"></rect><rect class="tile row_tile" width="25.527272727272727" height="21.992727272727272" transform="translate(130.23636363636365,0.20363636363636362)" style="fill: rgb(255, 102, 102); fill-opacity: 1;"></rect><rect class="tile row_tile" width="25.527272727272727" height="21.992727272727272" transform="translate(156.23636363636365,0.20363636363636362)" style="fill: rgb(255, 102, 102); fill-opacity: 1;"></rect><rect class="tile row_tile" width="25.527272727272727" height="21.992727272727272" transform="translate(182.23636363636365,0.20363636363636362)" style="fill: rgb(255, 102, 102); fill-opacity: 1;"></rect><rect class="tile row_tile" width="25.527272727272727" height="21.992727272727272" transform="translate(208.23636363636365,0.20363636363636362)" style="fill: rgb(255, 102, 102); fill-opacity: 1;"></rect></g><g class="row" transform="translate(0,134.39999999999998)"><rect class="tile row_tile" width="25.527272727272727" height="21.992727272727272" transform="translate(0.23636363636363636,0.20363636363636362)" style="fill: rgb(255, 102, 102); fill-opacity: 1;"></rect><rect class="tile row_tile" width="25.527272727272727" height="21.992727272727272" transform="translate(52.236363636363635,0.20363636363636362)" style="fill: rgb(255, 102, 102); fill-opacity: 1;"></rect><rect class="tile row_tile" width="25.527272727272727" height="21.992727272727272" transform="translate(78.23636363636363,0.20363636363636362)" style="fill: rgb(255, 102, 102); fill-opacity: 1;"></rect><rect class="tile row_tile" width="25.527272727272727" height="21.992727272727272" transform="translate(104.23636363636363,0.20363636363636362)" style="fill: rgb(255, 102, 102); fill-opacity: 1;"></rect><rect class="tile row_tile" width="25.527272727272727" height="21.992727272727272" transform="translate(130.23636363636365,0.20363636363636362)" style="fill: rgb(255, 102, 102); fill-opacity: 1;"></rect><rect class="tile row_tile" width="25.527272727272727" height="21.992727272727272" transform="translate(156.23636363636365,0.20363636363636362)" style="fill: rgb(255, 102, 102); fill-opacity: 1;"></rect><rect class="tile row_tile" width="25.527272727272727" height="21.992727272727272" transform="translate(182.23636363636365,0.20363636363636362)" style="fill: rgb(255, 102, 102); fill-opacity: 1;"></rect><rect class="tile row_tile" width="25.527272727272727" height="21.992727272727272" transform="translate(208.23636363636365,0.20363636363636362)" style="fill: rgb(255, 102, 102); fill-opacity: 1;"></rect><rect class="tile row_tile" width="25.527272727272727" height="21.992727272727272" transform="translate(234.23636363636365,0.20363636363636362)" style="fill: rgb(255, 102, 102); fill-opacity: 1;"></rect></g><g class="row" transform="translate(0,112)"><rect class="tile row_tile" width="25.527272727272727" height="21.992727272727272" transform="translate(0.23636363636363636,0.20363636363636362)" style="fill: rgb(255, 102, 102); fill-opacity: 1;"></rect><rect class="tile row_tile" width="25.527272727272727" height="21.992727272727272" transform="translate(26.236363636363638,0.20363636363636362)" style="fill: rgb(255, 102, 102); fill-opacity: 1;"></rect><rect class="tile row_tile" width="25.527272727272727" height="21.992727272727272" transform="translate(52.236363636363635,0.20363636363636362)" style="fill: rgb(255, 102, 102); fill-opacity: 1;"></rect><rect class="tile row_tile" width="25.527272727272727" height="21.992727272727272" transform="translate(78.23636363636363,0.20363636363636362)" style="fill: rgb(255, 102, 102); fill-opacity: 1;"></rect><rect class="tile row_tile" width="25.527272727272727" height="21.992727272727272" transform="translate(130.23636363636365,0.20363636363636362)" style="fill: rgb(255, 102, 102); fill-opacity: 1;"></rect><rect class="tile row_tile" width="25.527272727272727" height="21.992727272727272" transform="translate(182.23636363636365,0.20363636363636362)" style="fill: rgb(255, 102, 102); fill-opacity: 1;"></rect><rect class="tile row_tile" width="25.527272727272727" height="21.992727272727272" transform="translate(234.23636363636365,0.20363636363636362)" style="fill: rgb(255, 102, 102); fill-opacity: 1;"></rect></g><g class="row" transform="translate(0,89.6)"><rect class="tile row_tile" width="25.527272727272727" height="21.992727272727272" transform="translate(0.23636363636363636,0.20363636363636362)" style="fill: rgb(255, 102, 102); fill-opacity: 1;"></rect><rect class="tile row_tile" width="25.527272727272727" height="21.992727272727272" transform="translate(26.236363636363638,0.20363636363636362)" style="fill: rgb(255, 102, 102); fill-opacity: 1;"></rect><rect class="tile row_tile" width="25.527272727272727" height="21.992727272727272" transform="translate(78.23636363636363,0.20363636363636362)" style="fill: rgb(255, 102, 102); fill-opacity: 1;"></rect><rect class="tile row_tile" width="25.527272727272727" height="21.992727272727272" transform="translate(130.23636363636365,0.20363636363636362)" style="fill: rgb(255, 102, 102); fill-opacity: 1;"></rect><rect class="tile row_tile" width="25.527272727272727" height="21.992727272727272" transform="translate(156.23636363636365,0.20363636363636362)" style="fill: rgb(255, 102, 102); fill-opacity: 1;"></rect><rect class="tile row_tile" width="25.527272727272727" height="21.992727272727272" transform="translate(234.23636363636365,0.20363636363636362)" style="fill: rgb(255, 102, 102); fill-opacity: 1;"></rect></g><g class="row" transform="translate(0,268.79999999999995)"><rect class="tile row_tile" width="25.527272727272727" height="21.992727272727272" transform="translate(0.23636363636363636,0.20363636363636362)" style="fill: rgb(255, 102, 102); fill-opacity: 1;"></rect><rect class="tile row_tile" width="25.527272727272727" height="21.992727272727272" transform="translate(52.236363636363635,0.20363636363636362)" style="fill: rgb(255, 102, 102); fill-opacity: 1;"></rect><rect class="tile row_tile" width="25.527272727272727" height="21.992727272727272" transform="translate(104.23636363636363,0.20363636363636362)" style="fill: rgb(255, 102, 102); fill-opacity: 1;"></rect><rect class="tile row_tile" width="25.527272727272727" height="21.992727272727272" transform="translate(130.23636363636365,0.20363636363636362)" style="fill: rgb(255, 102, 102); fill-opacity: 1;"></rect><rect class="tile row_tile" width="25.527272727272727" height="21.992727272727272" transform="translate(156.23636363636365,0.20363636363636362)" style="fill: rgb(255, 102, 102); fill-opacity: 1;"></rect><rect class="tile row_tile" width="25.527272727272727" height="21.992727272727272" transform="translate(208.23636363636365,0.20363636363636362)" style="fill: rgb(255, 102, 102); fill-opacity: 1;"></rect></g><g class="row" transform="translate(0,22.4)"><rect class="tile row_tile" width="25.527272727272727" height="21.992727272727272" transform="translate(0.23636363636363636,0.20363636363636362)" style="fill: rgb(255, 102, 102); fill-opacity: 1;"></rect><rect class="tile row_tile" width="25.527272727272727" height="21.992727272727272" transform="translate(52.236363636363635,0.20363636363636362)" style="fill: rgb(255, 102, 102); fill-opacity: 1;"></rect><rect class="tile row_tile" width="25.527272727272727" height="21.992727272727272" transform="translate(78.23636363636363,0.20363636363636362)" style="fill: rgb(255, 102, 102); fill-opacity: 1;"></rect><rect class="tile row_tile" width="25.527272727272727" height="21.992727272727272" transform="translate(104.23636363636363,0.20363636363636362)" style="fill: rgb(255, 102, 102); fill-opacity: 1;"></rect><rect class="tile row_tile" width="25.527272727272727" height="21.992727272727272" transform="translate(208.23636363636365,0.20363636363636362)" style="fill: rgb(255, 102, 102); fill-opacity: 1;"></rect></g><g class="row" transform="translate(0,67.19999999999999)"><rect class="tile row_tile" width="25.527272727272727" height="21.992727272727272" transform="translate(0.23636363636363636,0.20363636363636362)" style="fill: rgb(255, 102, 102); fill-opacity: 1;"></rect><rect class="tile row_tile" width="25.527272727272727" height="21.992727272727272" transform="translate(26.236363636363638,0.20363636363636362)" style="fill: rgb(255, 102, 102); fill-opacity: 1;"></rect><rect class="tile row_tile" width="25.527272727272727" height="21.992727272727272" transform="translate(52.236363636363635,0.20363636363636362)" style="fill: rgb(255, 102, 102); fill-opacity: 1;"></rect><rect class="tile row_tile" width="25.527272727272727" height="21.992727272727272" transform="translate(104.23636363636363,0.20363636363636362)" style="fill: rgb(255, 102, 102); fill-opacity: 1;"></rect><rect class="tile row_tile" width="25.527272727272727" height="21.992727272727272" transform="translate(156.23636363636365,0.20363636363636362)" style="fill: rgb(255, 102, 102); fill-opacity: 1;"></rect></g><g class="row" transform="translate(0,291.2)"><rect class="tile row_tile" width="25.527272727272727" height="21.992727272727272" transform="translate(0.23636363636363636,0.20363636363636362)" style="fill: rgb(255, 102, 102); fill-opacity: 1;"></rect><rect class="tile row_tile" width="25.527272727272727" height="21.992727272727272" transform="translate(52.236363636363635,0.20363636363636362)" style="fill: rgb(255, 102, 102); fill-opacity: 1;"></rect><rect class="tile row_tile" width="25.527272727272727" height="21.992727272727272" transform="translate(78.23636363636363,0.20363636363636362)" style="fill: rgb(255, 102, 102); fill-opacity: 1;"></rect><rect class="tile row_tile" width="25.527272727272727" height="21.992727272727272" transform="translate(182.23636363636365,0.20363636363636362)" style="fill: rgb(255, 102, 102); fill-opacity: 1;"></rect></g><g class="row" transform="translate(0,0)"><rect class="tile row_tile" width="25.527272727272727" height="21.992727272727272" transform="translate(0.23636363636363636,0.20363636363636362)" style="fill: rgb(255, 102, 102); fill-opacity: 1;"></rect><rect class="tile row_tile" width="25.527272727272727" height="21.992727272727272" transform="translate(52.236363636363635,0.20363636363636362)" style="fill: rgb(255, 102, 102); fill-opacity: 1;"></rect><rect class="tile row_tile" width="25.527272727272727" height="21.992727272727272" transform="translate(104.23636363636363,0.20363636363636362)" style="fill: rgb(255, 102, 102); fill-opacity: 1;"></rect><rect class="tile row_tile" width="25.527272727272727" height="21.992727272727272" transform="translate(208.23636363636365,0.20363636363636362)" style="fill: rgb(255, 102, 102); fill-opacity: 1;"></rect></g><g class="row" transform="translate(0,44.8)"><rect class="tile row_tile" width="25.527272727272727" height="21.992727272727272" transform="translate(0.23636363636363636,0.20363636363636362)" style="fill: rgb(255, 102, 102); fill-opacity: 1;"></rect><rect class="tile row_tile" width="25.527272727272727" height="21.992727272727272" transform="translate(52.236363636363635,0.20363636363636362)" style="fill: rgb(255, 102, 102); fill-opacity: 1;"></rect><rect class="tile row_tile" width="25.527272727272727" height="21.992727272727272" transform="translate(104.23636363636363,0.20363636363636362)" style="fill: rgb(255, 102, 102); fill-opacity: 1;"></rect></g><g class="row" transform="translate(0,358.4)"><rect class="tile row_tile" width="25.527272727272727" height="21.992727272727272" transform="translate(26.236363636363638,0.20363636363636362)" style="fill: rgb(255, 102, 102); fill-opacity: 1;"></rect><rect class="tile row_tile" width="25.527272727272727" height="21.992727272727272" transform="translate(78.23636363636363,0.20363636363636362)" style="fill: rgb(255, 102, 102); fill-opacity: 1;"></rect></g><g class="row" transform="translate(0,403.2)"><rect class="tile row_tile" width="25.527272727272727" height="21.992727272727272" transform="translate(234.23636363636365,0.20363636363636362)" style="fill: rgb(255, 102, 102); fill-opacity: 1;"></rect></g><g class="row" transform="translate(0,336)"><rect class="tile row_tile" width="25.527272727272727" height="21.992727272727272" transform="translate(26.236363636363638,0.20363636363636362)" style="fill: rgb(255, 102, 102); fill-opacity: 1;"></rect></g><g class="row" transform="translate(0,380.79999999999995)"><rect class="tile row_tile" width="25.527272727272727" height="21.992727272727272" transform="translate(234.23636363636365,0.20363636363636362)" style="fill: rgb(255, 102, 102); fill-opacity: 1;"></rect></g><g class="row" transform="translate(0,425.59999999999997)"><rect class="tile row_tile" width="25.527272727272727" height="21.992727272727272" transform="translate(234.23636363636365,0.20363636363636362)" style="fill: rgb(255, 102, 102); fill-opacity: 1;"></rect></g><g class="row" transform="translate(0,313.59999999999997)"><rect class="tile row_tile" width="25.527272727272727" height="21.992727272727272" transform="translate(0.23636363636363636,0.20363636363636362)" style="fill: rgb(255, 102, 102); fill-opacity: 1;"></rect></g><g class="horz_lines" transform="translate(0,201.6) rotate(0)"><line x1="0" x2="260" style="stroke-width: 0.407273px; stroke: white;"></line></g><g class="horz_lines" transform="translate(0,179.2) rotate(0)"><line x1="0" x2="260" style="stroke-width: 0.407273px; stroke: white;"></line></g><g class="horz_lines" transform="translate(0,224) rotate(0)"><line x1="0" x2="260" style="stroke-width: 0.407273px; stroke: white;"></line></g><g class="horz_lines" transform="translate(0,156.79999999999998) rotate(0)"><line x1="0" x2="260" style="stroke-width: 0.407273px; stroke: white;"></line></g><g class="horz_lines" transform="translate(0,246.39999999999998) rotate(0)"><line x1="0" x2="260" style="stroke-width: 0.407273px; stroke: white;"></line></g><g class="horz_lines" transform="translate(0,134.39999999999998) rotate(0)"><line x1="0" x2="260" style="stroke-width: 0.407273px; stroke: white;"></line></g><g class="horz_lines" transform="translate(0,112) rotate(0)"><line x1="0" x2="260" style="stroke-width: 0.407273px; stroke: white;"></line></g><g class="horz_lines" transform="translate(0,89.6) rotate(0)"><line x1="0" x2="260" style="stroke-width: 0.407273px; stroke: white;"></line></g><g class="horz_lines" transform="translate(0,268.79999999999995) rotate(0)"><line x1="0" x2="260" style="stroke-width: 0.407273px; stroke: white;"></line></g><g class="horz_lines" transform="translate(0,22.4) rotate(0)"><line x1="0" x2="260" style="stroke-width: 0.407273px; stroke: white;"></line></g><g class="horz_lines" transform="translate(0,67.19999999999999) rotate(0)"><line x1="0" x2="260" style="stroke-width: 0.407273px; stroke: white;"></line></g><g class="horz_lines" transform="translate(0,291.2) rotate(0)"><line x1="0" x2="260" style="stroke-width: 0.407273px; stroke: white;"></line></g><g class="horz_lines" transform="translate(0,0) rotate(0)"><line x1="0" x2="260" style="stroke-width: 0.407273px; stroke: white;"></line></g><g class="horz_lines" transform="translate(0,44.8) rotate(0)"><line x1="0" x2="260" style="stroke-width: 0.407273px; stroke: white;"></line></g><g class="horz_lines" transform="translate(0,358.4) rotate(0)"><line x1="0" x2="260" style="stroke-width: 0.407273px; stroke: white;"></line></g><g class="horz_lines" transform="translate(0,403.2) rotate(0)"><line x1="0" x2="260" style="stroke-width: 0.407273px; stroke: white;"></line></g><g class="horz_lines" transform="translate(0,336) rotate(0)"><line x1="0" x2="260" style="stroke-width: 0.407273px; stroke: white;"></line></g><g class="horz_lines" transform="translate(0,380.79999999999995) rotate(0)"><line x1="0" x2="260" style="stroke-width: 0.407273px; stroke: white;"></line></g><g class="horz_lines" transform="translate(0,425.59999999999997) rotate(0)"><line x1="0" x2="260" style="stroke-width: 0.407273px; stroke: white;"></line></g><g class="horz_lines" transform="translate(0,313.59999999999997) rotate(0)"><line x1="0" x2="260" style="stroke-width: 0.407273px; stroke: white;"></line></g><g class="vert_lines" transform="translate(0) rotate(-90)"><line x1="0" x2="-448" style="stroke-width: 0.472727px; stroke: white;"></line></g><g class="vert_lines" transform="translate(26) rotate(-90)"><line x1="0" x2="-448" style="stroke-width: 0.472727px; stroke: white;"></line></g><g class="vert_lines" transform="translate(52) rotate(-90)"><line x1="0" x2="-448" style="stroke-width: 0.472727px; stroke: white;"></line></g><g class="vert_lines" transform="translate(78) rotate(-90)"><line x1="0" x2="-448" style="stroke-width: 0.472727px; stroke: white;"></line></g><g class="vert_lines" transform="translate(104) rotate(-90)"><line x1="0" x2="-448" style="stroke-width: 0.472727px; stroke: white;"></line></g><g class="vert_lines" transform="translate(130) rotate(-90)"><line x1="0" x2="-448" style="stroke-width: 0.472727px; stroke: white;"></line></g><g class="vert_lines" transform="translate(156) rotate(-90)"><line x1="0" x2="-448" style="stroke-width: 0.472727px; stroke: white;"></line></g><g class="vert_lines" transform="translate(182) rotate(-90)"><line x1="0" x2="-448" style="stroke-width: 0.472727px; stroke: white;"></line></g><g class="vert_lines" transform="translate(208) rotate(-90)"><line x1="0" x2="-448" style="stroke-width: 0.472727px; stroke: white;"></line></g><g class="vert_lines" transform="translate(234) rotate(-90)"><line x1="0" x2="-448" style="stroke-width: 0.472727px; stroke: white;"></line></g></g></g><g class="row_container" transform="translate(27,152)"><rect class="row_white_background white_bars" fill="#FFFFFF" width="116" height="13440px"></rect><g class="row_label_container" transform="translate(99,0)"><g class="row_label_zoom_container"><g class="row_label_group" transform="translate(0,201.6)"><rect x="-48.515625" y="0" width="48.515625" height="22.4" style="opacity: 0; fill: yellow;"></rect><text y="17.996363636363636" text-anchor="end" pointer-events="none" style="font-size: 20px; opacity: 1;">SYT4</text></g><g class="row_label_group" transform="translate(0,179.2)"><rect x="-55.1875" y="0" width="55.1875" height="22.4" style="opacity: 0; fill: yellow;"></rect><text y="17.996363636363636" text-anchor="end" pointer-events="none" style="font-size: 20px; opacity: 1;">NME5</text></g><g class="row_label_group" transform="translate(0,224)"><rect x="-75.546875" y="0" width="75.546875" height="22.4" style="opacity: 0; fill: yellow;"></rect><text y="17.996363636363636" text-anchor="end" pointer-events="none" style="font-size: 20px; opacity: 1;">SNAP91</text></g><g class="row_label_group" transform="translate(0,156.79999999999998)"><rect x="-55.546875" y="0" width="55.546875" height="22.4" style="opacity: 0; fill: yellow;"></rect><text y="17.996363636363636" text-anchor="end" pointer-events="none" style="font-size: 20px; opacity: 1;">NEFM</text></g><g class="row_label_group" transform="translate(0,246.39999999999998)"><rect x="-75.9375" y="0" width="75.9375" height="22.4" style="opacity: 0; fill: yellow;"></rect><text y="17.996363636363636" text-anchor="end" pointer-events="none" style="font-size: 20px; opacity: 1;">SH3GL2</text></g><g class="row_label_group" transform="translate(0,134.39999999999998)"><rect x="-72.984375" y="0" width="72.984375" height="22.4" style="opacity: 0; fill: yellow;"></rect><text y="17.996363636363636" text-anchor="end" pointer-events="none" style="font-size: 20px; opacity: 1;">ELOVL4</text></g><g class="row_label_group" transform="translate(0,112)"><rect x="-65.1875" y="0" width="65.359375" height="22.4" style="opacity: 0; fill: yellow;"></rect><text y="17.996363636363636" text-anchor="end" pointer-events="none" style="font-size: 20px; opacity: 1;">KIF21A</text></g><g class="row_label_group" transform="translate(0,89.6)"><rect x="-103.328125" y="0" width="103.328125" height="22.4" style="opacity: 0; fill: yellow;"></rect><text y="17.996363636363636" text-anchor="end" pointer-events="none" style="font-size: 20px; opacity: 1;">SH3BG..</text></g><g class="row_label_group" transform="translate(0,268.79999999999995)"><rect x="-54.453125" y="0" width="54.453125" height="22.4" style="opacity: 0; fill: yellow;"></rect><text y="17.996363636363636" text-anchor="end" pointer-events="none" style="font-size: 20px; opacity: 1;">MCF2</text></g><g class="row_label_group" transform="translate(0,22.4)"><rect x="-103.328125" y="0" width="103.328125" height="22.4" style="opacity: 0; fill: yellow;"></rect><text y="17.996363636363636" text-anchor="end" pointer-events="none" style="font-size: 20px; opacity: 1;">RAB11F..</text></g><g class="row_label_group" transform="translate(0,67.19999999999999)"><rect x="-62.953125" y="0" width="62.953125" height="22.4" style="opacity: 0; fill: yellow;"></rect><text y="17.996363636363636" text-anchor="end" pointer-events="none" style="font-size: 20px; opacity: 1;">PREPL</text></g><g class="row_label_group" transform="translate(0,291.2)"><rect x="-66.65625" y="0" width="66.65625" height="22.4" style="opacity: 0; fill: yellow;"></rect><text y="17.996363636363636" text-anchor="end" pointer-events="none" style="font-size: 20px; opacity: 1;">RUSC1</text></g><g class="row_label_group" transform="translate(0,0)"><rect x="-116.65625" y="0" width="116.65625" height="22.4" style="opacity: 0; fill: yellow;"></rect><text y="17.996363636363636" text-anchor="end" pointer-events="none" style="font-size: 20px; opacity: 1;">GABARA..</text></g><g class="row_label_group" transform="translate(0,44.8)"><rect x="-78.515625" y="0" width="78.515625" height="22.4" style="opacity: 0; fill: yellow;"></rect><text y="17.996363636363636" text-anchor="end" pointer-events="none" style="font-size: 20px; opacity: 1;">CADPS2</text></g><g class="row_label_group" transform="translate(0,358.4)"><rect x="-67.390625" y="0" width="67.390625" height="22.4" style="opacity: 0; fill: yellow;"></rect><text y="17.996363636363636" text-anchor="end" pointer-events="none" style="font-size: 20px; opacity: 1;">CADPS</text></g><g class="row_label_group" transform="translate(0,403.2)"><rect x="-68.125" y="0" width="68.125" height="22.4" style="opacity: 0; fill: yellow;"></rect><text y="17.996363636363636" text-anchor="end" pointer-events="none" style="font-size: 20px; opacity: 1;">CCNB1</text></g><g class="row_label_group" transform="translate(0,336)"><rect x="-64.4375" y="0" width="64.4375" height="22.4" style="opacity: 0; fill: yellow;"></rect><text y="17.996363636363636" text-anchor="end" pointer-events="none" style="font-size: 20px; opacity: 1;">GRSF1</text></g><g class="row_label_group" transform="translate(0,380.79999999999995)"><rect x="-75.9375" y="0" width="75.9375" height="22.4" style="opacity: 0; fill: yellow;"></rect><text y="17.996363636363636" text-anchor="end" pointer-events="none" style="font-size: 20px; opacity: 1;">DNAJA2</text></g><g class="row_label_group" transform="translate(0,425.59999999999997)"><rect x="-54.4375" y="0" width="54.4375" height="22.4" style="opacity: 0; fill: yellow;"></rect><text y="17.996363636363636" text-anchor="end" pointer-events="none" style="font-size: 20px; opacity: 1;">DENR</text></g><g class="row_label_group" transform="translate(0,313.59999999999997)"><rect x="-52.953125" y="0" width="52.953125" height="22.4" style="opacity: 0; fill: yellow;"></rect><text y="17.996363636363636" text-anchor="end" pointer-events="none" style="font-size: 20px; opacity: 1;">NKRF</text></g></g></g><g class="row_cat_outer_container" transform="translate(99,0)"><g class="row_cat_container"><rect class="white_bars" fill="#FFFFFF" width="12px" height="448"></rect><g class="row_cat_group" transform="translate(0, 201.6)"><path d="M 11,0 L 1,11.2, L 11,22.4 Z" fill="#eee"></path></g><g class="row_cat_group" transform="translate(0, 179.2)"><path d="M 11,0 L 1,11.2, L 11,22.4 Z" fill="#eee"></path></g><g class="row_cat_group" transform="translate(0, 224)"><path d="M 11,0 L 1,11.2, L 11,22.4 Z" fill="#eee"></path></g><g class="row_cat_group" transform="translate(0, 156.79999999999998)"><path d="M 11,0 L 1,11.2, L 11,22.4 Z" fill="#eee"></path></g><g class="row_cat_group" transform="translate(0, 246.39999999999998)"><path d="M 11,0 L 1,11.2, L 11,22.4 Z" fill="#eee"></path></g><g class="row_cat_group" transform="translate(0, 134.39999999999998)"><path d="M 11,0 L 1,11.2, L 11,22.4 Z" fill="#eee"></path></g><g class="row_cat_group" transform="translate(0, 112)"><path d="M 11,0 L 1,11.2, L 11,22.4 Z" fill="#eee"></path></g><g class="row_cat_group" transform="translate(0, 89.6)"><path d="M 11,0 L 1,11.2, L 11,22.4 Z" fill="#eee"></path></g><g class="row_cat_group" transform="translate(0, 268.79999999999995)"><path d="M 11,0 L 1,11.2, L 11,22.4 Z" fill="#eee"></path></g><g class="row_cat_group" transform="translate(0, 22.4)"><path d="M 11,0 L 1,11.2, L 11,22.4 Z" fill="#eee"></path></g><g class="row_cat_group" transform="translate(0, 67.19999999999999)"><path d="M 11,0 L 1,11.2, L 11,22.4 Z" fill="#eee"></path></g><g class="row_cat_group" transform="translate(0, 291.2)"><path d="M 11,0 L 1,11.2, L 11,22.4 Z" fill="#eee"></path></g><g class="row_cat_group" transform="translate(0, 0)"><path d="M 11,0 L 1,11.2, L 11,22.4 Z" fill="#eee"></path></g><g class="row_cat_group" transform="translate(0, 44.8)"><path d="M 11,0 L 1,11.2, L 11,22.4 Z" fill="#eee"></path></g><g class="row_cat_group" transform="translate(0, 358.4)"><path d="M 11,0 L 1,11.2, L 11,22.4 Z" fill="#eee"></path></g><g class="row_cat_group" transform="translate(0, 403.2)"><path d="M 11,0 L 1,11.2, L 11,22.4 Z" fill="#eee"></path></g><g class="row_cat_group" transform="translate(0, 336)"><path d="M 11,0 L 1,11.2, L 11,22.4 Z" fill="#eee"></path></g><g class="row_cat_group" transform="translate(0, 380.79999999999995)"><path d="M 11,0 L 1,11.2, L 11,22.4 Z" fill="#eee"></path></g><g class="row_cat_group" transform="translate(0, 425.59999999999997)"><path d="M 11,0 L 1,11.2, L 11,22.4 Z" fill="#eee"></path></g><g class="row_cat_group" transform="translate(0, 313.59999999999997)"><path d="M 11,0 L 1,11.2, L 11,22.4 Z" fill="#eee"></path></g></g></g></g><g class="col_container" transform="translate(143,27)"><rect fill="#FFFFFF" width="7800px" height="125" class="white_bars"></rect><g class="col_label_outer_container" transform="translate(0,120)"><g class="col_zoom_container"><g class="col_label_text" transform="translate(0) rotate(-90)"><g class="col_label_group" transform="translate(13,13.472727272727273) rotate(45)"><rect class="col_bars" width="90" height="17.16" opacity="0.6" style="fill: rgb(255, 102, 102);"></rect><text x="0" y="16.64" dx="0.4727272727272727" text-anchor="start" full_name="CINGULATE GYRUS" style="font-size: 20px; opacity: 1;">CINGULAT..</text><path d="M -0.4727272727272727,0 L -17.112727272727273,0, L -0.4727272727272727,16.64 Z" fill="#eee" style="stroke-width: 0; opacity: 1;"></path></g></g><g class="col_label_text" transform="translate(26) rotate(-90)"><g class="col_label_group" transform="translate(13,13.472727272727273) rotate(45)"><rect class="col_bars" width="72.58437764931011" height="17.16" opacity="0.6" style="fill: rgb(255, 102, 102);"></rect><text x="0" y="16.64" dx="0.4727272727272727" text-anchor="start" full_name="PANCREATIC ISLET" style="font-size: 20px; opacity: 1;">PANCREATI..</text><path d="M -0.4727272727272727,0 L -17.112727272727273,0, L -0.4727272727272727,16.64 Z" fill="#eee" style="stroke-width: 0; opacity: 1;"></path></g></g><g class="col_label_text" transform="translate(52) rotate(-90)"><g class="col_label_group" transform="translate(13,13.472727272727273) rotate(45)"><rect class="col_bars" width="60.68497549763073" height="17.16" opacity="0.6" style="fill: rgb(255, 102, 102);"></rect><text x="0" y="16.64" dx="0.4727272727272727" text-anchor="start" full_name="CEREBRAL CORTEX" style="font-size: 20px; opacity: 1;">CEREBRAL..</text><path d="M -0.4727272727272727,0 L -17.112727272727273,0, L -0.4727272727272727,16.64 Z" fill="#eee" style="stroke-width: 0; opacity: 1;"></path></g></g><g class="col_label_text" transform="translate(78) rotate(-90)"><g class="col_label_group" transform="translate(13,13.472727272727273) rotate(45)"><rect class="col_bars" width="43.454040834987296" height="17.16" opacity="0.6" style="fill: rgb(255, 102, 102);"></rect><text x="0" y="16.64" dx="0.4727272727272727" text-anchor="start" full_name="BETA CELL" style="font-size: 20px; opacity: 1;">BETA CELL</text><path d="M -0.4727272727272727,0 L -17.112727272727273,0, L -0.4727272727272727,16.64 Z" fill="#eee" style="stroke-width: 0; opacity: 1;"></path></g></g><g class="col_label_text" transform="translate(104) rotate(-90)"><g class="col_label_group" transform="translate(13,13.472727272727273) rotate(45)"><rect class="col_bars" width="37.55041385823989" height="17.16" opacity="0.6" style="fill: rgb(255, 102, 102);"></rect><text x="0" y="16.64" dx="0.4727272727272727" text-anchor="start" full_name="BRAIN (BULK)" style="font-size: 20px; opacity: 1;">BRAIN (BU..</text><path d="M -0.4727272727272727,0 L -17.112727272727273,0, L -0.4727272727272727,16.64 Z" fill="#eee" style="stroke-width: 0; opacity: 1;"></path></g></g><g class="col_label_text" transform="translate(130) rotate(-90)"><g class="col_label_group" transform="translate(13,13.472727272727273) rotate(45)"><rect class="col_bars" width="23.556828684587234" height="17.16" opacity="0.6" style="fill: rgb(255, 102, 102);"></rect><text x="0" y="16.64" dx="0.4727272727272727" text-anchor="start" full_name="SENSORY NEURON" style="font-size: 20px; opacity: 1;">SENSORY ..</text><path d="M -0.4727272727272727,0 L -17.112727272727273,0, L -0.4727272727272727,16.64 Z" fill="#eee" style="stroke-width: 0; opacity: 1;"></path></g></g><g class="col_label_text" transform="translate(156) rotate(-90)"><g class="col_label_group" transform="translate(13,13.472727272727273) rotate(45)"><rect class="col_bars" width="22.883982519921492" height="17.16" opacity="0.6" style="fill: rgb(255, 102, 102);"></rect><text x="0" y="16.64" dx="0.4727272727272727" text-anchor="start" full_name="DENTATE GRANULE CELL" style="font-size: 20px; opacity: 1;">DENTATE G..</text><path d="M -0.4727272727272727,0 L -17.112727272727273,0, L -0.4727272727272727,16.64 Z" fill="#eee" style="stroke-width: 0; opacity: 1;"></path></g></g><g class="col_label_text" transform="translate(182) rotate(-90)"><g class="col_label_group" transform="translate(13,13.472727272727273) rotate(45)"><rect class="col_bars" width="21.41857029539361" height="17.16" opacity="0.6" style="fill: rgb(255, 102, 102);"></rect><text x="0" y="16.64" dx="0.4727272727272727" text-anchor="start" full_name="MOTOR NEURON" style="font-size: 20px; opacity: 1;">MOTOR NE..</text><path d="M -0.4727272727272727,0 L -17.112727272727273,0, L -0.4727272727272727,16.64 Z" fill="#eee" style="stroke-width: 0; opacity: 1;"></path></g></g><g class="col_label_text" transform="translate(208) rotate(-90)"><g class="col_label_group" transform="translate(13,13.472727272727273) rotate(45)"><rect class="col_bars" width="20.63823026863028" height="17.16" opacity="0.6" style="fill: rgb(255, 102, 102);"></rect><text x="0" y="16.64" dx="0.4727272727272727" text-anchor="start" full_name="SUPERIOR FRONTAL GYRUS" style="font-size: 20px; opacity: 1;">SUPERIOR ..</text><path d="M -0.4727272727272727,0 L -17.112727272727273,0, L -0.4727272727272727,16.64 Z" fill="#eee" style="stroke-width: 0; opacity: 1;"></path></g></g><g class="col_label_text" transform="translate(234) rotate(-90)"><g class="col_label_group" transform="translate(13,13.472727272727273) rotate(45)"><rect class="col_bars" width="19.17397813099923" height="17.16" opacity="0.6" style="fill: rgb(255, 102, 102);"></rect><text x="0" y="16.64" dx="0.4727272727272727" text-anchor="start" full_name="HUMAN EMBRYO" style="font-size: 20px; opacity: 1;">HUMAN E..</text><path d="M -0.4727272727272727,0 L -17.112727272727273,0, L -0.4727272727272727,16.64 Z" fill="#eee" style="stroke-width: 0; opacity: 1;"></path></g></g></g></g><path d="M 0,0 L 500,-500, L 500,0 Z" fill="#FFFFFF" class="right_slant_triangle" transform="translate(260,120)" style="stroke-width: 0;"></path><path d="M 0,0 L 500,-500, L 0,-500 Z" fill="#FFFFFF" class="left_slant_triangle" transform="translate(-1,120)" style="stroke-width: 0;"></path></g><rect fill="#FFFFFF" width="143" height="152" class="top_left_white"></rect><rect fill="#FFFFFF" width="300px" height="610px" transform="translate(408,147)" class="right_spillover"></rect><rect fill="#FFFFFF" width="5" height="5" transform="translate(403,147)" class="white_bars dendro_row_spillover"></rect><rect fill="#FFFFFF" width="143" height="448" transform="translate(0,600)" class="white_bars dendro_col_spillover"></rect><rect fill="#FFFFFF" width="260" height="17" transform="translate(403,600)" class="white_bars dendro_corner_spillover"></rect><rect fill="#FFFFFF" height="25px" width="3000px" class="super_col_bkg white_bars" transform="translate(0,2)"></rect><text class="super_col" text-anchor="center" transform="translate(180.640625,20)" style="font-size: 18px; font-weight: 300;">Enriched Terms</text><rect fill="#FFFFFF" width="25px" height="3000px" class="super_row_bkg white_bars" transform="translate(2,0)"></rect><g class="super_row" transform="translate(20,344)"><text text-anchor="center" transform="translate(0,158.1171875), rotate(-90)" style="font-size: 18px; font-weight: 300;">Input Genes</text></g><rect class="left_border borders" fill="#F5F5F5" width="2" height="610" transform="translate(0,0)"></rect><rect class="right_border borders" fill="#F5F5F5" width="2" height="610" transform="translate(521,0)"></rect><rect class="top_border borders" fill="#F5F5F5" width="523" height="2" transform="translate(0,0)"></rect><rect class="bottom_border borders" fill="#F5F5F5" width="523" height="2" transform="translate(0,608)"></rect><text class="expand_button" text-anchor="middle" dominant-baseline="central" font-family="FontAwesome" font-size="30px" y="25px" x="25px" style="cursor: pointer; opacity: 0;"></text></svg>