<svg class="viz_svg" id="svg_container-id-1" width="523" height="610" style="opacity: 1;" title="test2" version="1.1" xmlns="http://www.w3.org/2000/svg"><rect class="super_background" style="width: 523px; height: 610px; fill: white;"></rect><g class="clust_container" transform="translate(143,152)"><g class="clust_group" transform="translate(0,0) scale(1,1)translate(0,0)"><rect class="background grey_background" width="260" height="448" style="fill: rgb(238, 238, 238); opacity: 0.5;"></rect><g class="row" transform="translate(0,224)"><rect class="tile row_tile" width="25.527272727272727" height="21.992727272727272" transform="translate(182.23635864257812,0)" style="fill: rgb(255, 102, 102); fill-opacity: 1;"></rect><rect class="tile row_tile" width="25.527272727272727" height="21.992727272727272" transform="translate(104.23636627197266,0)" style="fill: rgb(255, 102, 102); fill-opacity: 1;"></rect><rect class="tile row_tile" width="25.527272727272727" height="21.992727272727272" transform="translate(156.23635864257812,0)" style="fill: rgb(255, 102, 102); fill-opacity: 1;"></rect><rect class="tile row_tile" width="25.527272727272727" height="21.992727272727272" transform="translate(52.23636245727539,0)" style="fill: rgb(255, 102, 102); fill-opacity: 1;"></rect><rect class="tile row_tile" width="25.527272727272727" height="21.992727272727272" transform="translate(26.236364364624023,0)" style="fill: rgb(255, 102, 102); fill-opacity: 1;"></rect><rect class="tile row_tile" width="25.527272727272727" height="21.992727272727272" fill-opacity="1" transform="translate(208.23636363636365,0.20363636363636362)" style="fill: rgb(255, 102, 102);"></rect></g><g class="row" transform="translate(0,201.60000610351562)"><rect class="tile row_tile" width="25.527272727272727" height="21.992727272727272" transform="translate(0.23636363446712494,0)" style="fill: rgb(255, 102, 102); fill-opacity: 1;"></rect><rect class="tile row_tile" width="25.527272727272727" height="21.992727272727272" transform="translate(104.23636627197266,0)" style="fill: rgb(255, 102, 102); fill-opacity: 1;"></rect><rect class="tile row_tile" width="25.527272727272727" height="21.992727272727272" transform="translate(52.23636245727539,0)" style="fill: rgb(255, 102, 102); fill-opacity: 1;"></rect><rect class="tile row_tile" width="25.527272727272727" height="21.992727272727272" transform="translate(26.236364364624023,0)" style="fill: rgb(255, 102, 102); fill-opacity: 1;"></rect><rect class="tile row_tile" width="25.527272727272727" height="21.992727272727272" fill-opacity="1" transform="translate(208.23636363636365,0.20363636363636362)" style="fill: rgb(255, 102, 102);"></rect></g><g class="row" transform="translate(0,425.6000061035156)"><rect class="tile row_tile" width="25.527272727272727" height="21.992727272727272" transform="translate(0.23636363446712494,0)" style="fill: rgb(255, 102, 102); fill-opacity: 1;"></rect><rect class="tile row_tile" width="25.527272727272727" height="21.992727272727272" transform="translate(182.23635864257812,0)" style="fill: rgb(255, 102, 102); fill-opacity: 1;"></rect><rect class="tile row_tile" width="25.527272727272727" height="21.992727272727272" transform="translate(26.236364364624023,0)" style="fill: rgb(255, 102, 102); fill-opacity: 1;"></rect></g><g class="row" transform="translate(0,44.79999923706055)"><rect class="tile row_tile" width="25.527272727272727" height="21.992727272727272" transform="translate(104.23636627197266,0)" style="fill: rgb(255, 102, 102); fill-opacity: 1;"></rect><rect class="tile row_tile" width="25.527272727272727" height="21.992727272727272" transform="translate(156.23635864257812,0)" style="fill: rgb(255, 102, 102); fill-opacity: 1;"></rect><rect class="tile row_tile" width="25.527272727272727" height="21.992727272727272" transform="translate(130.23635864257812,0)" style="fill: rgb(255, 102, 102); fill-opacity: 1;"></rect><rect class="tile row_tile" width="25.527272727272727" height="21.992727272727272" fill-opacity="1" transform="translate(234.23636363636365,0.20363636363636362)" style="fill: rgb(255, 102, 102);"></rect></g><g class="row" transform="translate(0,291.20001220703125)"><rect class="tile row_tile" width="25.527272727272727" height="21.992727272727272" transform="translate(78.23636627197266,0)" style="fill: rgb(255, 102, 102); fill-opacity: 1;"></rect><rect class="tile row_tile" width="25.527272727272727" height="21.992727272727272" transform="translate(26.236364364624023,0)" style="fill: rgb(255, 102, 102); fill-opacity: 1;"></rect><rect class="tile row_tile" width="25.527272727272727" height="21.992727272727272" fill-opacity="1" transform="translate(208.23636363636365,0.20363636363636362)" style="fill: rgb(255, 102, 102);"></rect></g><g class="row" transform="translate(0,22.399999618530273)"><rect class="tile row_tile" width="25.527272727272727" height="21.992727272727272" transform="translate(0.23636363446712494,0)" style="fill: rgb(255, 102, 102); fill-opacity: 1;"></rect><rect class="tile row_tile" width="25.527272727272727" height="21.992727272727272" transform="translate(130.23635864257812,0)" style="fill: rgb(255, 102, 102); fill-opacity: 1;"></rect><rect class="tile row_tile" width="25.527272727272727" height="21.992727272727272" fill-opacity="1" transform="translate(234.23636363636365,0.20363636363636362)" style="fill: rgb(255, 102, 102);"></rect></g><g class="row" transform="translate(0,156.8000030517578)"><rect class="tile row_tile" width="25.527272727272727" height="21.992727272727272" transform="translate(0.23636363446712494,0)" style="fill: rgb(255, 102, 102); fill-opacity: 1;"></rect><rect class="tile row_tile" width="25.527272727272727" height="21.992727272727272" transform="translate(78.23636627197266,0)" style="fill: rgb(255, 102, 102); fill-opacity: 1;"></rect><rect class="tile row_tile" width="25.527272727272727" height="21.992727272727272" transform="translate(104.23636627197266,0)" style="fill: rgb(255, 102, 102); fill-opacity: 1;"></rect><rect class="tile row_tile" width="25.527272727272727" height="21.992727272727272" fill-opacity="1" transform="translate(234.23636363636365,0.20363636363636362)" style="fill: rgb(255, 102, 102);"></rect></g><g class="row" transform="translate(0,179.1999969482422)"><rect class="tile row_tile" width="25.527272727272727" height="21.992727272727272" transform="translate(0.23636363446712494,0)" style="fill: rgb(255, 102, 102); fill-opacity: 1;"></rect><rect class="tile row_tile" width="25.527272727272727" height="21.992727272727272" transform="translate(104.23636627197266,0)" style="fill: rgb(255, 102, 102); fill-opacity: 1;"></rect></g><g class="row" transform="translate(0,89.5999984741211)"><rect class="tile row_tile" width="25.527272727272727" height="21.992727272727272" transform="translate(130.23635864257812,0)" style="fill: rgb(255, 102, 102); fill-opacity: 1;"></rect><rect class="tile row_tile" width="25.527272727272727" height="21.992727272727272" transform="translate(52.23636245727539,0)" style="fill: rgb(255, 102, 102); fill-opacity: 1;"></rect><rect class="tile row_tile" width="25.527272727272727" height="21.992727272727272" transform="translate(26.236364364624023,0)" style="fill: rgb(255, 102, 102); fill-opacity: 1;"></rect><rect class="tile row_tile" width="25.527272727272727" height="21.992727272727272" fill-opacity="1" transform="translate(234.23636363636365,0.20363636363636362)" style="fill: rgb(255, 102, 102);"></rect></g><g class="row" transform="translate(0,358.3999938964844)"><rect class="tile row_tile" width="25.527272727272727" height="21.992727272727272" transform="translate(0.23636363446712494,0)" style="fill: rgb(255, 102, 102); fill-opacity: 1;"></rect><rect class="tile row_tile" width="25.527272727272727" height="21.992727272727272" transform="translate(182.23635864257812,0)" style="fill: rgb(255, 102, 102); fill-opacity: 1;"></rect><rect class="tile row_tile" width="25.527272727272727" height="21.992727272727272" fill-opacity="1" transform="translate(208.23636363636365,0.20363636363636362)" style="fill: rgb(255, 102, 102);"></rect></g><g class="row" transform="translate(0,380.79998779296875)"><rect class="tile row_tile" width="25.527272727272727" height="21.992727272727272" transform="translate(0.23636363446712494,0)" style="fill: rgb(255, 102, 102); fill-opacity: 1;"></rect><rect class="tile row_tile" width="25.527272727272727" height="21.992727272727272" transform="translate(52.23636245727539,0)" style="fill: rgb(255, 102, 102); fill-opacity: 1;"></rect><rect class="tile row_tile" width="25.527272727272727" height="21.992727272727272" fill-opacity="1" transform="translate(208.23636363636365,0.20363636363636362)" style="fill: rgb(255, 102, 102);"></rect></g><g class="row" transform="translate(0,403.20001220703125)"><rect class="tile row_tile" width="25.527272727272727" height="21.992727272727272" transform="translate(0.23636363446712494,0)" style="fill: rgb(255, 102, 102); fill-opacity: 1;"></rect><rect class="tile row_tile" width="25.527272727272727" height="21.992727272727272" transform="translate(52.23636245727539,0)" style="fill: rgb(255, 102, 102); fill-opacity: 1;"></rect><rect class="tile row_tile" width="25.527272727272727" height="21.992727272727272" fill-opacity="1" transform="translate(208.23636363636365,0.20363636363636362)" style="fill: rgb(255, 102, 102);"></rect></g><g class="row" transform="translate(0,134.39999389648438)"><rect class="tile row_tile" width="25.527272727272727" height="21.992727272727272" transform="translate(0.23636363446712494,0)" style="fill: rgb(255, 102, 102); fill-opacity: 1;"></rect><rect class="tile row_tile" width="25.527272727272727" height="21.992727272727272" transform="translate(104.23636627197266,0)" style="fill: rgb(255, 102, 102); fill-opacity: 1;"></rect><rect class="tile row_tile" width="25.527272727272727" height="21.992727272727272" fill-opacity="1" transform="translate(234.23636363636365,0.20363636363636362)" style="fill: rgb(255, 102, 102);"></rect></g><g class="row" transform="translate(0,0)"><rect class="tile row_tile" width="25.527272727272727" height="21.992727272727272" transform="translate(130.23635864257812,0)" style="fill: rgb(255, 102, 102); fill-opacity: 1;"></rect><rect class="tile row_tile" width="25.527272727272727" height="21.992727272727272" fill-opacity="1" transform="translate(234.23636363636365,0.20363636363636362)" style="fill: rgb(255, 102, 102);"></rect></g><g class="row" transform="translate(0,268.79998779296875)"><rect class="tile row_tile" width="25.527272727272727" height="21.992727272727272" transform="translate(52.23636245727539,0)" style="fill: rgb(255, 102, 102); fill-opacity: 1;"></rect><rect class="tile row_tile" width="25.527272727272727" height="21.992727272727272" transform="translate(26.236364364624023,0)" style="fill: rgb(255, 102, 102); fill-opacity: 1;"></rect><rect class="tile row_tile" width="25.527272727272727" height="21.992727272727272" fill-opacity="1" transform="translate(208.23636363636365,0.20363636363636362)" style="fill: rgb(255, 102, 102);"></rect></g><g class="row" transform="translate(0,313.6000061035156)"><rect class="tile row_tile" width="25.527272727272727" height="21.992727272727272" transform="translate(0.23636363446712494,0)" style="fill: rgb(255, 102, 102); fill-opacity: 1;"></rect><rect class="tile row_tile" width="25.527272727272727" height="21.992727272727272" fill-opacity="1" transform="translate(208.23636363636365,0.20363636363636362)" style="fill: rgb(255, 102, 102);"></rect></g><g class="row" transform="translate(0,336)"><rect class="tile row_tile" width="25.527272727272727" height="21.992727272727272" transform="translate(0.325,0.27999999999999997)" style="fill: rgb(255, 102, 102); fill-opacity: 1;"></rect><rect class="tile row_tile" width="25.527272727272727" height="21.992727272727272" transform="translate(208.325,0.27999999999999997)" style="fill: rgb(255, 102, 102); fill-opacity: 1;"></rect></g><g class="row" transform="translate(0,67.19999999999999)"><rect class="tile row_tile" width="25.527272727272727" height="21.992727272727272" transform="translate(26.325,0.27999999999999997)" style="fill: rgb(255, 102, 102); fill-opacity: 1;"></rect><rect class="tile row_tile" width="25.527272727272727" height="21.992727272727272" transform="translate(234.325,0.27999999999999997)" style="fill: rgb(255, 102, 102); fill-opacity: 1;"></rect></g><g class="row" transform="translate(0,246.39999999999998)"><rect class="tile row_tile" width="25.527272727272727" height="21.992727272727272" transform="translate(26.325,0.27999999999999997)" style="fill: rgb(255, 102, 102); fill-opacity: 1;"></rect><rect class="tile row_tile" width="25.527272727272727" height="21.992727272727272" transform="translate(208.325,0.27999999999999997)" style="fill: rgb(255, 102, 102); fill-opacity: 1;"></rect></g><g class="row" transform="translate(0,112)"><rect class="tile row_tile" width="25.527272727272727" height="21.992727272727272" transform="translate(78.325,0.27999999999999997)" style="fill: rgb(255, 102, 102); fill-opacity: 1;"></rect><rect class="tile row_tile" width="25.527272727272727" height="21.992727272727272" transform="translate(234.325,0.27999999999999997)" style="fill: rgb(255, 102, 102); fill-opacity: 1;"></rect></g><g class="horz_lines" transform="translate(0,224) rotate(0)"><line x1="0" x2="260" opacity="1" stroke="white" style="stroke-width: 0.56px;"></line></g><g class="horz_lines" transform="translate(0,201.6) rotate(0)"><line x1="0" x2="260" opacity="1" stroke="white" style="stroke-width: 0.56px;"></line></g><g class="horz_lines" transform="translate(0,44.8) rotate(0)"><line x1="0" x2="260" opacity="1" stroke="white" style="stroke-width: 0.56px;"></line></g><g class="horz_lines" transform="translate(0,89.6) rotate(0)"><line x1="0" x2="260" opacity="1" stroke="white" style="stroke-width: 0.56px;"></line></g><g class="horz_lines" transform="translate(0,156.79999999999998) rotate(0)"><line x1="0" x2="260" opacity="1" stroke="white" style="stroke-width: 0.56px;"></line></g><g class="horz_lines" transform="translate(0,358.4) rotate(0)"><line x1="0" x2="260" opacity="1" stroke="white" style="stroke-width: 0.56px;"></line></g><g class="horz_lines" transform="translate(0,268.79999999999995) rotate(0)"><line x1="0" x2="260" opacity="1" stroke="white" style="stroke-width: 0.56px;"></line></g><g class="horz_lines" transform="translate(0,291.2) rotate(0)"><line x1="0" x2="260" opacity="1" stroke="white" style="stroke-width: 0.56px;"></line></g><g class="horz_lines" transform="translate(0,22.4) rotate(0)"><line x1="0" x2="260" opacity="1" stroke="white" style="stroke-width: 0.56px;"></line></g><g class="horz_lines" transform="translate(0,134.39999999999998) rotate(0)"><line x1="0" x2="260" opacity="1" stroke="white" style="stroke-width: 0.56px;"></line></g><g class="horz_lines" transform="translate(0,403.2) rotate(0)"><line x1="0" x2="260" opacity="1" stroke="white" style="stroke-width: 0.56px;"></line></g><g class="horz_lines" transform="translate(0,425.59999999999997) rotate(0)"><line x1="0" x2="260" opacity="1" stroke="white" style="stroke-width: 0.56px;"></line></g><g class="horz_lines" transform="translate(0,380.79999999999995) rotate(0)"><line x1="0" x2="260" opacity="1" stroke="white" style="stroke-width: 0.56px;"></line></g><g class="horz_lines" transform="translate(0,336) rotate(0)"><line x1="0" x2="260" opacity="1" stroke="white" style="stroke-width: 0.56px;"></line></g><g class="horz_lines" transform="translate(0,67.19999999999999) rotate(0)"><line x1="0" x2="260" opacity="1" stroke="white" style="stroke-width: 0.56px;"></line></g><g class="horz_lines" transform="translate(0,179.2) rotate(0)"><line x1="0" x2="260" opacity="1" stroke="white" style="stroke-width: 0.56px;"></line></g><g class="horz_lines" transform="translate(0,313.59999999999997) rotate(0)"><line x1="0" x2="260" opacity="1" stroke="white" style="stroke-width: 0.56px;"></line></g><g class="horz_lines" transform="translate(0,246.39999999999998) rotate(0)"><line x1="0" x2="260" opacity="1" stroke="white" style="stroke-width: 0.56px;"></line></g><g class="horz_lines" transform="translate(0,112) rotate(0)"><line x1="0" x2="260" opacity="1" stroke="white" style="stroke-width: 0.56px;"></line></g><g class="horz_lines" transform="translate(0,0) rotate(0)"><line x1="0" x2="260" opacity="1" stroke="white" style="stroke-width: 0.56px;"></line></g><g class="vert_lines" transform="translate(0) rotate(-90)"><line x1="0" x2="-448" opacity="1" style="stroke-width: 0.65px; stroke: white;"></line></g><g class="vert_lines" transform="translate(26) rotate(-90)"><line x1="0" x2="-448" opacity="1" style="stroke-width: 0.65px; stroke: white;"></line></g><g class="vert_lines" transform="translate(52) rotate(-90)"><line x1="0" x2="-448" opacity="1" style="stroke-width: 0.65px; stroke: white;"></line></g><g class="vert_lines" transform="translate(78) rotate(-90)"><line x1="0" x2="-448" opacity="1" style="stroke-width: 0.65px; stroke: white;"></line></g><g class="vert_lines" transform="translate(104) rotate(-90)"><line x1="0" x2="-448" opacity="1" style="stroke-width: 0.65px; stroke: white;"></line></g><g class="vert_lines" transform="translate(130) rotate(-90)"><line x1="0" x2="-448" opacity="1" style="stroke-width: 0.65px; stroke: white;"></line></g><g class="vert_lines" transform="translate(156) rotate(-90)"><line x1="0" x2="-448" opacity="1" style="stroke-width: 0.65px; stroke: white;"></line></g><g class="vert_lines" transform="translate(182) rotate(-90)"><line x1="0" x2="-448" opacity="1" style="stroke-width: 0.65px; stroke: white;"></line></g><g class="vert_lines" transform="translate(208) rotate(-90)"><line x1="0" x2="-448" opacity="1" style="stroke-width: 0.65px; stroke: white;"></line></g><g class="vert_lines" transform="translate(234) rotate(-90)"><line x1="0" x2="-448" opacity="1" style="stroke-width: 0.65px; stroke: white;"></line></g></g></g><g class="row_container" transform="translate(27,152)"><rect class="row_white_background white_bars" fill="#FFFFFF" width="116" height="13440px"></rect><g class="row_label_container" transform="translate(99,0)"><g class="row_label_zoom_container" transform="translate(0,0) scale(1,1)translate(0,0)"><g class="row_label_group" transform="translate(0,224)" y="17.996363636363636"><rect x="-65.1875" y="0" width="65.359375" height="22.4" style="opacity: 0; fill: yellow;"></rect><text y="17.996363636363636" text-anchor="end" pointer-events="none" style="font-size: 20px; opacity: 1;">KIF21A</text></g><g class="row_label_group" transform="translate(0,201.60000610351562)" y="17.996363636363636"><rect x="-67.390625" y="0" width="67.390625" height="22.4" style="opacity: 0; fill: yellow;"></rect><text y="17.996363636363636" text-anchor="end" pointer-events="none" style="font-size: 20px; opacity: 1;">CADPS</text></g><g class="row_label_group" transform="translate(0,425.6000061035156)" y="17.996363636363636"><rect x="-72.984375" y="0" width="72.984375" height="22.4" style="opacity: 0; fill: yellow;"></rect><text y="17.996363636363636" text-anchor="end" pointer-events="none" style="font-size: 20px; opacity: 1;">ELOVL4</text></g><g class="row_label_group" transform="translate(0,44.79999923706055)" y="17.996363636363636"><rect x="-91.21875" y="0" width="91.21875" height="22.4" style="opacity: 0; fill: yellow;"></rect><text y="17.996363636363636" text-anchor="end" pointer-events="none" style="font-size: 20px; opacity: 1;" class="">ARHGEF3</text></g><g class="row_label_group" transform="translate(0,291.20001220703125)" y="17.996363636363636"><rect x="-95.546875" y="0" width="95.546875" height="22.4" style="opacity: 0; fill: yellow;"></rect><text y="17.996363636363636" text-anchor="end" pointer-events="none" style="font-size: 20px; opacity: 1;">SMARCA2</text></g><g class="row_label_group" transform="translate(0,22.399999618530273)" y="17.996363636363636"><rect x="-75.9375" y="0" width="75.9375" height="22.4" style="opacity: 0; fill: yellow;"></rect><text y="17.996363636363636" text-anchor="end" pointer-events="none" style="font-size: 20px; opacity: 1;" class="">SH3GL2</text></g><g class="row_label_group" transform="translate(0,156.8000030517578)" y="17.996363636363636"><rect x="-75.9375" y="0" width="75.9375" height="22.4" style="opacity: 0; fill: yellow;"></rect><text y="17.996363636363636" text-anchor="end" pointer-events="none" style="font-size: 20px; opacity: 1;">DNAJA2</text></g><g class="row_label_group" transform="translate(0,179.1999969482422)" y="17.996363636363636"><rect x="-64.4375" y="0" width="64.4375" height="22.4" style="opacity: 0; fill: yellow;"></rect><text y="17.996363636363636" text-anchor="end" pointer-events="none" style="font-size: 20px; opacity: 1;">GRSF1</text></g><g class="row_label_group" transform="translate(0,89.5999984741211)" y="17.996363636363636"><rect x="-55.546875" y="0" width="55.546875" height="22.4" style="opacity: 0; fill: yellow;"></rect><text y="17.996363636363636" text-anchor="end" pointer-events="none" style="font-size: 20px; opacity: 1;">NEFM</text></g><g class="row_label_group" transform="translate(0,358.3999938964844)" y="17.996363636363636"><rect x="-60.375" y="0" width="60.375" height="22.4" style="opacity: 0; fill: yellow;"></rect><text y="17.996363636363636" text-anchor="end" pointer-events="none" style="font-size: 20px; opacity: 1;">VPS36</text></g><g class="row_label_group" transform="translate(0,380.79998779296875)" y="17.996363636363636"><rect x="-47.40625" y="0" width="47.40625" height="22.4" style="opacity: 0; fill: yellow;"></rect><text y="17.996363636363636" text-anchor="end" pointer-events="none" style="font-size: 20px; opacity: 1;">PJA2</text></g><g class="row_label_group" transform="translate(0,403.20001220703125)" y="17.996363636363636"><rect x="-117.046875" y="0" width="117.046875" height="22.4" style="opacity: 0; fill: yellow;"></rect><text y="17.996363636363636" text-anchor="end" pointer-events="none" style="font-size: 20px; opacity: 1;">CAMSAP..</text></g><g class="row_label_group" transform="translate(0,134.39999389648438)" y="17.996363636363636"><rect x="-68.53125" y="0" width="68.53125" height="22.4" style="opacity: 0; fill: yellow;"></rect><text y="17.996363636363636" text-anchor="end" pointer-events="none" style="font-size: 20px; opacity: 1;">LZTFL1</text></g><g class="row_label_group" transform="translate(0,0)" y="17.996363636363636"><rect x="-54.453125" y="0" width="54.453125" height="22.4" style="opacity: 0; fill: yellow;"></rect><text y="17.996363636363636" text-anchor="end" pointer-events="none" style="font-size: 20px; opacity: 1;">MCF2</text></g><g class="row_label_group" transform="translate(0,268.79998779296875)" y="17.996363636363636"><rect x="-75.546875" y="0" width="75.546875" height="22.4" style="opacity: 0; fill: yellow;"></rect><text y="17.996363636363636" text-anchor="end" pointer-events="none" style="font-size: 20px; opacity: 1;">SNAP91</text></g><g class="row_label_group" transform="translate(0,313.6000061035156)" y="17.996363636363636"><rect x="-116.65625" y="0" width="116.65625" height="22.4" style="opacity: 0; fill: yellow;"></rect><text y="17.996363636363636" text-anchor="end" pointer-events="none" style="font-size: 20px; opacity: 1;">GABARA..</text></g><g class="row_label_group" transform="translate(0,336)"><rect x="-64.8125" y="0" width="64.8125" height="22.4" style="opacity: 0; fill: yellow;"></rect><text y="17.996363636363636" text-anchor="end" pointer-events="none" style="font-size: 20px; opacity: 1;">KPNA4</text></g><g class="row_label_group" transform="translate(0,67.19999999999999)"><rect x="-68.125" y="0" width="68.125" height="22.4" style="opacity: 0; fill: yellow;"></rect><text y="17.996363636363636" text-anchor="end" pointer-events="none" style="font-size: 20px; opacity: 1;" class="">CCNB1</text></g><g class="row_label_group" transform="translate(0,246.39999999999998)"><rect x="-78.515625" y="0" width="78.515625" height="22.4" style="opacity: 0; fill: yellow;"></rect><text y="17.996363636363636" text-anchor="end" pointer-events="none" style="font-size: 20px; opacity: 1;">CADPS2</text></g><g class="row_label_group" transform="translate(0,112)"><rect x="-64.828125" y="0" width="64.828125" height="22.4" style="opacity: 0; fill: yellow;"></rect><text y="17.996363636363636" text-anchor="end" pointer-events="none" style="font-size: 20px; opacity: 1;">MATR3</text></g></g></g><g class="row_cat_outer_container" transform="translate(99,0)"><g class="row_cat_container" transform="translate(0,0) scale(1,1)translate(0,0)"><rect class="white_bars" fill="#FFFFFF" width="12px" height="448"></rect><g class="row_cat_group" transform="translate(0,224)"><path d="M 11,0 L 1,11.2, L 11,22.4 Z" fill="#eee"></path></g><g class="row_cat_group" transform="translate(0,201.60000610351562)"><path d="M 11,0 L 1,11.2, L 11,22.4 Z" fill="#eee"></path></g><g class="row_cat_group" transform="translate(0,425.6000061035156)"><path d="M 11,0 L 1,11.2, L 11,22.4 Z" fill="#eee"></path></g><g class="row_cat_group" transform="translate(0,44.79999923706055)"><path d="M 11,0 L 1,11.2, L 11,22.4 Z" fill="#eee"></path></g><g class="row_cat_group" transform="translate(0,291.20001220703125)"><path d="M 11,0 L 1,11.2, L 11,22.4 Z" fill="#eee"></path></g><g class="row_cat_group" transform="translate(0,22.399999618530273)"><path d="M 11,0 L 1,11.2, L 11,22.4 Z" fill="#eee"></path></g><g class="row_cat_group" transform="translate(0,156.8000030517578)"><path d="M 11,0 L 1,11.2, L 11,22.4 Z" fill="#eee"></path></g><g class="row_cat_group" transform="translate(0,179.1999969482422)"><path d="M 11,0 L 1,11.2, L 11,22.4 Z" fill="#eee"></path></g><g class="row_cat_group" transform="translate(0,89.5999984741211)"><path d="M 11,0 L 1,11.2, L 11,22.4 Z" fill="#eee"></path></g><g class="row_cat_group" transform="translate(0,358.3999938964844)"><path d="M 11,0 L 1,11.2, L 11,22.4 Z" fill="#eee"></path></g><g class="row_cat_group" transform="translate(0,380.79998779296875)"><path d="M 11,0 L 1,11.2, L 11,22.4 Z" fill="#eee"></path></g><g class="row_cat_group" transform="translate(0,403.20001220703125)"><path d="M 11,0 L 1,11.2, L 11,22.4 Z" fill="#eee"></path></g><g class="row_cat_group" transform="translate(0,134.39999389648438)"><path d="M 11,0 L 1,11.2, L 11,22.4 Z" fill="#eee"></path></g><g class="row_cat_group" transform="translate(0,0)"><path d="M 11,0 L 1,11.2, L 11,22.4 Z" fill="#eee"></path></g><g class="row_cat_group" transform="translate(0,268.79998779296875)"><path d="M 11,0 L 1,11.2, L 11,22.4 Z" fill="#eee"></path></g><g class="row_cat_group" transform="translate(0,313.6000061035156)"><path d="M 11,0 L 1,11.2, L 11,22.4 Z" fill="#eee"></path></g><g class="row_cat_group" transform="translate(0, 336)"><path d="M 11,0 L 1,11.2, L 11,22.4 Z" fill="#eee"></path></g><g class="row_cat_group" transform="translate(0, 67.19999999999999)"><path d="M 11,0 L 1,11.2, L 11,22.4 Z" fill="#eee"></path></g><g class="row_cat_group" transform="translate(0, 246.39999999999998)"><path d="M 11,0 L 1,11.2, L 11,22.4 Z" fill="#eee"></path></g><g class="row_cat_group" transform="translate(0, 112)"><path d="M 11,0 L 1,11.2, L 11,22.4 Z" fill="#eee"></path></g></g></g></g><g class="col_container" transform="translate(143,27)"><rect fill="#FFFFFF" width="7800px" height="125" class="white_bars"></rect><g class="col_label_outer_container" transform="translate(0,120)"><g class="col_zoom_container" transform=" scale(1,1)translate(0,0)"><g class="col_label_text" transform="rotate(-90)"><g class="col_label_group" transform="translate(13,13.649999618530273),rotate(45)"><rect class="col_bars" width="90" height="16.848000000000003" opacity="0.6" style="fill: rgb(255, 102, 102);"></rect><text x="0" y="15.6" dx="1.3" text-anchor="start" full_name="CHiP ZFX-18555785" style="font-size: 20px; opacity: 1;">CHiP ZFX-1..</text><path d="M -0.65,0 L -17.29,0, L -0.65,16.64 Z" fill="#eee" style="stroke-width: 0; opacity: 1;"></path></g></g><g class="col_label_text" transform="translate(78,0),rotate(-90)"><g class="col_label_group" transform="translate(13,13.649999618530273),rotate(45)"><rect class="col_bars" width="34.68028497108396" height="16.848000000000003" opacity="0.6" style="fill: rgb(255, 102, 102);"></rect><text x="0" y="15.6" dx="1.3" text-anchor="start" full_name="Protein POU5F1-22083510" style="font-size: 20px; opacity: 1;">Protein PO..</text><path d="M -0.65,0 L -17.29,0, L -0.65,16.64 Z" fill="#eee" style="stroke-width: 0; opacity: 1;"></path></g></g><g class="col_label_text" transform="translate(182,0),rotate(-90)"><g class="col_label_group" transform="translate(13,13.649999618530273),rotate(45)"><rect class="col_bars" width="29.9752208937453" height="16.848000000000003" opacity="0.6" style="fill: rgb(255, 102, 102);"></rect><text x="0" y="15.6" dx="1.3" text-anchor="start" full_name="RAD21-21589869 DOWN" style="font-size: 20px; opacity: 1;">RAD21-215..</text><path d="M -0.65,0 L -17.29,0, L -0.65,16.64 Z" fill="#eee" style="stroke-width: 0; opacity: 1;"></path></g></g><g class="col_label_text" transform="translate(104,0),rotate(-90)"><g class="col_label_group" transform="translate(13,13.649999618530273),rotate(45)"><rect class="col_bars" width="32.947381495408926" height="16.848000000000003" opacity="0.6" style="fill: rgb(255, 102, 102);"></rect><text x="0" y="15.6" dx="1.3" text-anchor="start" full_name="CHiP TBX3-20139965" style="font-size: 20px; opacity: 1;" class="">CHiP TBX3-..</text><path d="M -0.65,0 L -17.29,0, L -0.65,16.64 Z" fill="#eee" style="stroke-width: 0; opacity: 1;"></path></g></g><g class="col_label_text" transform="translate(156,0),rotate(-90)"><g class="col_label_group" transform="translate(13,13.649999618530273),rotate(45)"><rect class="col_bars" width="30.608619760804103" height="16.848000000000003" opacity="0.6" style="fill: rgb(255, 102, 102);"></rect><text x="0" y="15.6" dx="1.3" text-anchor="start" full_name="ESRRB-19136965 DOWN" style="font-size: 20px; opacity: 1;">ESRRB-191..</text><path d="M -0.65,0 L -17.29,0, L -0.65,16.64 Z" fill="#eee" style="stroke-width: 0; opacity: 1;"></path></g></g><g class="col_label_text" transform="translate(130,0),rotate(-90)"><g class="col_label_group" transform="translate(13,13.649999618530273),rotate(45)"><rect class="col_bars" width="32.46089409277332" height="16.848000000000003" opacity="0.6" style="fill: rgb(255, 102, 102);"></rect><text x="0" y="15.6" dx="1.3" text-anchor="start" full_name="SOX2-17515932 UP" style="font-size: 20px; opacity: 1;" class="">SOX2-1751..</text><path d="M -0.65,0 L -17.29,0, L -0.65,16.64 Z" fill="#eee" style="stroke-width: 0; opacity: 1;"></path></g></g><g class="col_label_text" transform="translate(52,0),rotate(-90)"><g class="col_label_group" transform="translate(13,13.649999618530273),rotate(45)"><rect class="col_bars" width="35.52843163839413" height="16.848000000000003" opacity="0.6" style="fill: rgb(255, 102, 102);"></rect><text x="0" y="15.6" dx="1.3" text-anchor="start" full_name="JARID2-20075857 UP" style="font-size: 20px; opacity: 1;">JARID2-200..</text><path d="M -0.65,0 L -17.29,0, L -0.65,16.64 Z" fill="#eee" style="stroke-width: 0; opacity: 1;"></path></g></g><g class="col_label_text" transform="translate(26,0),rotate(-90)"><g class="col_label_group" transform="translate(13,13.649999618530273),rotate(45)"><rect class="col_bars" width="41.070380004434476" height="16.848000000000003" opacity="0.6" style="fill: rgb(255, 102, 102);"></rect><text x="0" y="15.6" dx="1.3" text-anchor="start" full_name="mESC H3K9me3 19884255" style="font-size: 20px; opacity: 1;">mESC H3K..</text><path d="M -0.65,0 L -17.29,0, L -0.65,16.64 Z" fill="#eee" style="stroke-width: 0; opacity: 1;"></path></g></g><g class="col_label_text" transform="translate(208) rotate(-90)"><g class="col_label_group" transform="translate(13,13.65) rotate(45)"><rect class="col_bars" width="27.090156437957717" height="17.16" opacity="0.6" style="fill: rgb(255, 102, 102);"></rect><text x="0" y="16.64" dx="0.65" text-anchor="start" full_name="NIPBL-20720539 DOWN" style="font-size: 20px; opacity: 1;">NIPBL-207..</text><path d="M -0.65,0 L -17.29,0, L -0.65,16.64 Z" fill="#eee" style="stroke-width: 0; opacity: 1;"></path></g></g><g class="col_label_text" transform="translate(234) rotate(-90)"><g class="col_label_group" transform="translate(13,13.65) rotate(45)"><rect class="col_bars" width="26.05456964837877" height="17.16" opacity="0.6" style="fill: rgb(255, 102, 102);"></rect><text x="0" y="16.64" dx="0.65" text-anchor="start" full_name="TCF3-19796622 DOWN" style="font-size: 20px; opacity: 1;">TCF3-1979..</text><path d="M -0.65,0 L -17.29,0, L -0.65,16.64 Z" fill="#eee" style="stroke-width: 0; opacity: 1;"></path></g></g></g></g><path d="M 0,0 L 500,-500, L 500,0 Z" fill="#FFFFFF" class="right_slant_triangle" transform="translate(260,120)" style="stroke-width: 0;"></path><path d="M 0,0 L 500,-500, L 0,-500 Z" fill="#FFFFFF" class="left_slant_triangle" transform="translate(-1,120)" style="stroke-width: 0;"></path></g><rect fill="#FFFFFF" width="143" height="152" class="top_left_white"></rect><rect fill="#FFFFFF" width="300px" height="610px" transform="translate(408,147)" class="right_spillover"></rect><rect fill="#FFFFFF" width="5" height="5" transform="translate(403,147)" class="white_bars dendro_row_spillover"></rect><rect fill="#FFFFFF" width="143" height="448" transform="translate(0,600)" class="white_bars dendro_col_spillover"></rect><rect fill="#FFFFFF" width="260" height="17" transform="translate(403,600)" class="white_bars dendro_corner_spillover"></rect><rect fill="#FFFFFF" height="25px" width="3000px" class="super_col_bkg white_bars" transform="translate(0,2)"></rect><text class="super_col" text-anchor="center" transform="translate(229,20)" style="font-size: 18px; font-weight: 300;">Enriched Terms</text><rect fill="#FFFFFF" width="25px" height="3000px" class="super_row_bkg white_bars" transform="translate(2,0)"></rect><g class="super_row" transform="translate(20,344)"><text text-anchor="center" transform="translate(0,158.1171875), rotate(-90)" style="font-size: 18px; font-weight: 300;">Input Genes</text></g><rect class="left_border borders" fill="#F5F5F5" width="2" height="610" transform="translate(0,0)"></rect><rect class="right_border borders" fill="#F5F5F5" width="2" height="610" transform="translate(521,0)"></rect><rect class="top_border borders" fill="#F5F5F5" width="523" height="2" transform="translate(0,0)"></rect><rect class="bottom_border borders" fill="#F5F5F5" width="523" height="2" transform="translate(0,608)"></rect><text class="expand_button" text-anchor="middle" dominant-baseline="central" font-family="FontAwesome" font-size="30px" y="25px" x="25px" style="cursor: pointer; opacity: 0;"></text></svg>