<svg class="viz_svg" id="svg_container-id-1" width="523" height="610" title="test2" version="1.1" xmlns="http://www.w3.org/2000/svg"><rect class="super_background" style="width: 523px; height: 610px; fill: white;"></rect><g class="clust_container" transform="translate(143,152)"><g class="clust_group"><rect class="background grey_background" width="260" height="448" style="fill: rgb(238, 238, 238); opacity: 0.5;"></rect><g class="row" transform="translate(0,168)"><rect class="tile row_tile" width="25.527272727272727" height="27.527272727272727" transform="translate(0.23636363636363636,0.23636363636363636)" style="fill: rgb(255, 102, 102); fill-opacity: 1;"></rect><rect class="tile row_tile" width="25.527272727272727" height="27.527272727272727" transform="translate(26.236363636363638,0.23636363636363636)" style="fill: rgb(255, 102, 102); fill-opacity: 1;"></rect><rect class="tile row_tile" width="25.527272727272727" height="27.527272727272727" transform="translate(52.236363636363635,0.23636363636363636)" style="fill: rgb(255, 102, 102); fill-opacity: 1;"></rect><rect class="tile row_tile" width="25.527272727272727" height="27.527272727272727" transform="translate(78.23636363636363,0.23636363636363636)" style="fill: rgb(255, 102, 102); fill-opacity: 1;"></rect><rect class="tile row_tile" width="25.527272727272727" height="27.527272727272727" transform="translate(104.23636363636363,0.23636363636363636)" style="fill: rgb(255, 102, 102); fill-opacity: 1;"></rect><rect class="tile row_tile" width="25.527272727272727" height="27.527272727272727" transform="translate(130.23636363636365,0.23636363636363636)" style="fill: rgb(255, 102, 102); fill-opacity: 1;"></rect><rect class="tile row_tile" width="25.527272727272727" height="27.527272727272727" transform="translate(156.23636363636365,0.23636363636363636)" style="fill: rgb(255, 102, 102); fill-opacity: 1;"></rect><rect class="tile row_tile" width="25.527272727272727" height="27.527272727272727" transform="translate(182.23636363636365,0.23636363636363636)" style="fill: rgb(255, 102, 102); fill-opacity: 1;"></rect><rect class="tile row_tile" width="25.527272727272727" height="27.527272727272727" transform="translate(208.23636363636365,0.23636363636363636)" style="fill: rgb(255, 102, 102); fill-opacity: 1;"></rect><rect class="tile row_tile" width="25.527272727272727" height="27.527272727272727" transform="translate(234.23636363636365,0.23636363636363636)" style="fill: rgb(255, 102, 102); fill-opacity: 1;"></rect></g><g class="row" transform="translate(0,56)"><rect class="tile row_tile" width="25.527272727272727" height="27.527272727272727" transform="translate(0.23636363636363636,0.23636363636363636)" style="fill: rgb(255, 102, 102); fill-opacity: 1;"></rect><rect class="tile row_tile" width="25.527272727272727" height="27.527272727272727" transform="translate(156.23636363636365,0.23636363636363636)" style="fill: rgb(255, 102, 102); fill-opacity: 1;"></rect><rect class="tile row_tile" width="25.527272727272727" height="27.527272727272727" transform="translate(208.23636363636365,0.23636363636363636)" style="fill: rgb(255, 102, 102); fill-opacity: 1;"></rect></g><g class="row" transform="translate(0,140)"><rect class="tile row_tile" width="25.527272727272727" height="27.527272727272727" transform="translate(0.23636363636363636,0.23636363636363636)" style="fill: rgb(255, 102, 102); fill-opacity: 1;"></rect><rect class="tile row_tile" width="25.527272727272727" height="27.527272727272727" transform="translate(26.236363636363638,0.23636363636363636)" style="fill: rgb(255, 102, 102); fill-opacity: 1;"></rect><rect class="tile row_tile" width="25.527272727272727" height="27.527272727272727" transform="translate(52.236363636363635,0.23636363636363636)" style="fill: rgb(255, 102, 102); fill-opacity: 1;"></rect><rect class="tile row_tile" width="25.527272727272727" height="27.527272727272727" transform="translate(78.23636363636363,0.23636363636363636)" style="fill: rgb(255, 102, 102); fill-opacity: 1;"></rect><rect class="tile row_tile" width="25.527272727272727" height="27.527272727272727" transform="translate(104.23636363636363,0.23636363636363636)" style="fill: rgb(255, 102, 102); fill-opacity: 1;"></rect><rect class="tile row_tile" width="25.527272727272727" height="27.527272727272727" transform="translate(130.23636363636365,0.23636363636363636)" style="fill: rgb(255, 102, 102); fill-opacity: 1;"></rect><rect class="tile row_tile" width="25.527272727272727" height="27.527272727272727" transform="translate(156.23636363636365,0.23636363636363636)" style="fill: rgb(255, 102, 102); fill-opacity: 1;"></rect><rect class="tile row_tile" width="25.527272727272727" height="27.527272727272727" transform="translate(182.23636363636365,0.23636363636363636)" style="fill: rgb(255, 102, 102); fill-opacity: 1;"></rect><rect class="tile row_tile" width="25.527272727272727" height="27.527272727272727" transform="translate(208.23636363636365,0.23636363636363636)" style="fill: rgb(255, 102, 102); fill-opacity: 1;"></rect><rect class="tile row_tile" width="25.527272727272727" height="27.527272727272727" transform="translate(234.23636363636365,0.23636363636363636)" style="fill: rgb(255, 102, 102); fill-opacity: 1;"></rect></g><g class="row" transform="translate(0,392)"><rect class="tile row_tile" width="25.527272727272727" height="27.527272727272727" transform="translate(0.23636363636363636,0.23636363636363636)" style="fill: rgb(255, 102, 102); fill-opacity: 1;"></rect><rect class="tile row_tile" width="25.527272727272727" height="27.527272727272727" transform="translate(26.236363636363638,0.23636363636363636)" style="fill: rgb(255, 102, 102); fill-opacity: 1;"></rect><rect class="tile row_tile" width="25.527272727272727" height="27.527272727272727" transform="translate(52.236363636363635,0.23636363636363636)" style="fill: rgb(255, 102, 102); fill-opacity: 1;"></rect><rect class="tile row_tile" width="25.527272727272727" height="27.527272727272727" transform="translate(78.23636363636363,0.23636363636363636)" style="fill: rgb(255, 102, 102); fill-opacity: 1;"></rect><rect class="tile row_tile" width="25.527272727272727" height="27.527272727272727" transform="translate(156.23636363636365,0.23636363636363636)" style="fill: rgb(255, 102, 102); fill-opacity: 1;"></rect><rect class="tile row_tile" width="25.527272727272727" height="27.527272727272727" transform="translate(182.23636363636365,0.23636363636363636)" style="fill: rgb(255, 102, 102); fill-opacity: 1;"></rect><rect class="tile row_tile" width="25.527272727272727" height="27.527272727272727" transform="translate(208.23636363636365,0.23636363636363636)" style="fill: rgb(255, 102, 102); fill-opacity: 1;"></rect><rect class="tile row_tile" width="25.527272727272727" height="27.527272727272727" transform="translate(234.23636363636365,0.23636363636363636)" style="fill: rgb(255, 102, 102); fill-opacity: 1;"></rect></g><g class="row" transform="translate(0,196)"><rect class="tile row_tile" width="25.527272727272727" height="27.527272727272727" transform="translate(0.23636363636363636,0.23636363636363636)" style="fill: rgb(255, 102, 102); fill-opacity: 1;"></rect><rect class="tile row_tile" width="25.527272727272727" height="27.527272727272727" transform="translate(26.236363636363638,0.23636363636363636)" style="fill: rgb(255, 102, 102); fill-opacity: 1;"></rect><rect class="tile row_tile" width="25.527272727272727" height="27.527272727272727" transform="translate(52.236363636363635,0.23636363636363636)" style="fill: rgb(255, 102, 102); fill-opacity: 1;"></rect><rect class="tile row_tile" width="25.527272727272727" height="27.527272727272727" transform="translate(78.23636363636363,0.23636363636363636)" style="fill: rgb(255, 102, 102); fill-opacity: 1;"></rect><rect class="tile row_tile" width="25.527272727272727" height="27.527272727272727" transform="translate(104.23636363636363,0.23636363636363636)" style="fill: rgb(255, 102, 102); fill-opacity: 1;"></rect><rect class="tile row_tile" width="25.527272727272727" height="27.527272727272727" transform="translate(130.23636363636365,0.23636363636363636)" style="fill: rgb(255, 102, 102); fill-opacity: 1;"></rect><rect class="tile row_tile" width="25.527272727272727" height="27.527272727272727" transform="translate(156.23636363636365,0.23636363636363636)" style="fill: rgb(255, 102, 102); fill-opacity: 1;"></rect><rect class="tile row_tile" width="25.527272727272727" height="27.527272727272727" transform="translate(182.23636363636365,0.23636363636363636)" style="fill: rgb(255, 102, 102); fill-opacity: 1;"></rect><rect class="tile row_tile" width="25.527272727272727" height="27.527272727272727" transform="translate(208.23636363636365,0.23636363636363636)" style="fill: rgb(255, 102, 102); fill-opacity: 1;"></rect><rect class="tile row_tile" width="25.527272727272727" height="27.527272727272727" transform="translate(234.23636363636365,0.23636363636363636)" style="fill: rgb(255, 102, 102); fill-opacity: 1;"></rect></g><g class="row" transform="translate(0,28)"><rect class="tile row_tile" width="25.527272727272727" height="27.527272727272727" transform="translate(104.23636363636363,0.23636363636363636)" style="fill: rgb(255, 102, 102); fill-opacity: 1;"></rect><rect class="tile row_tile" width="25.527272727272727" height="27.527272727272727" transform="translate(156.23636363636365,0.23636363636363636)" style="fill: rgb(255, 102, 102); fill-opacity: 1;"></rect><rect class="tile row_tile" width="25.527272727272727" height="27.527272727272727" transform="translate(208.23636363636365,0.23636363636363636)" style="fill: rgb(255, 102, 102); fill-opacity: 1;"></rect></g><g class="row" transform="translate(0,112)"><rect class="tile row_tile" width="25.527272727272727" height="27.527272727272727" transform="translate(0.23636363636363636,0.23636363636363636)" style="fill: rgb(255, 102, 102); fill-opacity: 1;"></rect><rect class="tile row_tile" width="25.527272727272727" height="27.527272727272727" transform="translate(26.236363636363638,0.23636363636363636)" style="fill: rgb(255, 102, 102); fill-opacity: 1;"></rect><rect class="tile row_tile" width="25.527272727272727" height="27.527272727272727" transform="translate(52.236363636363635,0.23636363636363636)" style="fill: rgb(255, 102, 102); fill-opacity: 1;"></rect><rect class="tile row_tile" width="25.527272727272727" height="27.527272727272727" transform="translate(156.23636363636365,0.23636363636363636)" style="fill: rgb(255, 102, 102); fill-opacity: 1;"></rect><rect class="tile row_tile" width="25.527272727272727" height="27.527272727272727" transform="translate(208.23636363636365,0.23636363636363636)" style="fill: rgb(255, 102, 102); fill-opacity: 1;"></rect><rect class="tile row_tile" width="25.527272727272727" height="27.527272727272727" transform="translate(234.23636363636365,0.23636363636363636)" style="fill: rgb(255, 102, 102); fill-opacity: 1;"></rect></g><g class="row" transform="translate(0,420)"><rect class="tile row_tile" width="25.527272727272727" height="27.527272727272727" transform="translate(0.23636363636363636,0.23636363636363636)" style="fill: rgb(255, 102, 102); fill-opacity: 1;"></rect><rect class="tile row_tile" width="25.527272727272727" height="27.527272727272727" transform="translate(26.236363636363638,0.23636363636363636)" style="fill: rgb(255, 102, 102); fill-opacity: 1;"></rect><rect class="tile row_tile" width="25.527272727272727" height="27.527272727272727" transform="translate(104.23636363636363,0.23636363636363636)" style="fill: rgb(255, 102, 102); fill-opacity: 1;"></rect></g><g class="row" transform="translate(0,224)"><rect class="tile row_tile" width="25.527272727272727" height="27.527272727272727" transform="translate(0.23636363636363636,0.23636363636363636)" style="fill: rgb(255, 102, 102); fill-opacity: 1;"></rect><rect class="tile row_tile" width="25.527272727272727" height="27.527272727272727" transform="translate(26.236363636363638,0.23636363636363636)" style="fill: rgb(255, 102, 102); fill-opacity: 1;"></rect><rect class="tile row_tile" width="25.527272727272727" height="27.527272727272727" transform="translate(52.236363636363635,0.23636363636363636)" style="fill: rgb(255, 102, 102); fill-opacity: 1;"></rect><rect class="tile row_tile" width="25.527272727272727" height="27.527272727272727" transform="translate(78.23636363636363,0.23636363636363636)" style="fill: rgb(255, 102, 102); fill-opacity: 1;"></rect><rect class="tile row_tile" width="25.527272727272727" height="27.527272727272727" transform="translate(104.23636363636363,0.23636363636363636)" style="fill: rgb(255, 102, 102); fill-opacity: 1;"></rect><rect class="tile row_tile" width="25.527272727272727" height="27.527272727272727" transform="translate(130.23636363636365,0.23636363636363636)" style="fill: rgb(255, 102, 102); fill-opacity: 1;"></rect><rect class="tile row_tile" width="25.527272727272727" height="27.527272727272727" transform="translate(156.23636363636365,0.23636363636363636)" style="fill: rgb(255, 102, 102); fill-opacity: 1;"></rect><rect class="tile row_tile" width="25.527272727272727" height="27.527272727272727" transform="translate(182.23636363636365,0.23636363636363636)" style="fill: rgb(255, 102, 102); fill-opacity: 1;"></rect><rect class="tile row_tile" width="25.527272727272727" height="27.527272727272727" transform="translate(208.23636363636365,0.23636363636363636)" style="fill: rgb(255, 102, 102); fill-opacity: 1;"></rect><rect class="tile row_tile" width="25.527272727272727" height="27.527272727272727" transform="translate(234.23636363636365,0.23636363636363636)" style="fill: rgb(255, 102, 102); fill-opacity: 1;"></rect></g><g class="row" transform="translate(0,252)"><rect class="tile row_tile" width="25.527272727272727" height="27.527272727272727" transform="translate(0.23636363636363636,0.23636363636363636)" style="fill: rgb(255, 102, 102); fill-opacity: 1;"></rect><rect class="tile row_tile" width="25.527272727272727" height="27.527272727272727" transform="translate(26.236363636363638,0.23636363636363636)" style="fill: rgb(255, 102, 102); fill-opacity: 1;"></rect><rect class="tile row_tile" width="25.527272727272727" height="27.527272727272727" transform="translate(52.236363636363635,0.23636363636363636)" style="fill: rgb(255, 102, 102); fill-opacity: 1;"></rect><rect class="tile row_tile" width="25.527272727272727" height="27.527272727272727" transform="translate(78.23636363636363,0.23636363636363636)" style="fill: rgb(255, 102, 102); fill-opacity: 1;"></rect><rect class="tile row_tile" width="25.527272727272727" height="27.527272727272727" transform="translate(104.23636363636363,0.23636363636363636)" style="fill: rgb(255, 102, 102); fill-opacity: 1;"></rect><rect class="tile row_tile" width="25.527272727272727" height="27.527272727272727" transform="translate(130.23636363636365,0.23636363636363636)" style="fill: rgb(255, 102, 102); fill-opacity: 1;"></rect><rect class="tile row_tile" width="25.527272727272727" height="27.527272727272727" transform="translate(156.23636363636365,0.23636363636363636)" style="fill: rgb(255, 102, 102); fill-opacity: 1;"></rect><rect class="tile row_tile" width="25.527272727272727" height="27.527272727272727" transform="translate(182.23636363636365,0.23636363636363636)" style="fill: rgb(255, 102, 102); fill-opacity: 1;"></rect><rect class="tile row_tile" width="25.527272727272727" height="27.527272727272727" transform="translate(208.23636363636365,0.23636363636363636)" style="fill: rgb(255, 102, 102); fill-opacity: 1;"></rect><rect class="tile row_tile" width="25.527272727272727" height="27.527272727272727" transform="translate(234.23636363636365,0.23636363636363636)" style="fill: rgb(255, 102, 102); fill-opacity: 1;"></rect></g><g class="row" transform="translate(0,0)"><rect class="tile row_tile" width="25.527272727272727" height="27.527272727272727" transform="translate(78.23636363636363,0.23636363636363636)" style="fill: rgb(255, 102, 102); fill-opacity: 1;"></rect><rect class="tile row_tile" width="25.527272727272727" height="27.527272727272727" transform="translate(104.23636363636363,0.23636363636363636)" style="fill: rgb(255, 102, 102); fill-opacity: 1;"></rect><rect class="tile row_tile" width="25.527272727272727" height="27.527272727272727" transform="translate(130.23636363636365,0.23636363636363636)" style="fill: rgb(255, 102, 102); fill-opacity: 1;"></rect><rect class="tile row_tile" width="25.527272727272727" height="27.527272727272727" transform="translate(156.23636363636365,0.23636363636363636)" style="fill: rgb(255, 102, 102); fill-opacity: 1;"></rect><rect class="tile row_tile" width="25.527272727272727" height="27.527272727272727" transform="translate(208.23636363636365,0.23636363636363636)" style="fill: rgb(255, 102, 102); fill-opacity: 1;"></rect></g><g class="row" transform="translate(0,280)"><rect class="tile row_tile" width="25.527272727272727" height="27.527272727272727" transform="translate(0.23636363636363636,0.23636363636363636)" style="fill: rgb(255, 102, 102); fill-opacity: 1;"></rect><rect class="tile row_tile" width="25.527272727272727" height="27.527272727272727" transform="translate(26.236363636363638,0.23636363636363636)" style="fill: rgb(255, 102, 102); fill-opacity: 1;"></rect><rect class="tile row_tile" width="25.527272727272727" height="27.527272727272727" transform="translate(52.236363636363635,0.23636363636363636)" style="fill: rgb(255, 102, 102); fill-opacity: 1;"></rect><rect class="tile row_tile" width="25.527272727272727" height="27.527272727272727" transform="translate(78.23636363636363,0.23636363636363636)" style="fill: rgb(255, 102, 102); fill-opacity: 1;"></rect><rect class="tile row_tile" width="25.527272727272727" height="27.527272727272727" transform="translate(104.23636363636363,0.23636363636363636)" style="fill: rgb(255, 102, 102); fill-opacity: 1;"></rect><rect class="tile row_tile" width="25.527272727272727" height="27.527272727272727" transform="translate(130.23636363636365,0.23636363636363636)" style="fill: rgb(255, 102, 102); fill-opacity: 1;"></rect><rect class="tile row_tile" width="25.527272727272727" height="27.527272727272727" transform="translate(156.23636363636365,0.23636363636363636)" style="fill: rgb(255, 102, 102); fill-opacity: 1;"></rect><rect class="tile row_tile" width="25.527272727272727" height="27.527272727272727" transform="translate(182.23636363636365,0.23636363636363636)" style="fill: rgb(255, 102, 102); fill-opacity: 1;"></rect><rect class="tile row_tile" width="25.527272727272727" height="27.527272727272727" transform="translate(208.23636363636365,0.23636363636363636)" style="fill: rgb(255, 102, 102); fill-opacity: 1;"></rect><rect class="tile row_tile" width="25.527272727272727" height="27.527272727272727" transform="translate(234.23636363636365,0.23636363636363636)" style="fill: rgb(255, 102, 102); fill-opacity: 1;"></rect></g><g class="row" transform="translate(0,84)"><rect class="tile row_tile" width="25.527272727272727" height="27.527272727272727" transform="translate(0.23636363636363636,0.23636363636363636)" style="fill: rgb(255, 102, 102); fill-opacity: 1;"></rect><rect class="tile row_tile" width="25.527272727272727" height="27.527272727272727" transform="translate(26.236363636363638,0.23636363636363636)" style="fill: rgb(255, 102, 102); fill-opacity: 1;"></rect><rect class="tile row_tile" width="25.527272727272727" height="27.527272727272727" transform="translate(52.236363636363635,0.23636363636363636)" style="fill: rgb(255, 102, 102); fill-opacity: 1;"></rect><rect class="tile row_tile" width="25.527272727272727" height="27.527272727272727" transform="translate(156.23636363636365,0.23636363636363636)" style="fill: rgb(255, 102, 102); fill-opacity: 1;"></rect><rect class="tile row_tile" width="25.527272727272727" height="27.527272727272727" transform="translate(182.23636363636365,0.23636363636363636)" style="fill: rgb(255, 102, 102); fill-opacity: 1;"></rect><rect class="tile row_tile" width="25.527272727272727" height="27.527272727272727" transform="translate(208.23636363636365,0.23636363636363636)" style="fill: rgb(255, 102, 102); fill-opacity: 1;"></rect></g><g class="row" transform="translate(0,336)"><rect class="tile row_tile" width="25.527272727272727" height="27.527272727272727" transform="translate(0.23636363636363636,0.23636363636363636)" style="fill: rgb(255, 102, 102); fill-opacity: 1;"></rect><rect class="tile row_tile" width="25.527272727272727" height="27.527272727272727" transform="translate(26.236363636363638,0.23636363636363636)" style="fill: rgb(255, 102, 102); fill-opacity: 1;"></rect><rect class="tile row_tile" width="25.527272727272727" height="27.527272727272727" transform="translate(52.236363636363635,0.23636363636363636)" style="fill: rgb(255, 102, 102); fill-opacity: 1;"></rect><rect class="tile row_tile" width="25.527272727272727" height="27.527272727272727" transform="translate(78.23636363636363,0.23636363636363636)" style="fill: rgb(255, 102, 102); fill-opacity: 1;"></rect><rect class="tile row_tile" width="25.527272727272727" height="27.527272727272727" transform="translate(104.23636363636363,0.23636363636363636)" style="fill: rgb(255, 102, 102); fill-opacity: 1;"></rect><rect class="tile row_tile" width="25.527272727272727" height="27.527272727272727" transform="translate(130.23636363636365,0.23636363636363636)" style="fill: rgb(255, 102, 102); fill-opacity: 1;"></rect><rect class="tile row_tile" width="25.527272727272727" height="27.527272727272727" transform="translate(156.23636363636365,0.23636363636363636)" style="fill: rgb(255, 102, 102); fill-opacity: 1;"></rect><rect class="tile row_tile" width="25.527272727272727" height="27.527272727272727" transform="translate(182.23636363636365,0.23636363636363636)" style="fill: rgb(255, 102, 102); fill-opacity: 1;"></rect><rect class="tile row_tile" width="25.527272727272727" height="27.527272727272727" transform="translate(208.23636363636365,0.23636363636363636)" style="fill: rgb(255, 102, 102); fill-opacity: 1;"></rect></g><g class="row" transform="translate(0,364)"><rect class="tile row_tile" width="25.527272727272727" height="27.527272727272727" transform="translate(0.23636363636363636,0.23636363636363636)" style="fill: rgb(255, 102, 102); fill-opacity: 1;"></rect><rect class="tile row_tile" width="25.527272727272727" height="27.527272727272727" transform="translate(26.236363636363638,0.23636363636363636)" style="fill: rgb(255, 102, 102); fill-opacity: 1;"></rect><rect class="tile row_tile" width="25.527272727272727" height="27.527272727272727" transform="translate(52.236363636363635,0.23636363636363636)" style="fill: rgb(255, 102, 102); fill-opacity: 1;"></rect><rect class="tile row_tile" width="25.527272727272727" height="27.527272727272727" transform="translate(78.23636363636363,0.23636363636363636)" style="fill: rgb(255, 102, 102); fill-opacity: 1;"></rect><rect class="tile row_tile" width="25.527272727272727" height="27.527272727272727" transform="translate(104.23636363636363,0.23636363636363636)" style="fill: rgb(255, 102, 102); fill-opacity: 1;"></rect><rect class="tile row_tile" width="25.527272727272727" height="27.527272727272727" transform="translate(130.23636363636365,0.23636363636363636)" style="fill: rgb(255, 102, 102); fill-opacity: 1;"></rect><rect class="tile row_tile" width="25.527272727272727" height="27.527272727272727" transform="translate(156.23636363636365,0.23636363636363636)" style="fill: rgb(255, 102, 102); fill-opacity: 1;"></rect><rect class="tile row_tile" width="25.527272727272727" height="27.527272727272727" transform="translate(208.23636363636365,0.23636363636363636)" style="fill: rgb(255, 102, 102); fill-opacity: 1;"></rect><rect class="tile row_tile" width="25.527272727272727" height="27.527272727272727" transform="translate(234.23636363636365,0.23636363636363636)" style="fill: rgb(255, 102, 102); fill-opacity: 1;"></rect></g><g class="row" transform="translate(0,308)"><rect class="tile row_tile" width="25.527272727272727" height="27.527272727272727" transform="translate(0.23636363636363636,0.23636363636363636)" style="fill: rgb(255, 102, 102); fill-opacity: 1;"></rect><rect class="tile row_tile" width="25.527272727272727" height="27.527272727272727" transform="translate(26.236363636363638,0.23636363636363636)" style="fill: rgb(255, 102, 102); fill-opacity: 1;"></rect><rect class="tile row_tile" width="25.527272727272727" height="27.527272727272727" transform="translate(52.236363636363635,0.23636363636363636)" style="fill: rgb(255, 102, 102); fill-opacity: 1;"></rect><rect class="tile row_tile" width="25.527272727272727" height="27.527272727272727" transform="translate(78.23636363636363,0.23636363636363636)" style="fill: rgb(255, 102, 102); fill-opacity: 1;"></rect><rect class="tile row_tile" width="25.527272727272727" height="27.527272727272727" transform="translate(104.23636363636363,0.23636363636363636)" style="fill: rgb(255, 102, 102); fill-opacity: 1;"></rect><rect class="tile row_tile" width="25.527272727272727" height="27.527272727272727" transform="translate(130.23636363636365,0.23636363636363636)" style="fill: rgb(255, 102, 102); fill-opacity: 1;"></rect><rect class="tile row_tile" width="25.527272727272727" height="27.527272727272727" transform="translate(156.23636363636365,0.23636363636363636)" style="fill: rgb(255, 102, 102); fill-opacity: 1;"></rect><rect class="tile row_tile" width="25.527272727272727" height="27.527272727272727" transform="translate(182.23636363636365,0.23636363636363636)" style="fill: rgb(255, 102, 102); fill-opacity: 1;"></rect><rect class="tile row_tile" width="25.527272727272727" height="27.527272727272727" transform="translate(208.23636363636365,0.23636363636363636)" style="fill: rgb(255, 102, 102); fill-opacity: 1;"></rect><rect class="tile row_tile" width="25.527272727272727" height="27.527272727272727" transform="translate(234.23636363636365,0.23636363636363636)" style="fill: rgb(255, 102, 102); fill-opacity: 1;"></rect></g><g class="horz_lines" transform="translate(0,168) rotate(0)"><line x1="0" x2="260" style="stroke-width: 0.472727px; stroke: white;"></line></g><g class="horz_lines" transform="translate(0,56) rotate(0)"><line x1="0" x2="260" style="stroke-width: 0.472727px; stroke: white;"></line></g><g class="horz_lines" transform="translate(0,140) rotate(0)"><line x1="0" x2="260" style="stroke-width: 0.472727px; stroke: white;"></line></g><g class="horz_lines" transform="translate(0,392) rotate(0)"><line x1="0" x2="260" style="stroke-width: 0.472727px; stroke: white;"></line></g><g class="horz_lines" transform="translate(0,196) rotate(0)"><line x1="0" x2="260" style="stroke-width: 0.472727px; stroke: white;"></line></g><g class="horz_lines" transform="translate(0,28) rotate(0)"><line x1="0" x2="260" style="stroke-width: 0.472727px; stroke: white;"></line></g><g class="horz_lines" transform="translate(0,112) rotate(0)"><line x1="0" x2="260" style="stroke-width: 0.472727px; stroke: white;"></line></g><g class="horz_lines" transform="translate(0,420) rotate(0)"><line x1="0" x2="260" style="stroke-width: 0.472727px; stroke: white;"></line></g><g class="horz_lines" transform="translate(0,224) rotate(0)"><line x1="0" x2="260" style="stroke-width: 0.472727px; stroke: white;"></line></g><g class="horz_lines" transform="translate(0,252) rotate(0)"><line x1="0" x2="260" style="stroke-width: 0.472727px; stroke: white;"></line></g><g class="horz_lines" transform="translate(0,0) rotate(0)"><line x1="0" x2="260" style="stroke-width: 0.472727px; stroke: white;"></line></g><g class="horz_lines" transform="translate(0,280) rotate(0)"><line x1="0" x2="260" style="stroke-width: 0.472727px; stroke: white;"></line></g><g class="horz_lines" transform="translate(0,84) rotate(0)"><line x1="0" x2="260" style="stroke-width: 0.472727px; stroke: white;"></line></g><g class="horz_lines" transform="translate(0,336) rotate(0)"><line x1="0" x2="260" style="stroke-width: 0.472727px; stroke: white;"></line></g><g class="horz_lines" transform="translate(0,364) rotate(0)"><line x1="0" x2="260" style="stroke-width: 0.472727px; stroke: white;"></line></g><g class="horz_lines" transform="translate(0,308) rotate(0)"><line x1="0" x2="260" style="stroke-width: 0.472727px; stroke: white;"></line></g><g class="vert_lines" transform="translate(0) rotate(-90)"><line x1="0" x2="-448" style="stroke-width: 0.438961px; stroke: white;"></line></g><g class="vert_lines" transform="translate(26) rotate(-90)"><line x1="0" x2="-448" style="stroke-width: 0.438961px; stroke: white;"></line></g><g class="vert_lines" transform="translate(52) rotate(-90)"><line x1="0" x2="-448" style="stroke-width: 0.438961px; stroke: white;"></line></g><g class="vert_lines" transform="translate(78) rotate(-90)"><line x1="0" x2="-448" style="stroke-width: 0.438961px; stroke: white;"></line></g><g class="vert_lines" transform="translate(104) rotate(-90)"><line x1="0" x2="-448" style="stroke-width: 0.438961px; stroke: white;"></line></g><g class="vert_lines" transform="translate(130) rotate(-90)"><line x1="0" x2="-448" style="stroke-width: 0.438961px; stroke: white;"></line></g><g class="vert_lines" transform="translate(156) rotate(-90)"><line x1="0" x2="-448" style="stroke-width: 0.438961px; stroke: white;"></line></g><g class="vert_lines" transform="translate(182) rotate(-90)"><line x1="0" x2="-448" style="stroke-width: 0.438961px; stroke: white;"></line></g><g class="vert_lines" transform="translate(208) rotate(-90)"><line x1="0" x2="-448" style="stroke-width: 0.438961px; stroke: white;"></line></g><g class="vert_lines" transform="translate(234) rotate(-90)"><line x1="0" x2="-448" style="stroke-width: 0.438961px; stroke: white;"></line></g></g></g><g class="row_container" transform="translate(27,152)"><rect class="row_white_background white_bars" fill="#FFFFFF" width="116" height="13440px"></rect><g class="row_label_container" transform="translate(99,0)"><g class="row_label_zoom_container"><g class="row_label_group" transform="translate(0,168)"><rect x="-65.296875" y="0" width="65.296875" height="28" style="opacity: 0; fill: yellow;"></rect><text y="20.763636363636365" text-anchor="end" pointer-events="none" style="font-size: 20px; opacity: 1;">ABCA5</text></g><g class="row_label_group" transform="translate(0,56)"><rect x="-78.515625" y="0" width="78.515625" height="28" style="opacity: 0; fill: yellow;"></rect><text y="20.763636363636365" text-anchor="end" pointer-events="none" style="font-size: 20px; opacity: 1;">CADPS2</text></g><g class="row_label_group" transform="translate(0,140)"><rect x="-92.59375" y="0" width="92.75" height="28" style="opacity: 0; fill: yellow;"></rect><text y="20.763636363636365" text-anchor="end" pointer-events="none" style="font-size: 20px; opacity: 1;">CCDC28A</text></g><g class="row_label_group" transform="translate(0,392)"><rect x="-72.984375" y="0" width="72.984375" height="28" style="opacity: 0; fill: yellow;"></rect><text y="20.763636363636365" text-anchor="end" pointer-events="none" style="font-size: 20px; opacity: 1;">ELOVL4</text></g><g class="row_label_group" transform="translate(0,196)"><rect x="-64.4375" y="0" width="64.4375" height="28" style="opacity: 0; fill: yellow;"></rect><text y="20.763636363636365" text-anchor="end" pointer-events="none" style="font-size: 20px; opacity: 1;">GRSF1</text></g><g class="row_label_group" transform="translate(0,28)"><rect x="-64.8125" y="0" width="64.8125" height="28" style="opacity: 0; fill: yellow;"></rect><text y="20.763636363636365" text-anchor="end" pointer-events="none" style="font-size: 20px; opacity: 1;">KPNA4</text></g><g class="row_label_group" transform="translate(0,112)"><rect x="-68.53125" y="0" width="68.53125" height="28" style="opacity: 0; fill: yellow;"></rect><text y="20.763636363636365" text-anchor="end" pointer-events="none" style="font-size: 20px; opacity: 1;">LZTFL1</text></g><g class="row_label_group" transform="translate(0,420)"><rect x="-52.953125" y="0" width="52.953125" height="28" style="opacity: 0; fill: yellow;"></rect><text y="20.763636363636365" text-anchor="end" pointer-events="none" style="font-size: 20px; opacity: 1;">NKRF</text></g><g class="row_label_group" transform="translate(0,224)"><rect x="-103.328125" y="0" width="103.328125" height="28" style="opacity: 0; fill: yellow;"></rect><text y="20.763636363636365" text-anchor="end" pointer-events="none" style="font-size: 20px; opacity: 1;">RAB11F..</text></g><g class="row_label_group" transform="translate(0,252)"><rect x="-103.6875" y="0" width="103.6875" height="28" style="opacity: 0; fill: yellow;"></rect><text y="20.763636363636365" text-anchor="end" pointer-events="none" style="font-size: 20px; opacity: 1;">RAB3G..</text></g><g class="row_label_group" transform="translate(0,0)"><rect x="-53.3125" y="0" width="53.3125" height="28" style="opacity: 0; fill: yellow;"></rect><text y="20.763636363636365" text-anchor="end" pointer-events="none" style="font-size: 20px; opacity: 1;">RARS</text></g><g class="row_label_group" transform="translate(0,280)"><rect x="-66.65625" y="0" width="66.65625" height="28" style="opacity: 0; fill: yellow;"></rect><text y="20.763636363636365" text-anchor="end" pointer-events="none" style="font-size: 20px; opacity: 1;">RUSC1</text></g><g class="row_label_group" transform="translate(0,84)"><rect x="-103.328125" y="0" width="103.328125" height="28" style="opacity: 0; fill: yellow;"></rect><text y="20.763636363636365" text-anchor="end" pointer-events="none" style="font-size: 20px; opacity: 1;">SH3BG..</text></g><g class="row_label_group" transform="translate(0,336)"><rect x="-64.4375" y="0" width="64.59375" height="28" style="opacity: 0; fill: yellow;"></rect><text y="20.763636363636365" text-anchor="end" pointer-events="none" style="font-size: 20px; opacity: 1;">UBE3A</text></g><g class="row_label_group" transform="translate(0,364)"><rect x="-52.21875" y="0" width="52.21875" height="28" style="opacity: 0; fill: yellow;"></rect><text y="20.763636363636365" text-anchor="end" pointer-events="none" style="font-size: 20px; opacity: 1;">UBP1</text></g><g class="row_label_group" transform="translate(0,308)"><rect x="-68.53125" y="0" width="68.53125" height="28" style="opacity: 0; fill: yellow;"></rect><text y="20.763636363636365" text-anchor="end" pointer-events="none" style="font-size: 20px; opacity: 1;">WDR69</text></g></g></g><g class="row_cat_outer_container" transform="translate(99,0)"><g class="row_cat_container"><rect class="white_bars" fill="#FFFFFF" width="12px" height="448"></rect><g class="row_cat_group" transform="translate(0, 168)"><path d="M 11,0 L 1,14, L 11,28 Z" fill="#eee"></path></g><g class="row_cat_group" transform="translate(0, 56)"><path d="M 11,0 L 1,14, L 11,28 Z" fill="#eee"></path></g><g class="row_cat_group" transform="translate(0, 140)"><path d="M 11,0 L 1,14, L 11,28 Z" fill="#eee"></path></g><g class="row_cat_group" transform="translate(0, 392)"><path d="M 11,0 L 1,14, L 11,28 Z" fill="#eee"></path></g><g class="row_cat_group" transform="translate(0, 196)"><path d="M 11,0 L 1,14, L 11,28 Z" fill="#eee"></path></g><g class="row_cat_group" transform="translate(0, 28)"><path d="M 11,0 L 1,14, L 11,28 Z" fill="#eee"></path></g><g class="row_cat_group" transform="translate(0, 112)"><path d="M 11,0 L 1,14, L 11,28 Z" fill="#eee"></path></g><g class="row_cat_group" transform="translate(0, 420)"><path d="M 11,0 L 1,14, L 11,28 Z" fill="#eee"></path></g><g class="row_cat_group" transform="translate(0, 224)"><path d="M 11,0 L 1,14, L 11,28 Z" fill="#eee"></path></g><g class="row_cat_group" transform="translate(0, 252)"><path d="M 11,0 L 1,14, L 11,28 Z" fill="#eee"></path></g><g class="row_cat_group" transform="translate(0, 0)"><path d="M 11,0 L 1,14, L 11,28 Z" fill="#eee"></path></g><g class="row_cat_group" transform="translate(0, 280)"><path d="M 11,0 L 1,14, L 11,28 Z" fill="#eee"></path></g><g class="row_cat_group" transform="translate(0, 84)"><path d="M 11,0 L 1,14, L 11,28 Z" fill="#eee"></path></g><g class="row_cat_group" transform="translate(0, 336)"><path d="M 11,0 L 1,14, L 11,28 Z" fill="#eee"></path></g><g class="row_cat_group" transform="translate(0, 364)"><path d="M 11,0 L 1,14, L 11,28 Z" fill="#eee"></path></g><g class="row_cat_group" transform="translate(0, 308)"><path d="M 11,0 L 1,14, L 11,28 Z" fill="#eee"></path></g></g></g></g><g class="col_container" transform="translate(143,27)"><rect fill="#FFFFFF" width="7800px" height="125" class="white_bars"></rect><g class="col_label_outer_container" transform="translate(0,120)"><g class="col_zoom_container"><g class="col_label_text" transform="translate(0) rotate(-90)"><g class="col_label_group" transform="translate(13,13.472727272727273) rotate(45)"><rect class="col_bars" width="90" height="17.16" opacity="0.6" style="fill: rgb(255, 102, 102);"></rect><text x="0" y="16.64" dx="0.4727272727272727" text-anchor="start" full_name="Prefrontal cortex" style="font-size: 20px; opacity: 1;">Prefrontal c..</text><path d="M -0.4727272727272727,0 L -17.112727272727273,0, L -0.4727272727272727,16.64 Z" fill="#eee" style="stroke-width: 0; opacity: 1;"></path></g></g><g class="col_label_text" transform="translate(26) rotate(-90)"><g class="col_label_group" transform="translate(13,13.472727272727273) rotate(45)"><rect class="col_bars" width="65.1540291850684" height="17.16" opacity="0.6" style="fill: rgb(255, 102, 102);"></rect><text x="0" y="16.64" dx="0.4727272727272727" text-anchor="start" full_name="Pineal gland" style="font-size: 20px; opacity: 1;">Pineal gland</text><path d="M -0.4727272727272727,0 L -17.112727272727273,0, L -0.4727272727272727,16.64 Z" fill="#eee" style="stroke-width: 0; opacity: 1;"></path></g></g><g class="col_label_text" transform="translate(52) rotate(-90)"><g class="col_label_group" transform="translate(13,13.472727272727273) rotate(45)"><rect class="col_bars" width="63.84593985187985" height="17.16" opacity="0.6" style="fill: rgb(255, 102, 102);"></rect><text x="0" y="16.64" dx="0.4727272727272727" text-anchor="start" full_name="Amygdala" style="font-size: 20px; opacity: 1;">Amygdala</text><path d="M -0.4727272727272727,0 L -17.112727272727273,0, L -0.4727272727272727,16.64 Z" fill="#eee" style="stroke-width: 0; opacity: 1;"></path></g></g><g class="col_label_text" transform="translate(78) rotate(-90)"><g class="col_label_group" transform="translate(13,13.472727272727273) rotate(45)"><rect class="col_bars" width="51.60233349085201" height="17.16" opacity="0.6" style="fill: rgb(255, 102, 102);"></rect><text x="0" y="16.64" dx="0.4727272727272727" text-anchor="start" full_name="Parenchyma" style="font-size: 20px; opacity: 1;">Parenchyma</text><path d="M -0.4727272727272727,0 L -17.112727272727273,0, L -0.4727272727272727,16.64 Z" fill="#eee" style="stroke-width: 0; opacity: 1;"></path></g></g><g class="col_label_text" transform="translate(104) rotate(-90)"><g class="col_label_group" transform="translate(13,13.472727272727273) rotate(45)"><rect class="col_bars" width="48.66530564271071" height="17.16" opacity="0.6" style="fill: rgb(255, 102, 102);"></rect><text x="0" y="16.64" dx="0.4727272727272727" text-anchor="start" full_name="B-lymphoblastoid cell" style="font-size: 20px; opacity: 1;">B-lymphobl..</text><path d="M -0.4727272727272727,0 L -17.112727272727273,0, L -0.4727272727272727,16.64 Z" fill="#eee" style="stroke-width: 0; opacity: 1;"></path></g></g><g class="col_label_text" transform="translate(130) rotate(-90)"><g class="col_label_group" transform="translate(13,13.472727272727273) rotate(45)"><rect class="col_bars" width="41.462485629342346" height="17.16" opacity="0.6" style="fill: rgb(255, 102, 102);"></rect><text x="0" y="16.64" dx="0.4727272727272727" text-anchor="start" full_name="Bronchial epithelial cell" style="font-size: 20px; opacity: 1;">Bronchial e..</text><path d="M -0.4727272727272727,0 L -17.112727272727273,0, L -0.4727272727272727,16.64 Z" fill="#eee" style="stroke-width: 0; opacity: 1;"></path></g></g><g class="col_label_text" transform="translate(156) rotate(-90)"><g class="col_label_group" transform="translate(13,13.472727272727273) rotate(45)"><rect class="col_bars" width="41.23337020300092" height="17.16" opacity="0.6" style="fill: rgb(255, 102, 102);"></rect><text x="0" y="16.64" dx="0.4727272727272727" text-anchor="start" full_name="Parietal lobe" style="font-size: 20px; opacity: 1;">Parietal lobe</text><path d="M -0.4727272727272727,0 L -17.112727272727273,0, L -0.4727272727272727,16.64 Z" fill="#eee" style="stroke-width: 0; opacity: 1;"></path></g></g><g class="col_label_text" transform="translate(182) rotate(-90)"><g class="col_label_group" transform="translate(13,13.472727272727273) rotate(45)"><rect class="col_bars" width="40.96380622064396" height="17.16" opacity="0.6" style="fill: rgb(255, 102, 102);"></rect><text x="0" y="16.64" dx="0.4727272727272727" text-anchor="start" full_name="Cingulate cortex" style="font-size: 20px; opacity: 1;">Cingulate c..</text><path d="M -0.4727272727272727,0 L -17.112727272727273,0, L -0.4727272727272727,16.64 Z" fill="#eee" style="stroke-width: 0; opacity: 1;"></path></g></g><g class="col_label_text" transform="translate(208) rotate(-90)"><g class="col_label_group" transform="translate(13,13.472727272727273) rotate(45)"><rect class="col_bars" width="37.62482329939812" height="17.16" opacity="0.6" style="fill: rgb(255, 102, 102);"></rect><text x="0" y="16.64" dx="0.4727272727272727" text-anchor="start" full_name="Occipital lobe" style="font-size: 20px; opacity: 1;">Occipital l..</text><path d="M -0.4727272727272727,0 L -17.112727272727273,0, L -0.4727272727272727,16.64 Z" fill="#eee" style="stroke-width: 0; opacity: 1;"></path></g></g><g class="col_label_text" transform="translate(234) rotate(-90)"><g class="col_label_group" transform="translate(13,13.472727272727273) rotate(45)"><rect class="col_bars" width="36.76593991109752" height="17.16" opacity="0.6" style="fill: rgb(255, 102, 102);"></rect><text x="0" y="16.64" dx="0.4727272727272727" text-anchor="start" full_name="Thymus" style="font-size: 20px; opacity: 1;">Thymus</text><path d="M -0.4727272727272727,0 L -17.112727272727273,0, L -0.4727272727272727,16.64 Z" fill="#eee" style="stroke-width: 0; opacity: 1;"></path></g></g></g></g><path d="M 0,0 L 500,-500, L 500,0 Z" fill="#FFFFFF" class="right_slant_triangle" transform="translate(260,120)" style="stroke-width: 0;"></path><path d="M 0,0 L 500,-500, L 0,-500 Z" fill="#FFFFFF" class="left_slant_triangle" transform="translate(-1,120)" style="stroke-width: 0;"></path></g><rect fill="#FFFFFF" width="143" height="152" class="top_left_white"></rect><rect fill="#FFFFFF" width="300px" height="610px" transform="translate(408,147)" class="right_spillover"></rect><rect fill="#FFFFFF" width="5" height="5" transform="translate(403,147)" class="white_bars dendro_row_spillover"></rect><rect fill="#FFFFFF" width="143" height="448" transform="translate(0,600)" class="white_bars dendro_col_spillover"></rect><rect fill="#FFFFFF" width="260" height="17" transform="translate(403,600)" class="white_bars dendro_corner_spillover"></rect><rect fill="#FFFFFF" height="25px" width="3000px" class="super_col_bkg white_bars" transform="translate(0,2)"></rect><text class="super_col" text-anchor="center" transform="translate(180.640625,20)" style="font-size: 18px; font-weight: 300;">Enriched Terms</text><rect fill="#FFFFFF" width="25px" height="3000px" class="super_row_bkg white_bars" transform="translate(2,0)"></rect><g class="super_row" transform="translate(20,344)"><text text-anchor="center" transform="translate(0,158.1171875), rotate(-90)" style="font-size: 18px; font-weight: 300;">Input Genes</text></g><rect class="left_border borders" fill="#F5F5F5" width="2" height="610" transform="translate(0,0)"></rect><rect class="right_border borders" fill="#F5F5F5" width="2" height="610" transform="translate(521,0)"></rect><rect class="top_border borders" fill="#F5F5F5" width="523" height="2" transform="translate(0,0)"></rect><rect class="bottom_border borders" fill="#F5F5F5" width="523" height="2" transform="translate(0,608)"></rect><text class="expand_button" text-anchor="middle" dominant-baseline="central" font-family="FontAwesome" font-size="30px" y="25px" x="25px" style="cursor: pointer; opacity: 0;"></text></svg>