<svg class="viz_svg" id="svg_container-id-1" width="523" height="610" style="opacity: 1;" title="test2" version="1.1" xmlns="http://www.w3.org/2000/svg"><rect class="super_background" style="width: 523px; height: 610px; fill: white;"></rect><g class="clust_container" transform="translate(143,124)"><g class="clust_group" transform="translate(0,0) scale(1,1)translate(0,0)"><rect class="background grey_background" width="288" height="476" style="fill: rgb(238, 238, 238); opacity: 0.5;"></rect><g class="row" transform="translate(0,0)"><rect class="tile row_tile" width="28.276363636363637" height="21.242975206611572" transform="translate(201.60000610351562,0)" style="fill: rgb(255, 102, 102); fill-opacity: 1;"></rect><rect class="tile row_tile" width="28.276363636363637" height="21.242975206611572" transform="translate(259.20001220703125,0)" style="fill: rgb(255, 102, 102); fill-opacity: 1;"></rect><rect class="tile row_tile" width="28.276363636363637" height="21.242975206611572" fill-opacity="1" transform="translate(144,0)" style="fill: rgb(255, 102, 102);"></rect><rect class="tile row_tile" width="28.276363636363637" height="21.242975206611572" fill-opacity="1" transform="translate(230.39999389648438,0)" style="fill: rgb(255, 102, 102);"></rect><rect class="tile row_tile" width="28.276363636363637" height="21.242975206611572" fill-opacity="1" transform="translate(115.19999694824219,0)" style="fill: rgb(255, 102, 102);"></rect><rect class="tile row_tile" width="28.276363636363637" height="21.242975206611572" fill-opacity="1" transform="translate(172.8000030517578,0)" style="fill: rgb(255, 102, 102);"></rect></g><g class="row" transform="translate(0,21.636363983154297)"><rect class="tile row_tile" width="28.276363636363637" height="21.242975206611572" transform="translate(201.60000610351562,0)" style="fill: rgb(255, 102, 102); fill-opacity: 1;"></rect><rect class="tile row_tile" width="28.276363636363637" height="21.242975206611572" fill-opacity="1" transform="translate(144,0)" style="fill: rgb(255, 102, 102);"></rect><rect class="tile row_tile" width="28.276363636363637" height="21.242975206611572" fill-opacity="1" transform="translate(230.39999389648438,0)" style="fill: rgb(255, 102, 102);"></rect><rect class="tile row_tile" width="28.276363636363637" height="21.242975206611572" fill-opacity="1" transform="translate(115.19999694824219,0)" style="fill: rgb(255, 102, 102);"></rect><rect class="tile row_tile" width="28.276363636363637" height="21.242975206611572" fill-opacity="1" transform="translate(172.8000030517578,0)" style="fill: rgb(255, 102, 102);"></rect></g><g class="row" transform="translate(0,64.90908813476562)"><rect class="tile row_tile" width="28.276363636363637" height="21.242975206611572" transform="translate(259.20001220703125,0)" style="fill: rgb(255, 102, 102); fill-opacity: 1;"></rect><rect class="tile row_tile" width="28.276363636363637" height="21.242975206611572" fill-opacity="1" transform="translate(144,0)" style="fill: rgb(255, 102, 102);"></rect><rect class="tile row_tile" width="28.276363636363637" height="21.242975206611572" fill-opacity="1" transform="translate(230.39999389648438,0)" style="fill: rgb(255, 102, 102);"></rect><rect class="tile row_tile" width="28.276363636363637" height="21.242975206611572" fill-opacity="1" transform="translate(115.19999694824219,0)" style="fill: rgb(255, 102, 102);"></rect><rect class="tile row_tile" width="28.276363636363637" height="21.242975206611572" fill-opacity="1" transform="translate(172.8000030517578,0)" style="fill: rgb(255, 102, 102);"></rect></g><g class="row" transform="translate(0,129.81817626953125)"><rect class="tile row_tile" width="28.276363636363637" height="21.242975206611572" transform="translate(259.20001220703125,0)" style="fill: rgb(255, 102, 102); fill-opacity: 1;"></rect><rect class="tile row_tile" width="28.276363636363637" height="21.242975206611572" transform="translate(86.4000015258789,0)" style="fill: rgb(255, 102, 102); fill-opacity: 1;"></rect><rect class="tile row_tile" width="28.276363636363637" height="21.242975206611572" transform="translate(57.599998474121094,0)" style="fill: rgb(255, 102, 102); fill-opacity: 1;"></rect><rect class="tile row_tile" width="28.276363636363637" height="21.242975206611572" fill-opacity="1" transform="translate(28.799999237060547,0)" style="fill: rgb(255, 102, 102);"></rect><rect class="tile row_tile" width="28.276363636363637" height="21.242975206611572" fill-opacity="1" transform="" style="fill: rgb(255, 102, 102);"></rect></g><g class="row" transform="translate(0,86.54545593261719)"><rect class="tile row_tile" width="28.276363636363637" height="21.242975206611572" transform="translate(201.60000610351562,0)" style="fill: rgb(255, 102, 102); fill-opacity: 1;"></rect><rect class="tile row_tile" width="28.276363636363637" height="21.242975206611572" fill-opacity="1" transform="translate(144,0)" style="fill: rgb(255, 102, 102);"></rect><rect class="tile row_tile" width="28.276363636363637" height="21.242975206611572" fill-opacity="1" transform="translate(230.39999389648438,0)" style="fill: rgb(255, 102, 102);"></rect><rect class="tile row_tile" width="28.276363636363637" height="21.242975206611572" fill-opacity="1" transform="translate(115.19999694824219,0)" style="fill: rgb(255, 102, 102);"></rect><rect class="tile row_tile" width="28.276363636363637" height="21.242975206611572" fill-opacity="1" transform="translate(172.8000030517578,0)" style="fill: rgb(255, 102, 102);"></rect></g><g class="row" transform="translate(0,108.18181610107422)"><rect class="tile row_tile" width="28.276363636363637" height="21.242975206611572" transform="translate(201.60000610351562,0)" style="fill: rgb(255, 102, 102); fill-opacity: 1;"></rect><rect class="tile row_tile" width="28.276363636363637" height="21.242975206611572" fill-opacity="1" transform="translate(144,0)" style="fill: rgb(255, 102, 102);"></rect><rect class="tile row_tile" width="28.276363636363637" height="21.242975206611572" fill-opacity="1" transform="translate(230.39999389648438,0)" style="fill: rgb(255, 102, 102);"></rect><rect class="tile row_tile" width="28.276363636363637" height="21.242975206611572" fill-opacity="1" transform="translate(115.19999694824219,0)" style="fill: rgb(255, 102, 102);"></rect><rect class="tile row_tile" width="28.276363636363637" height="21.242975206611572" fill-opacity="1" transform="translate(172.8000030517578,0)" style="fill: rgb(255, 102, 102);"></rect></g><g class="row" transform="translate(0,43.272727966308594)"><rect class="tile row_tile" width="28.276363636363637" height="21.242975206611572" transform="translate(201.60000610351562,0)" style="fill: rgb(255, 102, 102); fill-opacity: 1;"></rect><rect class="tile row_tile" width="28.276363636363637" height="21.242975206611572" transform="translate(259.20001220703125,0)" style="fill: rgb(255, 102, 102); fill-opacity: 1;"></rect><rect class="tile row_tile" width="28.276363636363637" height="21.242975206611572" fill-opacity="1" transform="translate(144,0)" style="fill: rgb(255, 102, 102);"></rect><rect class="tile row_tile" width="28.276363636363637" height="21.242975206611572" fill-opacity="1" transform="translate(28.799999237060547,0)" style="fill: rgb(255, 102, 102);"></rect><rect class="tile row_tile" width="28.276363636363637" height="21.242975206611572" fill-opacity="1" transform="translate(172.8000030517578,0)" style="fill: rgb(255, 102, 102);"></rect></g><g class="row" transform="translate(0,194.72727966308594)"><rect class="tile row_tile" width="28.276363636363637" height="21.242975206611572" transform="translate(57.599998474121094,0)" style="fill: rgb(255, 102, 102); fill-opacity: 1;"></rect><rect class="tile row_tile" width="28.276363636363637" height="21.242975206611572" fill-opacity="1" transform="translate(28.799999237060547,0)" style="fill: rgb(255, 102, 102);"></rect><rect class="tile row_tile" width="28.276363636363637" height="21.242975206611572" fill-opacity="1" transform="" style="fill: rgb(255, 102, 102);"></rect></g><g class="row" transform="translate(0,151.4545440673828)"><rect class="tile row_tile" width="28.276363636363637" height="21.242975206611572" transform="translate(57.599998474121094,0)" style="fill: rgb(255, 102, 102); fill-opacity: 1;"></rect><rect class="tile row_tile" width="28.276363636363637" height="21.242975206611572" fill-opacity="1" transform="translate(28.799999237060547,0)" style="fill: rgb(255, 102, 102);"></rect><rect class="tile row_tile" width="28.276363636363637" height="21.242975206611572" fill-opacity="1" transform="" style="fill: rgb(255, 102, 102);"></rect></g><g class="row" transform="translate(0,173.09091186523438)"><rect class="tile row_tile" width="28.276363636363637" height="21.242975206611572" transform="translate(57.599998474121094,0)" style="fill: rgb(255, 102, 102); fill-opacity: 1;"></rect><rect class="tile row_tile" width="28.276363636363637" height="21.242975206611572" fill-opacity="1" transform="translate(28.799999237060547,0)" style="fill: rgb(255, 102, 102);"></rect><rect class="tile row_tile" width="28.276363636363637" height="21.242975206611572" fill-opacity="1" transform="" style="fill: rgb(255, 102, 102);"></rect></g><g class="row" transform="translate(0,216.36363220214844)"><rect class="tile row_tile" width="28.276363636363637" height="21.242975206611572" transform="translate(57.599998474121094,0)" style="fill: rgb(255, 102, 102); fill-opacity: 1;"></rect><rect class="tile row_tile" width="28.276363636363637" height="21.242975206611572" fill-opacity="1" transform="translate(28.799999237060547,0)" style="fill: rgb(255, 102, 102);"></rect><rect class="tile row_tile" width="28.276363636363637" height="21.242975206611572" fill-opacity="1" transform="" style="fill: rgb(255, 102, 102);"></rect></g><g class="row" transform="translate(0,281.2727355957031)"><rect class="tile row_tile" width="28.276363636363637" height="21.242975206611572" transform="translate(201.60000610351562,0)" style="fill: rgb(255, 102, 102); fill-opacity: 1;"></rect><rect class="tile row_tile" width="28.276363636363637" height="21.242975206611572" transform="translate(86.4000015258789,0)" style="fill: rgb(255, 102, 102); fill-opacity: 1;"></rect></g><g class="row" transform="translate(0,302.9090881347656)"><rect class="tile row_tile" width="28.276363636363637" height="21.242975206611572" transform="translate(86.4000015258789,0)" style="fill: rgb(255, 102, 102); fill-opacity: 1;"></rect></g><g class="row" transform="translate(0,367.81817626953125)"><rect class="tile row_tile" width="28.276363636363637" height="21.242975206611572" transform="translate(259.20001220703125,0)" style="fill: rgb(255, 102, 102); fill-opacity: 1;"></rect></g><g class="row" transform="translate(0,411.0909118652344)"><rect class="tile row_tile" width="28.276363636363637" height="21.242975206611572" transform="translate(86.4000015258789,0)" style="fill: rgb(255, 102, 102); fill-opacity: 1;"></rect></g><g class="row" transform="translate(0,454.3636474609375)"><rect class="tile row_tile" width="28.276363636363637" height="21.242975206611572" transform="translate(86.4000015258789,0)" style="fill: rgb(255, 102, 102); fill-opacity: 1;"></rect></g><g class="row" transform="translate(0,432.72727272727275)"><rect class="tile row_tile" width="28.276363636363637" height="21.242975206611572" transform="translate(230.39999389648438,0)" style="fill: rgb(255, 102, 102); fill-opacity: 1;"></rect></g><g class="row" transform="translate(0,389.4545593261719)"><rect class="tile row_tile" width="28.276363636363637" height="21.242975206611572" transform="translate(144,0)" style="fill: rgb(255, 102, 102); fill-opacity: 1;"></rect></g><g class="row" transform="translate(0,346.18182373046875)"><rect class="tile row_tile" width="28.276363636363637" height="21.242975206611572" transform="translate(230.39999389648438,0)" style="fill: rgb(255, 102, 102); fill-opacity: 1;"></rect></g><g class="row" transform="translate(0,324.5454406738281)"><rect class="tile row_tile" width="28.276363636363637" height="21.242975206611572" transform="translate(144,0)" style="fill: rgb(255, 102, 102); fill-opacity: 1;"></rect></g><g class="row" transform="translate(0,259.6363525390625)"><rect class="tile row_tile" width="28.276363636363637" height="21.242975206611572" transform="translate(144,0)" style="fill: rgb(255, 102, 102); fill-opacity: 1;"></rect><rect class="tile row_tile" width="28.276363636363637" height="21.242975206611572" transform="translate(115.19999694824219,0)" style="fill: rgb(255, 102, 102); fill-opacity: 1;"></rect></g><g class="row" transform="translate(0,238)"><rect class="tile row_tile" width="28.276363636363637" height="21.242975206611572" transform="translate(28.799999237060547,0)" style="fill: rgb(255, 102, 102); fill-opacity: 1;"></rect><rect class="tile row_tile" width="28.276363636363637" height="21.242975206611572" transform="" style="fill: rgb(255, 102, 102); fill-opacity: 1;"></rect></g><g class="horz_lines" transform="translate(0,21.636363636363637) rotate(0)"><line x1="0" x2="288" opacity="1" stroke="white" style="stroke-width: 0.540909px;"></line></g><g class="horz_lines" transform="translate(0,108.18181818181819) rotate(0)"><line x1="0" x2="288" opacity="1" stroke="white" style="stroke-width: 0.540909px;"></line></g><g class="horz_lines" transform="translate(0,194.72727272727272) rotate(0)"><line x1="0" x2="288" opacity="1" stroke="white" style="stroke-width: 0.540909px;"></line></g><g class="horz_lines" transform="translate(0,432.72727272727275) rotate(0)"><line x1="0" x2="288" opacity="1" stroke="white" style="stroke-width: 0.540909px;"></line></g><g class="horz_lines" transform="translate(0,0) rotate(0)"><line x1="0" x2="288" opacity="1" stroke="white" style="stroke-width: 0.540909px;"></line></g><g class="horz_lines" transform="translate(0,367.8181818181818) rotate(0)"><line x1="0" x2="288" opacity="1" stroke="white" style="stroke-width: 0.540909px;"></line></g><g class="horz_lines" transform="translate(0,454.3636363636364) rotate(0)"><line x1="0" x2="288" opacity="1" stroke="white" style="stroke-width: 0.540909px;"></line></g><g class="horz_lines" transform="translate(0,64.9090909090909) rotate(0)"><line x1="0" x2="288" opacity="1" stroke="white" style="stroke-width: 0.540909px;"></line></g><g class="horz_lines" transform="translate(0,411.0909090909091) rotate(0)"><line x1="0" x2="288" opacity="1" stroke="white" style="stroke-width: 0.540909px;"></line></g><g class="horz_lines" transform="translate(0,238) rotate(0)"><line x1="0" x2="288" opacity="1" stroke="white" style="stroke-width: 0.540909px;"></line></g><g class="horz_lines" transform="translate(0,281.27272727272725) rotate(0)"><line x1="0" x2="288" opacity="1" stroke="white" style="stroke-width: 0.540909px;"></line></g><g class="horz_lines" transform="translate(0,86.54545454545455) rotate(0)"><line x1="0" x2="288" opacity="1" stroke="white" style="stroke-width: 0.540909px;"></line></g><g class="horz_lines" transform="translate(0,259.6363636363636) rotate(0)"><line x1="0" x2="288" opacity="1" stroke="white" style="stroke-width: 0.540909px;"></line></g><g class="horz_lines" transform="translate(0,346.1818181818182) rotate(0)"><line x1="0" x2="288" opacity="1" stroke="white" style="stroke-width: 0.540909px;"></line></g><g class="horz_lines" transform="translate(0,389.45454545454544) rotate(0)"><line x1="0" x2="288" opacity="1" stroke="white" style="stroke-width: 0.540909px;"></line></g><g class="horz_lines" transform="translate(0,216.36363636363637) rotate(0)"><line x1="0" x2="288" opacity="1" stroke="white" style="stroke-width: 0.540909px;"></line></g><g class="horz_lines" transform="translate(0,43.27272727272727) rotate(0)"><line x1="0" x2="288" opacity="1" stroke="white" style="stroke-width: 0.540909px;"></line></g><g class="horz_lines" transform="translate(0,173.0909090909091) rotate(0)"><line x1="0" x2="288" opacity="1" stroke="white" style="stroke-width: 0.540909px;"></line></g><g class="horz_lines" transform="translate(0,324.54545454545456) rotate(0)"><line x1="0" x2="288" opacity="1" stroke="white" style="stroke-width: 0.540909px;"></line></g><g class="horz_lines" transform="translate(0,129.8181818181818) rotate(0)"><line x1="0" x2="288" opacity="1" stroke="white" style="stroke-width: 0.540909px;"></line></g><g class="horz_lines" transform="translate(0,151.45454545454547) rotate(0)"><line x1="0" x2="288" opacity="1" stroke="white" style="stroke-width: 0.540909px;"></line></g><g class="horz_lines" transform="translate(0,302.90909090909093) rotate(0)"><line x1="0" x2="288" opacity="1" stroke="white" style="stroke-width: 0.540909px;"></line></g><g class="vert_lines" transform="translate(0) rotate(-90)"><line x1="0" x2="-476" opacity="1" style="stroke-width: 0.72px; stroke: white;"></line></g><g class="vert_lines" transform="translate(28.8) rotate(-90)"><line x1="0" x2="-476" opacity="1" style="stroke-width: 0.72px; stroke: white;"></line></g><g class="vert_lines" transform="translate(57.6) rotate(-90)"><line x1="0" x2="-476" opacity="1" style="stroke-width: 0.72px; stroke: white;"></line></g><g class="vert_lines" transform="translate(86.4) rotate(-90)"><line x1="0" x2="-476" opacity="1" style="stroke-width: 0.72px; stroke: white;"></line></g><g class="vert_lines" transform="translate(115.2) rotate(-90)"><line x1="0" x2="-476" opacity="1" style="stroke-width: 0.72px; stroke: white;"></line></g><g class="vert_lines" transform="translate(144) rotate(-90)"><line x1="0" x2="-476" opacity="1" style="stroke-width: 0.72px; stroke: white;"></line></g><g class="vert_lines" transform="translate(172.8) rotate(-90)"><line x1="0" x2="-476" opacity="1" style="stroke-width: 0.72px; stroke: white;"></line></g><g class="vert_lines" transform="translate(201.6) rotate(-90)"><line x1="0" x2="-476" opacity="1" style="stroke-width: 0.72px; stroke: white;"></line></g><g class="vert_lines" transform="translate(230.4) rotate(-90)"><line x1="0" x2="-476" opacity="1" style="stroke-width: 0.72px; stroke: white;"></line></g><g class="vert_lines" transform="translate(259.2) rotate(-90)"><line x1="0" x2="-476" opacity="1" style="stroke-width: 0.72px; stroke: white;"></line></g></g></g><g class="row_container" transform="translate(27,124)"><rect class="row_white_background white_bars" fill="#FFFFFF" width="116" height="14280px"></rect><g class="row_label_container" transform="translate(99,0)"><g class="row_label_zoom_container" transform="translate(0,0) scale(1,1)translate(0,0)"><g class="row_label_group" transform="translate(0,0)" y="17.621487603305788"><rect x="-64.828125" y="0" width="64.828125" height="21.636363636363637" style="opacity: 0; fill: yellow;"></rect><text y="17.621487603305788" text-anchor="end" pointer-events="none" style="font-size: 20px; opacity: 1;" class="">MATR3</text></g><g class="row_label_group" transform="translate(0,21.636363983154297)" y="17.621487603305788"><rect x="-64.4375" y="0" width="64.59375" height="21.636363636363637" style="opacity: 0; fill: yellow;"></rect><text y="17.621487603305788" text-anchor="end" pointer-events="none" style="font-size: 20px; opacity: 1;" class="">UBE3A</text></g><g class="row_label_group" transform="translate(0,64.90908813476562)" y="17.621487603305788"><rect x="-81.859375" y="0" width="81.859375" height="21.636363636363637" style="opacity: 0; fill: yellow;"></rect><text y="17.621487603305788" text-anchor="end" pointer-events="none" style="font-size: 20px; opacity: 1;" class="">SCAMP1</text></g><g class="row_label_group" transform="translate(0,129.81817626953125)" y="17.621487603305788"><rect x="-78.515625" y="0" width="78.515625" height="21.636363636363637" style="opacity: 0; fill: yellow;"></rect><text y="17.621487603305788" text-anchor="end" pointer-events="none" style="font-size: 20px; opacity: 1;">CADPS2</text></g><g class="row_label_group" transform="translate(0,86.54545593261719)" y="17.621487603305788"><rect x="-47.40625" y="0" width="47.40625" height="21.636363636363637" style="opacity: 0; fill: yellow;"></rect><text y="17.621487603305788" text-anchor="end" pointer-events="none" style="font-size: 20px; opacity: 1;" class="">PJA2</text></g><g class="row_label_group" transform="translate(0,108.18181610107422)" y="17.621487603305788"><rect x="-82.59375" y="0" width="82.59375" height="21.636363636363637" style="opacity: 0; fill: yellow;"></rect><text y="17.621487603305788" text-anchor="end" pointer-events="none" style="font-size: 20px; opacity: 1;" class="">MYCBP2</text></g><g class="row_label_group" transform="translate(0,43.272727966308594)" y="17.621487603305788"><rect x="-95.546875" y="0" width="95.546875" height="21.636363636363637" style="opacity: 0; fill: yellow;"></rect><text y="17.621487603305788" text-anchor="end" pointer-events="none" style="font-size: 20px; opacity: 1;" class="">SMARCA2</text></g><g class="row_label_group" transform="translate(0,194.72727966308594)" y="17.621487603305788"><rect x="-55.546875" y="0" width="55.546875" height="21.636363636363637" style="opacity: 0; fill: yellow;"></rect><text y="17.621487603305788" text-anchor="end" pointer-events="none" style="font-size: 20px; opacity: 1;" class="">NEFM</text></g><g class="row_label_group" transform="translate(0,151.4545440673828)" y="17.621487603305788"><rect x="-48.515625" y="0" width="48.515625" height="21.636363636363637" style="opacity: 0; fill: yellow;"></rect><text y="17.621487603305788" text-anchor="end" pointer-events="none" style="font-size: 20px; opacity: 1;">SYT4</text></g><g class="row_label_group" transform="translate(0,173.09091186523438)" y="17.621487603305788"><rect x="-75.546875" y="0" width="75.546875" height="21.636363636363637" style="opacity: 0; fill: yellow;"></rect><text y="17.621487603305788" text-anchor="end" pointer-events="none" style="font-size: 20px; opacity: 1;" class="">SNAP91</text></g><g class="row_label_group" transform="translate(0,216.36363220214844)" y="17.621487603305788"><rect x="-67.390625" y="0" width="67.390625" height="21.636363636363637" style="opacity: 0; fill: yellow;"></rect><text y="17.621487603305788" text-anchor="end" pointer-events="none" style="font-size: 20px; opacity: 1;" class="">CADPS</text></g><g class="row_label_group" transform="translate(0,281.2727355957031)" y="17.621487603305788"><rect x="-65.1875" y="0" width="65.359375" height="21.636363636363637" style="opacity: 0; fill: yellow;"></rect><text y="17.621487603305788" text-anchor="end" pointer-events="none" style="font-size: 20px; opacity: 1;" class="">KIF21A</text></g><g class="row_label_group" transform="translate(0,302.9090881347656)" y="17.621487603305788"><rect x="-103.328125" y="0" width="103.328125" height="21.636363636363637" style="opacity: 0; fill: yellow;"></rect><text y="17.621487603305788" text-anchor="end" pointer-events="none" style="font-size: 20px; opacity: 1;" class="">SH3BG..</text></g><g class="row_label_group" transform="translate(0,367.81817626953125)" y="17.621487603305788"><rect x="-49.984375" y="0" width="49.984375" height="21.636363636363637" style="opacity: 0; fill: yellow;"></rect><text y="17.621487603305788" text-anchor="end" pointer-events="none" style="font-size: 20px; opacity: 1;" class="">HSF2</text></g><g class="row_label_group" transform="translate(0,411.0909118652344)" y="17.621487603305788"><rect x="-116.65625" y="0" width="116.65625" height="21.636363636363637" style="opacity: 0; fill: yellow;"></rect><text y="17.621487603305788" text-anchor="end" pointer-events="none" style="font-size: 20px; opacity: 1;" class="">GABARA..</text></g><g class="row_label_group" transform="translate(0,454.3636474609375)" y="17.621487603305788"><rect x="-65.296875" y="0" width="65.296875" height="21.636363636363637" style="opacity: 0; fill: yellow;"></rect><text y="17.621487603305788" text-anchor="end" pointer-events="none" style="font-size: 20px; opacity: 1;">ABCA5</text></g><g class="row_label_group" transform="translate(0,432.72727272727275)" y="17.621487603305788"><rect x="-75.9375" y="0" width="75.9375" height="21.636363636363637" style="opacity: 0; fill: yellow;"></rect><text y="17.621487603305788" text-anchor="end" pointer-events="none" style="font-size: 20px; opacity: 1;">DNAJA2</text></g><g class="row_label_group" transform="translate(0,389.4545593261719)" y="17.621487603305788"><rect x="-64.4375" y="0" width="64.4375" height="21.636363636363637" style="opacity: 0; fill: yellow;"></rect><text y="17.621487603305788" text-anchor="end" pointer-events="none" style="font-size: 20px; opacity: 1;">GRSF1</text></g><g class="row_label_group" transform="translate(0,346.18182373046875)" y="17.621487603305788"><rect x="-64.8125" y="0" width="64.8125" height="21.636363636363637" style="opacity: 0; fill: yellow;"></rect><text y="17.621487603305788" text-anchor="end" pointer-events="none" style="font-size: 20px; opacity: 1;">KPNA4</text></g><g class="row_label_group" transform="translate(0,324.5454406738281)" y="17.621487603305788"><rect x="-77.390625" y="0" width="77.546875" height="21.636363636363637" style="opacity: 0; fill: yellow;"></rect><text y="17.621487603305788" text-anchor="end" pointer-events="none" style="font-size: 20px; opacity: 1;">PPP2CA</text></g><g class="row_label_group" transform="translate(0,259.6363525390625)" y="17.621487603305788"><rect x="-62.953125" y="0" width="62.953125" height="21.636363636363637" style="opacity: 0; fill: yellow;"></rect><text y="17.621487603305788" text-anchor="end" pointer-events="none" style="font-size: 20px; opacity: 1;">PREPL</text></g><g class="row_label_group" transform="translate(0,238)" y="17.621487603305788"><rect x="-75.9375" y="0" width="75.9375" height="21.636363636363637" style="opacity: 0; fill: yellow;"></rect><text y="17.621487603305788" text-anchor="end" pointer-events="none" style="font-size: 20px; opacity: 1;">SH3GL2</text></g></g></g><g class="row_cat_outer_container" transform="translate(99,0)"><g class="row_cat_container" transform="translate(0,0) scale(1,1)translate(0,0)"><rect class="white_bars" fill="#FFFFFF" width="12px" height="476"></rect><g class="row_cat_group" transform="translate(0,0)"><path d="M 11,0 L 1,10.818181818181818, L 11,21.636363636363637 Z" fill="#eee"></path></g><g class="row_cat_group" transform="translate(0,21.636363983154297)"><path d="M 11,0 L 1,10.818181818181818, L 11,21.636363636363637 Z" fill="#eee"></path></g><g class="row_cat_group" transform="translate(0,64.90908813476562)"><path d="M 11,0 L 1,10.818181818181818, L 11,21.636363636363637 Z" fill="#eee"></path></g><g class="row_cat_group" transform="translate(0,129.81817626953125)"><path d="M 11,0 L 1,10.818181818181818, L 11,21.636363636363637 Z" fill="#eee"></path></g><g class="row_cat_group" transform="translate(0,86.54545593261719)"><path d="M 11,0 L 1,10.818181818181818, L 11,21.636363636363637 Z" fill="#eee"></path></g><g class="row_cat_group" transform="translate(0,108.18181610107422)"><path d="M 11,0 L 1,10.818181818181818, L 11,21.636363636363637 Z" fill="#eee"></path></g><g class="row_cat_group" transform="translate(0,43.272727966308594)"><path d="M 11,0 L 1,10.818181818181818, L 11,21.636363636363637 Z" fill="#eee"></path></g><g class="row_cat_group" transform="translate(0,194.72727966308594)"><path d="M 11,0 L 1,10.818181818181818, L 11,21.636363636363637 Z" fill="#eee"></path></g><g class="row_cat_group" transform="translate(0,151.4545440673828)"><path d="M 11,0 L 1,10.818181818181818, L 11,21.636363636363637 Z" fill="#eee"></path></g><g class="row_cat_group" transform="translate(0,173.09091186523438)"><path d="M 11,0 L 1,10.818181818181818, L 11,21.636363636363637 Z" fill="#eee"></path></g><g class="row_cat_group" transform="translate(0,216.36363220214844)"><path d="M 11,0 L 1,10.818181818181818, L 11,21.636363636363637 Z" fill="#eee"></path></g><g class="row_cat_group" transform="translate(0,281.2727355957031)"><path d="M 11,0 L 1,10.818181818181818, L 11,21.636363636363637 Z" fill="#eee"></path></g><g class="row_cat_group" transform="translate(0,302.9090881347656)"><path d="M 11,0 L 1,10.818181818181818, L 11,21.636363636363637 Z" fill="#eee"></path></g><g class="row_cat_group" transform="translate(0,367.81817626953125)"><path d="M 11,0 L 1,10.818181818181818, L 11,21.636363636363637 Z" fill="#eee"></path></g><g class="row_cat_group" transform="translate(0,411.0909118652344)"><path d="M 11,0 L 1,10.818181818181818, L 11,21.636363636363637 Z" fill="#eee"></path></g><g class="row_cat_group" transform="translate(0,454.3636474609375)"><path d="M 11,0 L 1,10.818181818181818, L 11,21.636363636363637 Z" fill="#eee"></path></g><g class="row_cat_group" transform="translate(0,432.7272644042969)"><path d="M 11,0 L 1,10.818181818181818, L 11,21.636363636363637 Z" fill="#eee"></path></g><g class="row_cat_group" transform="translate(0,389.4545593261719)"><path d="M 11,0 L 1,10.818181818181818, L 11,21.636363636363637 Z" fill="#eee"></path></g><g class="row_cat_group" transform="translate(0,346.18182373046875)"><path d="M 11,0 L 1,10.818181818181818, L 11,21.636363636363637 Z" fill="#eee"></path></g><g class="row_cat_group" transform="translate(0,324.5454406738281)"><path d="M 11,0 L 1,10.818181818181818, L 11,21.636363636363637 Z" fill="#eee"></path></g><g class="row_cat_group" transform="translate(0,259.6363525390625)"><path d="M 11,0 L 1,10.818181818181818, L 11,21.636363636363637 Z" fill="#eee"></path></g><g class="row_cat_group" transform="translate(0,238)"><path d="M 11,0 L 1,10.818181818181818, L 11,21.636363636363637 Z" fill="#eee"></path></g></g></g></g><g class="col_container" transform="translate(143,27)"><rect fill="#FFFFFF" width="8640px" height="97" class="white_bars"></rect><g class="col_label_outer_container" transform="translate(0,92)"><g class="col_zoom_container" transform=" scale(1,1)translate(0,0)"><g class="col_label_text" transform="translate(201.60000610351562,0),rotate(-90)"><g class="col_label_group" transform="translate(14.399999618530273,15.119999885559082),rotate(45)"><rect class="col_bars" width="43.11710710681375" height="18.6624" opacity="0.6" style="fill: rgb(255, 102, 102);"></rect><text x="0" y="17.28" dx="1.44" text-anchor="start" full_name="ZHX1" style="font-size: 20px; opacity: 1;" class="">ZHX1</text><path d="M -0.72,0 L -19.152,0, L -0.72,18.432000000000002 Z" fill="#eee" style="stroke-width: 0; opacity: 1;"></path></g></g><g class="col_label_text" transform="translate(259.20001220703125,0),rotate(-90)"><g class="col_label_group" transform="translate(14.399999618530273,15.119999885559082),rotate(45)"><rect class="col_bars" width="31.558794836097558" height="18.6624" opacity="0.6" style="fill: rgb(255, 102, 102);"></rect><text x="0" y="17.28" dx="1.44" text-anchor="start" full_name="ZFP1" style="font-size: 20px; opacity: 1;" class="">ZFP1</text><path d="M -0.72,0 L -19.152,0, L -0.72,18.432000000000002 Z" fill="#eee" style="stroke-width: 0; opacity: 1;"></path></g></g><g class="col_label_text" transform="translate(86.4000015258789,0),rotate(-90)"><g class="col_label_group" transform="translate(14.399999618530273,15.119999885559082),rotate(45)"><rect class="col_bars" width="30.841606519777216" height="18.6624" opacity="0.6" style="fill: rgb(255, 102, 102);"></rect><text x="0" y="17.28" dx="1.44" text-anchor="start" full_name="ZNF10" style="font-size: 20px; opacity: 1;">ZNF10</text><path d="M -0.72,0 L -19.152,0, L -0.72,18.432000000000002 Z" fill="#eee" style="stroke-width: 0; opacity: 1;"></path></g></g><g class="col_label_text" transform="translate(57.599998474121094,0),rotate(-90)"><g class="col_label_group" transform="translate(14.399999618530273,15.119999885559082),rotate(45)"><rect class="col_bars" width="30.778771645223895" height="18.6624" opacity="0.6" style="fill: rgb(255, 102, 102);"></rect><text x="0" y="17.28" dx="1.44" text-anchor="start" full_name="ASCL1" style="font-size: 20px; opacity: 1;">ASCL1</text><path d="M -0.72,0 L -19.152,0, L -0.72,18.432000000000002 Z" fill="#eee" style="stroke-width: 0; opacity: 1;"></path></g></g><g class="col_label_text" transform="translate(144,0),rotate(-90)"><g class="col_label_group" transform="translate(14.4,15.120000000000001) rotate(45)"><rect class="col_bars" width="69" height="18.6624" opacity="0.6" style="fill: rgb(255, 102, 102);"></rect><text x="0" y="17.28" dx="1.44" text-anchor="start" full_name="SLC30A9" style="font-size: 20px; opacity: 1;">SLC30A9</text><path d="M -0.72,0 L -19.152,0, L -0.72,18.432000000000002 Z" fill="#eee" style="stroke-width: 0; opacity: 1;"></path></g></g><g class="col_label_text" transform="translate(230.39999389648438,0),rotate(-90)"><g class="col_label_group" transform="translate(14.4,15.120000000000001) rotate(45)"><rect class="col_bars" width="48.084604994715626" height="18.6624" opacity="0.6" style="fill: rgb(255, 102, 102);"></rect><text x="0" y="17.28" dx="1.44" text-anchor="start" full_name="CUL5" style="font-size: 20px; opacity: 1;">CUL5</text><path d="M -0.72,0 L -19.152,0, L -0.72,18.432000000000002 Z" fill="#eee" style="stroke-width: 0; opacity: 1;"></path></g></g><g class="col_label_text" transform="translate(28.799999237060547,0),rotate(-90)"><g class="col_label_group" transform="translate(14.4,15.120000000000001) rotate(45)"><rect class="col_bars" width="46.48369077629641" height="18.6624" opacity="0.6" style="fill: rgb(255, 102, 102);"></rect><text x="0" y="17.28" dx="1.44" text-anchor="start" full_name="MYT1L" style="font-size: 20px; opacity: 1;">MYT1L</text><path d="M -0.72,0 L -19.152,0, L -0.72,18.432000000000002 Z" fill="#eee" style="stroke-width: 0; opacity: 1;"></path></g></g><g class="col_label_text" transform="rotate(-90)"><g class="col_label_group" transform="translate(14.4,15.120000000000001) rotate(45)"><rect class="col_bars" width="39.47992999035585" height="18.6624" opacity="0.6" style="fill: rgb(255, 102, 102);"></rect><text x="0" y="17.28" dx="1.44" text-anchor="start" full_name="INSM1" style="font-size: 20px; opacity: 1;">INSM1</text><path d="M -0.72,0 L -19.152,0, L -0.72,18.432000000000002 Z" fill="#eee" style="stroke-width: 0; opacity: 1;"></path></g></g><g class="col_label_text" transform="translate(115.19999694824219,0),rotate(-90)"><g class="col_label_group" transform="translate(14.4,15.120000000000001) rotate(45)"><rect class="col_bars" width="38.4217614312436" height="18.6624" opacity="0.6" style="fill: rgb(255, 102, 102);"></rect><text x="0" y="17.28" dx="1.44" text-anchor="start" full_name="TRIM23" style="font-size: 20px; opacity: 1;">TRIM23</text><path d="M -0.72,0 L -19.152,0, L -0.72,18.432000000000002 Z" fill="#eee" style="stroke-width: 0; opacity: 1;"></path></g></g><g class="col_label_text" transform="translate(172.8) rotate(-90)"><g class="col_label_group" transform="translate(14.4,15.120000000000001) rotate(45)"><rect class="col_bars" width="37.997526166284494" height="18.6624" opacity="0.6" style="fill: rgb(255, 102, 102);"></rect><text x="0" y="17.28" dx="1.44" text-anchor="start" full_name="ZNF148" style="font-size: 20px; opacity: 1;">ZNF148</text><path d="M -0.72,0 L -19.152,0, L -0.72,18.432000000000002 Z" fill="#eee" style="stroke-width: 0; opacity: 1;"></path></g></g></g></g><path d="M 0,0 L 500,-500, L 500,0 Z" fill="#FFFFFF" class="right_slant_triangle" transform="translate(288,92)" style="stroke-width: 0;"></path><path d="M 0,0 L 500,-500, L 0,-500 Z" fill="#FFFFFF" class="left_slant_triangle" transform="translate(-1,92)" style="stroke-width: 0;"></path></g><rect fill="#FFFFFF" width="143" height="124" class="top_left_white"></rect><rect fill="#FFFFFF" width="300px" height="610px" transform="translate(436,119)" class="right_spillover"></rect><rect fill="#FFFFFF" width="5" height="5" transform="translate(431,119)" class="white_bars dendro_row_spillover"></rect><rect fill="#FFFFFF" width="143" height="476" transform="translate(0,600)" class="white_bars dendro_col_spillover"></rect><rect fill="#FFFFFF" width="288" height="17" transform="translate(431,600)" class="white_bars dendro_corner_spillover"></rect><rect fill="#FFFFFF" height="25px" width="3000px" class="super_col_bkg white_bars" transform="translate(0,2)"></rect><text class="super_col" text-anchor="center" transform="translate(243,20)" style="font-size: 18px; font-weight: 300;">Enriched Terms</text><rect fill="#FFFFFF" width="25px" height="3000px" class="super_row_bkg white_bars" transform="translate(2,0)"></rect><g class="super_row" transform="translate(20,330)"><text text-anchor="center" transform="translate(0,130.1171875), rotate(-90)" style="font-size: 18px; font-weight: 300;">Input Genes</text></g><rect class="left_border borders" fill="#F5F5F5" width="2" height="610" transform="translate(0,0)"></rect><rect class="right_border borders" fill="#F5F5F5" width="2" height="610" transform="translate(521,0)"></rect><rect class="top_border borders" fill="#F5F5F5" width="523" height="2" transform="translate(0,0)"></rect><rect class="bottom_border borders" fill="#F5F5F5" width="523" height="2" transform="translate(0,608)"></rect><text class="expand_button" text-anchor="middle" dominant-baseline="central" font-family="FontAwesome" font-size="30px" y="25px" x="25px" style="cursor: pointer; opacity: 0;"></text></svg>